<svg xmlns="http://www.w3.org/2000/svg" xmlns:xlink="http://www.w3.org/1999/xlink" width="500" zoomAndPan="magnify" viewBox="0 0 375 374.999991" height="500" preserveAspectRatio="xMidYMid meet" version="1.0"><defs><g/><clipPath id="9e830937c1"><path d="M 98.207031 98.207031 L 276.707031 98.207031 L 276.707031 276.707031 L 98.207031 276.707031 Z M 98.207031 98.207031 " clip-rule="nonzero"/></clipPath><clipPath id="a470cc6a4e"><path d="M 107.59375 107.59375 L 267.34375 107.59375 L 267.34375 267.34375 L 107.59375 267.34375 Z M 107.59375 107.59375 " clip-rule="nonzero"/></clipPath></defs><g clip-path="url(#9e830937c1)"><path fill="#ffffff" d="M 187.496094 276.761719 L 186.386719 275.351562 C 183.839844 272.113281 180.441406 269.660156 176.570312 268.253906 L 171.371094 266.367188 C 165.433594 264.214844 161.234375 258.90625 160.394531 252.757812 C 155.511719 256.167969 149.0625 256.804688 143.550781 254.222656 L 138.539062 251.882812 C 134.804688 250.136719 130.667969 249.46875 126.574219 249.957031 L 124.796875 250.171875 L 125.007812 248.390625 C 125.496094 244.300781 124.832031 240.160156 123.082031 236.425781 L 120.742188 231.417969 C 118.167969 225.921875 118.792969 219.496094 122.171875 214.621094 C 116.039062 213.769531 110.75 209.574219 108.597656 203.648438 L 106.714844 198.449219 C 105.308594 194.574219 102.855469 191.179688 99.613281 188.632812 L 98.207031 187.527344 L 99.613281 186.417969 C 102.851562 183.867188 105.308594 180.472656 106.714844 176.597656 L 108.597656 171.398438 C 110.753906 165.460938 116.0625 161.261719 122.207031 160.421875 C 118.796875 155.539062 118.164062 149.09375 120.742188 143.578125 L 123.082031 138.566406 C 124.832031 134.832031 125.496094 130.699219 125.007812 126.601562 L 124.796875 124.824219 L 126.574219 125.035156 C 130.667969 125.523438 134.804688 124.859375 138.539062 123.113281 L 143.550781 120.769531 C 149.066406 118.191406 155.511719 118.824219 160.394531 122.238281 C 161.234375 116.089844 165.433594 110.78125 171.371094 108.628906 L 176.570312 106.746094 C 180.445312 105.339844 183.839844 102.886719 186.386719 99.644531 L 187.496094 98.234375 L 188.605469 99.640625 C 191.152344 102.878906 194.550781 105.335938 198.425781 106.742188 L 203.621094 108.628906 C 209.5625 110.78125 213.761719 116.089844 214.601562 122.234375 C 219.484375 118.820312 225.929688 118.1875 231.445312 120.765625 L 236.453125 123.109375 C 240.191406 124.855469 244.328125 125.523438 248.421875 125.03125 L 250.199219 124.820312 L 249.988281 126.597656 C 249.496094 130.691406 250.164062 134.828125 251.910156 138.5625 L 254.253906 143.574219 C 256.832031 149.089844 256.199219 155.535156 252.785156 160.417969 C 258.933594 161.257812 264.242188 165.457031 266.394531 171.398438 L 268.28125 176.59375 C 269.6875 180.472656 272.140625 183.867188 275.382812 186.414062 L 276.789062 187.523438 L 275.382812 188.632812 C 272.144531 191.179688 269.6875 194.578125 268.28125 198.449219 L 266.394531 203.648438 C 264.25 209.574219 258.953125 213.769531 252.820312 214.621094 C 256.203125 219.496094 256.824219 225.921875 254.253906 231.417969 L 251.910156 236.425781 C 250.164062 240.160156 249.496094 244.296875 249.988281 248.390625 L 250.199219 250.171875 L 248.421875 249.957031 C 244.328125 249.46875 240.191406 250.136719 236.453125 251.882812 L 231.445312 254.222656 C 225.929688 256.804688 219.484375 256.167969 214.601562 252.757812 C 213.761719 258.90625 209.5625 264.214844 203.621094 266.363281 L 198.425781 268.25 C 194.546875 269.65625 191.152344 272.109375 188.605469 275.351562 Z M 163.054688 246.476562 L 163.054688 250.492188 C 163.054688 256.394531 166.78125 261.707031 172.328125 263.71875 L 177.527344 265.605469 C 181.355469 266.996094 184.773438 269.292969 187.492188 272.300781 C 190.214844 269.292969 193.628906 266.996094 197.460938 265.605469 L 202.660156 263.71875 C 208.203125 261.710938 211.933594 256.394531 211.933594 250.492188 L 211.933594 246.476562 L 214.335938 248.882812 C 218.511719 253.050781 224.902344 254.175781 230.246094 251.675781 L 235.257812 249.335938 C 238.949219 247.609375 242.984375 246.820312 247.039062 247.019531 C 246.835938 242.972656 247.628906 238.933594 249.351562 235.238281 L 251.695312 230.230469 C 254.195312 224.886719 253.074219 218.492188 248.898438 214.320312 L 246.160156 211.582031 L 250.574219 211.972656 C 256.449219 211.945312 261.738281 208.226562 263.742188 202.699219 L 265.625 197.5 C 267.015625 193.667969 269.316406 190.253906 272.324219 187.53125 C 269.316406 184.8125 267.015625 181.394531 265.625 177.566406 L 263.742188 172.367188 C 261.734375 166.820312 256.414062 163.09375 250.515625 163.09375 L 246.496094 163.09375 L 248.902344 160.6875 C 253.074219 156.519531 254.195312 150.121094 251.699219 144.78125 L 249.355469 139.769531 C 247.628906 136.078125 246.839844 132.039062 247.042969 127.988281 C 242.992188 128.191406 238.953125 127.402344 235.261719 125.675781 L 230.25 123.332031 C 224.90625 120.832031 218.511719 121.953125 214.339844 126.128906 L 211.933594 128.535156 L 211.933594 124.5 C 211.933594 118.601562 208.207031 113.285156 202.664062 111.273438 L 197.464844 109.390625 C 193.632812 108 190.21875 105.699219 187.496094 102.691406 C 184.777344 105.699219 181.359375 108 177.53125 109.390625 L 172.332031 111.273438 C 166.785156 113.28125 163.058594 118.597656 163.058594 124.5 L 163.058594 128.519531 L 160.652344 126.113281 C 156.480469 121.941406 150.085938 120.820312 144.742188 123.316406 L 139.734375 125.660156 C 136.042969 127.386719 132.003906 128.175781 127.953125 127.972656 C 128.152344 132.023438 127.363281 136.0625 125.636719 139.753906 L 123.296875 144.765625 C 120.792969 150.109375 121.917969 156.503906 126.09375 160.675781 L 128.496094 163.082031 L 124.476562 163.082031 C 118.578125 163.082031 113.261719 166.808594 111.25 172.351562 L 109.363281 177.550781 C 107.976562 181.382812 105.675781 184.796875 102.667969 187.519531 C 105.675781 190.238281 107.976562 193.65625 109.363281 197.484375 L 111.25 202.683594 C 113.253906 208.210938 118.539062 211.933594 124.417969 211.957031 L 128.832031 211.566406 L 126.09375 214.304688 C 121.921875 218.476562 120.796875 224.871094 123.296875 230.214844 L 125.636719 235.226562 C 127.363281 238.917969 128.152344 242.957031 127.953125 247.007812 C 132.003906 246.800781 136.042969 247.59375 139.734375 249.320312 L 144.742188 251.664062 C 150.085938 254.164062 156.484375 253.042969 160.652344 248.867188 Z M 163.054688 246.476562 " fill-opacity="1" fill-rule="nonzero"/></g><g clip-path="url(#a470cc6a4e)"><path fill="#ffffff" d="M 187.5 267.378906 L 186.507812 266.121094 C 184.226562 263.222656 181.1875 261.023438 177.722656 259.765625 L 173.070312 258.078125 C 167.753906 256.152344 163.996094 251.402344 163.246094 245.898438 C 158.875 248.953125 153.105469 249.519531 148.171875 247.210938 L 143.6875 245.117188 C 140.347656 243.554688 136.644531 242.957031 132.980469 243.394531 L 131.390625 243.585938 L 131.578125 241.992188 C 132.015625 238.332031 131.421875 234.628906 129.859375 231.285156 L 127.761719 226.800781 C 125.460938 221.882812 126.019531 216.136719 129.042969 211.773438 C 123.554688 211.011719 118.820312 207.257812 116.894531 201.953125 L 115.207031 197.300781 C 113.949219 193.832031 111.753906 190.792969 108.855469 188.515625 L 107.59375 187.523438 L 108.855469 186.53125 C 111.753906 184.253906 113.949219 181.210938 115.207031 177.746094 L 116.894531 173.09375 C 118.824219 167.78125 123.574219 164.023438 129.074219 163.269531 C 126.019531 158.902344 125.453125 153.132812 127.761719 148.199219 L 129.859375 143.714844 C 131.421875 140.371094 132.015625 136.671875 131.578125 133.007812 L 131.390625 131.414062 L 132.980469 131.605469 C 136.644531 132.042969 140.347656 131.445312 143.6875 129.882812 L 148.171875 127.785156 C 153.109375 125.480469 158.875 126.046875 163.246094 129.101562 C 163.996094 123.597656 167.753906 118.847656 173.070312 116.921875 L 177.722656 115.238281 C 181.191406 113.976562 184.226562 111.785156 186.507812 108.882812 L 187.5 107.621094 L 188.492188 108.878906 C 190.773438 111.777344 193.8125 113.976562 197.277344 115.234375 L 201.929688 116.921875 C 207.246094 118.847656 211 123.597656 211.753906 129.097656 C 216.121094 126.042969 221.894531 125.476562 226.828125 127.785156 L 231.3125 129.878906 C 234.652344 131.441406 238.355469 132.039062 242.019531 131.601562 L 243.609375 131.410156 L 243.417969 133.003906 C 242.980469 136.664062 243.578125 140.367188 245.140625 143.710938 L 247.238281 148.195312 C 249.546875 153.132812 248.976562 158.898438 245.925781 163.269531 C 251.425781 164.019531 256.175781 167.777344 258.105469 173.089844 L 259.789062 177.742188 C 261.050781 181.210938 263.242188 184.25 266.144531 186.53125 L 267.402344 187.523438 L 266.144531 188.515625 C 263.246094 190.792969 261.050781 193.835938 259.789062 197.300781 L 258.105469 201.953125 C 256.183594 207.257812 251.445312 211.011719 245.957031 211.773438 C 248.980469 216.136719 249.539062 221.882812 247.238281 226.800781 L 245.140625 231.285156 C 243.578125 234.628906 242.980469 238.328125 243.417969 241.992188 L 243.609375 243.585938 L 242.019531 243.394531 C 238.355469 242.957031 234.652344 243.554688 231.3125 245.117188 L 226.828125 247.210938 C 221.890625 249.519531 216.121094 248.953125 211.753906 245.898438 C 211 251.402344 207.246094 256.152344 201.929688 258.074219 L 197.277344 259.761719 C 193.808594 261.019531 190.773438 263.214844 188.492188 266.117188 Z M 165.628906 240.277344 L 165.628906 243.875 C 165.628906 249.152344 168.964844 253.910156 173.925781 255.710938 L 178.578125 257.398438 C 182.003906 258.640625 185.0625 260.699219 187.496094 263.390625 C 189.929688 260.699219 192.988281 258.640625 196.414062 257.398438 L 201.066406 255.710938 C 206.03125 253.910156 209.367188 249.152344 209.367188 243.875 L 209.367188 240.277344 L 211.519531 242.429688 C 215.253906 246.164062 220.972656 247.167969 225.753906 244.933594 L 230.238281 242.835938 C 233.542969 241.292969 237.15625 240.585938 240.78125 240.765625 C 240.601562 237.140625 241.308594 233.527344 242.851562 230.222656 L 244.949219 225.738281 C 247.1875 220.957031 246.183594 215.234375 242.445312 211.503906 L 239.996094 209.050781 L 243.945312 209.398438 C 249.203125 209.378906 253.933594 206.046875 255.730469 201.101562 L 257.414062 196.449219 C 258.660156 193.023438 260.714844 189.964844 263.410156 187.53125 C 260.714844 185.097656 258.660156 182.039062 257.414062 178.613281 L 255.730469 173.960938 C 253.929688 168.996094 249.171875 165.664062 243.890625 165.664062 L 240.296875 165.664062 L 242.449219 163.507812 C 246.183594 159.777344 247.1875 154.054688 244.953125 149.273438 L 242.855469 144.789062 C 241.3125 141.484375 240.605469 137.871094 240.785156 134.246094 C 237.160156 134.425781 233.546875 133.722656 230.242188 132.175781 L 225.757812 130.078125 C 220.976562 127.839844 215.253906 128.847656 211.523438 132.582031 L 209.367188 134.734375 L 209.367188 131.125 C 209.367188 125.847656 206.03125 121.089844 201.070312 119.289062 L 196.417969 117.601562 C 192.992188 116.359375 189.933594 114.300781 187.5 111.609375 C 185.0625 114.300781 182.007812 116.359375 178.582031 117.601562 L 173.929688 119.289062 C 168.964844 121.085938 165.628906 125.84375 165.628906 131.125 L 165.628906 134.722656 L 163.476562 132.570312 C 159.742188 128.835938 154.023438 127.832031 149.242188 130.066406 L 144.757812 132.164062 C 141.453125 133.707031 137.839844 134.414062 134.214844 134.234375 C 134.394531 137.859375 133.6875 141.472656 132.144531 144.777344 L 130.046875 149.257812 C 127.808594 154.042969 128.8125 159.765625 132.550781 163.496094 L 134.703125 165.648438 L 131.105469 165.648438 C 125.824219 165.648438 121.066406 168.984375 119.265625 173.949219 L 117.582031 178.597656 C 116.335938 182.027344 114.28125 185.082031 111.585938 187.519531 C 114.28125 189.953125 116.335938 193.011719 117.582031 196.4375 L 119.265625 201.089844 C 121.0625 206.035156 125.789062 209.367188 131.050781 209.386719 L 135 209.039062 L 132.550781 211.488281 C 128.816406 215.222656 127.8125 220.945312 130.046875 225.726562 L 132.144531 230.210938 C 133.6875 233.515625 134.394531 237.128906 134.214844 240.753906 C 137.839844 240.570312 141.453125 241.28125 144.757812 242.824219 L 149.242188 244.917969 C 154.023438 247.160156 159.746094 246.152344 163.476562 242.417969 Z M 165.628906 240.277344 " fill-opacity="1" fill-rule="nonzero"/></g><g fill="#ffffff" fill-opacity="1"><g transform="translate(148.543558, 212.999986)"><g><path d="M 2.03125 -66.984375 L 2.03125 -67.65625 L 10.15625 -67.65625 C 12.632812 -67.65625 14.898438 -67.765625 16.953125 -67.984375 C 19.003906 -68.210938 21.078125 -68.441406 23.171875 -68.671875 C 25.265625 -68.898438 27.625 -69.015625 30.25 -69.015625 C 35.070312 -69.015625 39.148438 -68.085938 42.484375 -66.234375 C 45.828125 -64.390625 48.363281 -61.875 50.09375 -58.6875 C 51.832031 -55.507812 52.703125 -51.914062 52.703125 -47.90625 C 52.703125 -45.15625 52.207031 -42.503906 51.21875 -39.953125 C 50.226562 -37.398438 48.75 -35.117188 46.78125 -33.109375 C 44.820312 -31.109375 42.398438 -29.519531 39.515625 -28.34375 C 36.628906 -27.175781 33.3125 -26.59375 29.5625 -26.59375 C 27.582031 -26.59375 25.578125 -26.769531 23.546875 -27.125 C 21.515625 -27.488281 19.664062 -27.914062 18 -28.40625 C 16.332031 -28.90625 15 -29.359375 14 -29.765625 L 14 -18.8125 C 14 -14.382812 14.113281 -10.835938 14.34375 -8.171875 C 14.570312 -5.515625 15.125 -3.597656 16 -2.421875 C 16.875 -1.253906 18.285156 -0.671875 20.234375 -0.671875 L 20.234375 0 L 2.03125 0 L 2.03125 -0.671875 C 3.96875 -0.671875 5.375 -1.253906 6.25 -2.421875 C 7.132812 -3.597656 7.6875 -5.515625 7.90625 -8.171875 C 8.132812 -10.835938 8.25 -14.382812 8.25 -18.8125 L 8.25 -48.84375 C 8.25 -53.3125 8.132812 -56.863281 7.90625 -59.5 C 7.6875 -62.144531 7.132812 -64.050781 6.25 -65.21875 C 5.375 -66.394531 3.96875 -66.984375 2.03125 -66.984375 Z M 14 -30.453125 C 15.71875 -29.722656 17.804688 -29.117188 20.265625 -28.640625 C 22.722656 -28.171875 25.414062 -27.9375 28.34375 -27.9375 C 31.726562 -27.9375 34.59375 -28.578125 36.9375 -29.859375 C 39.28125 -31.148438 41.1875 -32.8125 42.65625 -34.84375 C 44.125 -36.875 45.195312 -39.035156 45.875 -41.328125 C 46.550781 -43.628906 46.890625 -45.796875 46.890625 -47.828125 C 46.890625 -51.929688 46.050781 -55.492188 44.375 -58.515625 C 42.707031 -61.546875 40.335938 -63.894531 37.265625 -65.5625 C 34.203125 -67.226562 30.578125 -68.0625 26.390625 -68.0625 C 23.910156 -68.0625 21.742188 -67.890625 19.890625 -67.546875 C 18.035156 -67.210938 16.070312 -66.660156 14 -65.890625 Z M 14 -30.453125 "/></g></g></g><g fill="#ffffff" fill-opacity="1"><g transform="translate(173.645324, 225.075352)"><g><path d="M 1.90625 0 L 1.90625 -0.640625 C 3.726562 -0.640625 5.050781 -1.191406 5.875 -2.296875 C 6.707031 -3.398438 7.226562 -5.203125 7.4375 -7.703125 C 7.65625 -10.203125 7.765625 -13.535156 7.765625 -17.703125 L 7.765625 -45.953125 C 7.765625 -50.160156 7.65625 -53.503906 7.4375 -55.984375 C 7.226562 -58.460938 6.707031 -60.253906 5.875 -61.359375 C 5.050781 -62.460938 3.726562 -63.015625 1.90625 -63.015625 L 1.90625 -63.65625 L 7 -63.65625 C 10.351562 -63.65625 13.453125 -63.863281 16.296875 -64.28125 C 19.140625 -64.707031 21.960938 -64.921875 24.765625 -64.921875 C 29.679688 -64.921875 33.941406 -64.03125 37.546875 -62.25 C 41.160156 -60.46875 44.164062 -58.023438 46.5625 -54.921875 C 48.957031 -51.828125 50.738281 -48.296875 51.90625 -44.328125 C 53.070312 -40.367188 53.65625 -36.203125 53.65625 -31.828125 C 53.65625 -27.453125 53.070312 -23.28125 51.90625 -19.3125 C 50.738281 -15.351562 48.957031 -11.820312 46.5625 -8.71875 C 44.164062 -5.625 41.160156 -3.1875 37.546875 -1.40625 C 33.941406 0.375 29.679688 1.265625 24.765625 1.265625 C 21.960938 1.265625 19.140625 1.050781 16.296875 0.625 C 13.453125 0.207031 10.351562 0 7 0 Z M 13.171875 -62.25 L 13.171875 -1.40625 C 15.046875 -0.851562 16.914062 -0.414062 18.78125 -0.09375 C 20.644531 0.21875 22.617188 0.375 24.703125 0.375 C 28.648438 0.375 32.085938 -0.46875 35.015625 -2.15625 C 37.941406 -3.851562 40.378906 -6.195312 42.328125 -9.1875 C 44.285156 -12.1875 45.75 -15.625 46.71875 -19.5 C 47.695312 -23.382812 48.1875 -27.492188 48.1875 -31.828125 C 48.1875 -36.160156 47.695312 -40.265625 46.71875 -44.140625 C 45.75 -48.023438 44.285156 -51.460938 42.328125 -54.453125 C 40.378906 -57.453125 37.941406 -59.796875 35.015625 -61.484375 C 32.085938 -63.179688 28.648438 -64.03125 24.703125 -64.03125 C 22.617188 -64.03125 20.644531 -63.878906 18.78125 -63.578125 C 16.914062 -63.285156 15.046875 -62.84375 13.171875 -62.25 Z M 13.171875 -62.25 "/></g></g></g></svg>