<svg width="122" height="36" viewBox="0 0 122 36" fill="none" xmlns="http://www.w3.org/2000/svg">
<path d="M27.7969 18.0105C27.7969 17.3516 28.3335 16.8135 28.9905 16.8135C29.6475 16.8135 30.1841 17.3516 30.1841 18.0105C30.1841 18.6695 29.6475 19.2076 28.9905 19.2076C28.3335 19.2076 27.7969 18.6695 27.7969 18.0105Z" fill="#FDC417"/>
<path d="M8.06691 18.0105C8.06691 18.6695 7.53033 19.2076 6.8733 19.2076C6.21626 19.2076 5.67969 18.6695 5.67969 18.0105C5.67969 17.3516 6.21626 16.8135 6.8733 16.8135C7.53033 16.8135 8.06691 17.3516 8.06691 18.0105Z" fill="#FDC417"/>
<path d="M16.7422 6.91973C16.7422 6.26079 17.2788 5.72266 17.9358 5.72266C18.5928 5.72266 19.1294 6.26079 19.1294 6.91973C19.1294 7.57867 18.5928 8.1168 17.9358 8.1168C17.2788 8.1168 16.7422 7.57867 16.7422 6.91973Z" fill="#FDC417"/>
<path d="M19.1294 29.1043C19.1294 29.7632 18.5928 30.3014 17.9358 30.3014C17.2788 30.3014 16.7422 29.7632 16.7422 29.1043C16.7422 28.4454 17.2788 27.9072 17.9358 27.9072C18.5928 27.9072 19.1294 28.4454 19.1294 29.1043Z" fill="#FDC417"/>
<path d="M19.1294 18.0105C19.1294 18.6695 18.5928 19.2076 17.9358 19.2076C17.2788 19.2076 16.7422 18.6695 16.7422 18.0105C16.7422 17.3516 17.2788 16.8135 17.9358 16.8135C18.5928 16.8135 19.1294 17.3516 19.1294 18.0105Z" fill="#FDC417"/>
<path d="M16.3588 16.4636C16.3588 16.4636 16.4464 16.5295 16.4902 16.5295C16.534 16.5295 16.5668 16.5185 16.5997 16.4855C17.2786 15.9035 18.2423 16.0023 18.2532 16.0023H18.9103H18.9541H22.6444H29.0614C30.1674 16.0023 31.0654 16.9028 31.0654 18.0121C31.0654 19.1213 30.1674 20.0218 29.0614 20.0218C27.9554 20.0218 27.0575 19.1213 27.0575 18.0121C27.0575 17.6057 27.1779 17.2213 27.3969 16.8919C27.4517 16.815 27.4298 16.7052 27.3531 16.6503C27.2765 16.5953 27.167 16.6173 27.1122 16.6942C26.8494 17.0895 26.707 17.5398 26.707 18.0121C26.707 19.319 27.7692 20.3733 29.0614 20.3733C30.3536 20.3733 31.4158 19.308 31.4158 18.0121C31.4158 16.7162 30.3536 15.6509 29.0614 15.6509H22.7101C22.7101 15.6509 22.6334 15.6399 22.6006 15.6509H18.2751C18.1547 15.6399 17.1363 15.563 16.3697 16.2219C16.2931 16.2878 16.2821 16.3977 16.3478 16.4745" fill="#B01C1A"/>
<path d="M16.5223 15.1113C16.5223 15.1113 16.577 15.1113 16.6099 15.0893C17.2341 14.7379 18.5591 14.8038 18.581 14.8038H18.7014H19.3694H29.0826C30.5609 14.8367 31.8092 15.8691 32.1268 17.3187C32.313 18.1534 32.1597 19.01 31.6997 19.7349C31.2398 20.4597 30.528 20.9539 29.6958 21.1406C28.7212 21.3602 27.7247 21.1076 26.9472 20.4707C26.8048 20.3499 26.6625 20.2071 26.542 20.0643C26.2135 19.669 25.9836 19.2077 25.8741 18.7025C25.7426 18.0985 25.7864 17.4725 25.9945 16.9014V16.8685C26.0383 16.7806 25.9945 16.6708 25.9069 16.6378C25.8193 16.6049 25.7098 16.6378 25.6769 16.7367V16.7696C25.4251 17.4066 25.3813 18.1095 25.5236 18.7794C25.6441 19.3395 25.896 19.8447 26.2683 20.2949C26.3997 20.4597 26.553 20.6134 26.7172 20.7452C27.3633 21.2943 28.1627 21.5799 28.984 21.5799C29.2468 21.5799 29.4987 21.5469 29.7615 21.492C30.6923 21.2834 31.4807 20.7342 31.9845 19.9325C32.4991 19.1308 32.6634 18.1754 32.4553 17.2419C32.1049 15.6384 30.7142 14.4853 29.0716 14.4524H18.57C18.4605 14.4524 17.1246 14.3865 16.4128 14.7818C16.3252 14.8258 16.2923 14.9356 16.3471 15.0234C16.3799 15.0784 16.4347 15.1113 16.5004 15.1113" fill="#B01C1A"/>
<path d="M29.97 30.4759C29.9372 30.7505 29.8934 31.036 29.8496 31.3215C29.8277 31.4204 29.8934 31.5082 29.9919 31.5302C29.9919 31.5302 30.0138 31.5302 30.0248 31.5302C30.1124 31.5302 30.1781 31.4753 30.2 31.3874C30.2547 31.0689 30.3095 30.7505 30.3314 30.443C30.638 30.41 30.9446 30.3661 31.2622 30.3112C31.3608 30.2892 31.4265 30.2013 31.4046 30.1025C31.3827 30.0037 31.295 29.9378 31.1965 29.9597C30.8351 30.0256 30.4847 30.0805 30.1452 30.1025C29.7729 30.1355 29.4006 30.1574 29.0283 30.1574H29.0064H28.9954C28.656 30.1574 28.3165 30.1464 27.9332 30.1135C27.5719 30.0805 27.2105 30.0366 26.8382 29.9707C26.4768 29.9048 26.1045 29.817 25.7541 29.7291C25.3818 29.6303 25.0204 29.5095 24.6809 29.3777C24.3086 29.2349 23.9472 29.0702 23.5968 28.8945C23.2683 28.7297 22.9398 28.543 22.6332 28.3563V27.4448C22.8303 27.5766 23.0383 27.7084 23.2464 27.8401C23.6625 28.0818 24.0896 28.3014 24.5276 28.4881C24.9109 28.6528 25.3051 28.7956 25.6993 28.9164C26.0716 29.0262 26.4549 29.1251 26.8382 29.202C27.2105 29.2788 27.5938 29.3228 27.977 29.3667C28.3384 29.3996 28.6779 29.4106 29.0064 29.4106C29.0283 29.4106 29.0502 29.4106 29.0721 29.4106C29.083 29.4106 29.1049 29.4106 29.1159 29.4106C29.4992 29.4106 29.8824 29.3887 30.2547 29.3447C31.0103 29.2679 31.755 29.1031 32.4777 28.8725C32.5653 28.8395 32.6201 28.7407 32.5872 28.6528C32.5544 28.565 32.4558 28.5101 32.3682 28.543C31.6674 28.7627 30.9446 28.9164 30.2219 29.0043C29.8605 29.0482 29.4882 29.0702 29.1159 29.0702C29.094 29.0702 29.083 29.0702 29.0611 29.0702C29.0392 29.0702 29.0283 29.0702 29.0064 29.0702C28.6888 29.0702 28.3603 29.0592 28.0099 29.0262C27.6376 28.9933 27.2652 28.9384 26.9039 28.8725C26.5316 28.7956 26.1592 28.7078 25.7979 28.5979C25.4146 28.4771 25.0313 28.3344 24.659 28.1806C24.2429 28.0049 23.8268 27.7852 23.4216 27.5546C23.1478 27.4009 22.885 27.2251 22.6332 27.0384V26.072C23.1259 26.4674 23.6406 26.8078 24.1881 27.1043C24.6262 27.335 25.0751 27.5436 25.5351 27.7084C25.9183 27.8511 26.3345 27.9719 26.7506 28.0598C27.1448 28.1477 27.539 28.2135 27.9223 28.2575C28.2836 28.2904 28.645 28.3124 29.0064 28.3124C29.0173 28.3124 29.0283 28.3124 29.0502 28.3124C29.0502 28.3124 29.0611 28.3124 29.0721 28.3124C29.4444 28.3124 29.8277 28.2904 30.2109 28.2465C31.3827 28.1037 32.5215 27.7743 33.5728 27.2471C33.6604 27.2032 33.6932 27.0934 33.6494 27.0055C33.6056 26.9176 33.4961 26.8847 33.4085 26.9286C32.3901 27.4338 31.295 27.7633 30.1671 27.8951C29.7948 27.939 29.4335 27.961 29.0721 27.961C29.0721 27.961 29.0502 27.961 29.0392 27.961H29.0173C28.6779 27.961 28.3165 27.939 27.9661 27.906C27.5938 27.8621 27.2214 27.8072 26.8382 27.7193C26.433 27.6315 26.0388 27.5107 25.6665 27.3789C25.2284 27.2142 24.7904 27.0275 24.3743 26.7968C23.7611 26.4674 23.1916 26.072 22.6551 25.6217V24.5894C23.3778 25.2923 24.1991 25.8743 25.108 26.3136C25.546 26.5223 26.0169 26.698 26.4987 26.8408C26.9039 26.9616 27.331 27.0494 27.7471 27.1043C28.1413 27.1592 28.5355 27.1922 28.9297 27.1922C28.9407 27.1922 28.9516 27.1922 28.9735 27.1922C28.9954 27.1922 29.0173 27.1922 29.0283 27.1922C29.3678 27.1922 29.7182 27.1702 30.0795 27.1263C31.7112 26.9396 33.2661 26.3026 34.5802 25.3032C34.6569 25.2483 34.6678 25.1275 34.6131 25.0506C34.5583 24.9738 34.4379 24.9628 34.3612 25.0177C33.1019 25.9841 31.6126 26.5882 30.0357 26.7749C29.6853 26.8188 29.3459 26.8298 29.0283 26.8298C29.0173 26.8298 28.9954 26.8298 28.9845 26.8298C28.9735 26.8298 28.9516 26.8298 28.9407 26.8298C28.5574 26.8298 28.1741 26.7968 27.8018 26.7419C27.3967 26.687 27.0024 26.5991 26.6082 26.4893C26.1483 26.3575 25.6993 26.1818 25.2722 25.9841C24.2867 25.5119 23.4107 24.8749 22.666 24.0732V22.8871C23.5202 24.0183 24.659 24.9079 25.9731 25.457C26.433 25.6437 26.9148 25.7974 27.3967 25.8963C27.8128 25.9841 28.2289 26.039 28.656 26.061C28.7983 26.061 28.9188 26.061 29.0392 26.061C29.302 26.061 29.5649 26.05 29.8386 26.0171C32.0616 25.7974 34.1093 24.6333 35.4563 22.8212C35.511 22.7444 35.5001 22.6345 35.4234 22.5686C35.3467 22.5137 35.2372 22.5247 35.1715 22.6016C33.8903 24.3258 31.9302 25.446 29.8058 25.6547C29.5539 25.6766 29.2911 25.6876 29.0392 25.6876C28.9297 25.6876 28.8093 25.6876 28.6779 25.6876C28.2727 25.6657 27.8675 25.6217 27.4733 25.5339C27.0134 25.435 26.5535 25.2923 26.1154 25.1165C24.7028 24.5345 23.5202 23.5461 22.666 22.2611V20.6248C23.4107 22.4478 24.9218 23.8975 26.7834 24.5455C27.2433 24.7102 27.7252 24.82 28.2179 24.8749C28.5027 24.9079 28.7764 24.9298 29.0392 24.9298C29.1706 24.9298 29.313 24.9298 29.4773 24.9189C33.0909 24.6882 35.9162 21.6681 35.9162 18.0329C35.9162 14.3978 33.2114 11.5095 29.7072 11.169C29.7948 10.9274 29.8715 10.6748 29.9481 10.4222C31.9959 10.6638 33.8794 11.7511 35.1387 13.4094C35.1715 13.4533 35.2263 13.4753 35.281 13.4753C35.3139 13.4753 35.3577 13.4643 35.3906 13.4423C35.4672 13.3874 35.4782 13.2776 35.4234 13.1898C34.1203 11.4655 32.1711 10.3344 30.0467 10.0708C30.1124 9.82917 30.1671 9.57657 30.2109 9.32398C31.7002 9.52166 33.1128 10.1037 34.3174 11.0153C34.3503 11.0372 34.3831 11.0482 34.4269 11.0482C34.4817 11.0482 34.5364 11.0262 34.5693 10.9823C34.624 10.9054 34.6131 10.7956 34.5364 10.7297C33.288 9.78524 31.8207 9.18121 30.2766 8.97254C30.3204 8.71995 30.3533 8.46736 30.3752 8.21477C31.4265 8.35754 32.4339 8.66504 33.3757 9.1263C33.3976 9.13728 33.4304 9.14826 33.4523 9.14826C33.518 9.14826 33.5837 9.11532 33.6056 9.04942C33.6494 8.96156 33.6056 8.85174 33.529 8.80781C32.5434 8.32459 31.4922 8.0061 30.4081 7.86333C30.43 7.59976 30.4409 7.33618 30.4409 7.09457C31.087 7.17145 31.7112 7.31422 32.3244 7.50092C32.3463 7.50092 32.3573 7.50092 32.3792 7.50092C32.4558 7.50092 32.5215 7.45699 32.5434 7.38011C32.5763 7.29225 32.5215 7.19341 32.423 7.16046C31.7878 6.96278 31.1198 6.82001 30.4409 6.73215C30.4409 6.47956 30.43 6.21599 30.4081 5.95241C30.649 5.98536 30.9008 6.0183 31.1636 6.06223C31.1636 6.06223 31.1855 6.06223 31.1965 6.06223C31.2841 6.06223 31.3498 6.00732 31.3717 5.91946C31.3936 5.82062 31.3279 5.73276 31.2293 5.7108C30.9337 5.65589 30.6599 5.62294 30.3862 5.58999C30.3533 5.31544 30.3204 5.04088 30.2657 4.74436C30.2438 4.64552 30.1562 4.57962 30.0576 4.60159C29.9591 4.62355 29.8934 4.71141 29.9153 4.81025C29.97 5.1507 30.0138 5.45821 30.0467 5.76571C30.0795 6.13911 30.1014 6.51251 30.1014 6.88591V6.90787C30.1014 7.25931 30.0905 7.61074 30.0467 7.98414C30.0138 8.34655 29.97 8.70897 29.9043 9.08237C29.8386 9.44479 29.751 9.81818 29.6634 10.1696C29.5649 10.543 29.4444 10.9054 29.313 11.2459C29.1706 11.6193 29.0173 11.9817 28.8312 12.3331C28.6669 12.6626 28.4808 12.9921 28.2946 13.2996H27.3857C27.5171 13.1019 27.6485 12.8932 27.7799 12.6846C28.0208 12.2672 28.2398 11.8389 28.426 11.3996C28.5903 11.0153 28.7326 10.6199 28.8531 10.2245C28.9626 9.85113 29.0611 9.46675 29.1378 9.08237C29.2144 8.70897 29.2582 8.32459 29.302 7.94021C29.3349 7.57779 29.3459 7.23734 29.3459 6.90787C29.3459 6.88591 29.3459 6.86394 29.3459 6.84198C29.3459 6.831 29.3459 6.80903 29.3459 6.79805C29.3459 6.41367 29.3239 6.02929 29.2801 5.65589C29.2035 4.93106 29.0502 4.20622 28.8421 3.52532C28.8093 3.43746 28.7107 3.38255 28.6231 3.40452C28.5246 3.43746 28.4808 3.5363 28.5027 3.62416C28.7107 4.29408 28.8531 4.98597 28.9297 5.68884C28.9735 6.05125 28.9954 6.42465 28.9954 6.79805C28.9954 6.82001 28.9954 6.83099 28.9954 6.85296C28.9954 6.87492 28.9954 6.88591 28.9954 6.90787C28.9954 7.22636 28.9845 7.55583 28.9516 7.90726C28.9188 8.28066 28.864 8.65406 28.7983 9.01647C28.7217 9.38987 28.6341 9.77425 28.5246 10.1257C28.4041 10.5101 28.2617 10.8944 28.1084 11.2678C27.9332 11.6852 27.7142 12.1025 27.4843 12.5088C27.331 12.7834 27.1557 13.047 26.9696 13.2996H26.0059C26.4002 12.8054 26.7396 12.2892 27.0353 11.7401C27.2652 11.3008 27.4733 10.8505 27.6376 10.3893C27.7799 10.0049 27.9004 9.58755 27.988 9.17023C28.0756 8.77486 28.1413 8.3795 28.1851 7.99512C28.2289 7.6327 28.2398 7.27029 28.2398 6.90787C28.2398 6.89689 28.2398 6.88591 28.2398 6.86394C28.2398 6.86394 28.2398 6.85296 28.2398 6.84198C28.2398 6.46858 28.2179 6.0842 28.1741 5.69982C28.0427 4.55766 27.7252 3.44844 27.2214 2.41611C27.1776 2.32825 27.0791 2.2953 26.9915 2.33923C26.9039 2.38316 26.871 2.49298 26.9148 2.58084C27.3967 3.56925 27.7033 4.63453 27.8347 5.74375C27.8785 6.11715 27.9004 6.47956 27.9004 6.84198C27.9004 6.84198 27.9004 6.86394 27.9004 6.87492V6.89689C27.9004 7.23734 27.8785 7.59976 27.8456 7.95119C27.8018 8.32459 27.7471 8.69799 27.6595 9.08237C27.5719 9.48871 27.4514 9.88408 27.32 10.2575C27.1557 10.6968 26.9696 11.1361 26.7396 11.5534C26.4111 12.1684 26.0169 12.7395 25.5679 13.2776H24.5386C25.2394 12.5528 25.8198 11.7291 26.2578 10.8176C26.4659 10.3783 26.6411 9.90604 26.7834 9.42282C26.9039 9.01647 26.9915 8.58816 27.0462 8.17084C27.101 7.77547 27.1338 7.38011 27.1338 6.98475C27.1338 6.97377 27.1338 6.96278 27.1338 6.94082C27.1338 6.91885 27.1338 6.89689 27.1338 6.88591C27.1338 6.54545 27.1119 6.19402 27.0681 5.8316C26.882 4.22819 26.2797 2.70165 25.3161 1.41672C25.2613 1.33984 25.1518 1.31788 25.0642 1.38377C24.9875 1.43868 24.9656 1.54851 25.0313 1.63636C25.9512 2.87736 26.5425 4.34899 26.7177 5.88652C26.7615 6.22697 26.7725 6.56742 26.7725 6.89689C26.7725 6.90787 26.7725 6.92984 26.7725 6.94082C26.7725 6.9518 26.7725 6.97377 26.7725 6.98475C26.7725 7.36913 26.7396 7.75351 26.6849 8.12691C26.6301 8.53325 26.5425 8.92862 26.433 9.32398C26.3016 9.78524 26.1264 10.2355 25.9293 10.6638C25.4584 11.6522 24.8233 12.5308 24.0239 13.2776H22.8412C23.9691 12.421 24.8561 11.2788 25.4037 9.96095C25.5898 9.4997 25.7431 9.01647 25.8417 8.53325C25.9293 8.11592 25.984 7.6986 26.0059 7.27029C26.0059 7.12752 26.0059 7.00671 26.0059 6.88591C26.0059 6.62233 25.995 6.35876 25.9621 6.0842C25.7431 3.89872 24.6262 1.87797 22.885 0.527151C22.8084 0.472239 22.6989 0.483222 22.6332 0.560098C22.5784 0.636974 22.5894 0.746797 22.666 0.812691C24.3305 2.09762 25.4037 4.03051 25.6117 6.11715C25.6336 6.36974 25.6446 6.63331 25.6446 6.88591C25.6446 6.99573 25.6446 7.11654 25.6446 7.24832C25.6227 7.65467 25.5789 8.06101 25.4913 8.45638C25.3927 8.91763 25.2503 9.37889 25.0751 9.81818C24.4948 11.2349 23.5092 12.421 22.228 13.2776H20.5964C22.4142 12.5308 23.8596 11.0153 24.5057 9.14826C24.67 8.68701 24.7795 8.20378 24.8342 7.70958C24.8671 7.42404 24.889 7.14948 24.889 6.88591C24.889 6.75412 24.889 6.61135 24.878 6.4576C24.6481 2.83344 21.6367 0 18.012 0C14.3874 0 11.5074 2.71263 11.168 6.22697C10.927 6.13911 10.6752 6.06223 10.4233 5.98536C10.6642 3.95363 11.7264 2.07566 13.3471 0.823673C13.4238 0.768762 13.4347 0.647956 13.38 0.57108C13.3252 0.494204 13.2048 0.483222 13.1281 0.538133C11.4417 1.84503 10.3357 3.77791 10.0729 5.88652C9.83199 5.82062 9.58012 5.76571 9.32826 5.72178C9.52537 4.23917 10.0948 2.83344 10.9927 1.63636C11.0475 1.55949 11.0365 1.44966 10.9599 1.38377C10.8832 1.32886 10.7737 1.33984 10.708 1.41672C9.78818 2.65772 9.1859 4.11837 8.97784 5.65589C8.72598 5.61196 8.47412 5.57901 8.22226 5.55705C8.36461 4.51373 8.66028 3.51434 9.1202 2.56986C9.164 2.482 9.1202 2.37218 9.04355 2.32825C8.95594 2.28432 8.84644 2.32825 8.81359 2.40513C8.34271 3.38255 8.02515 4.42587 7.88279 5.51312C7.60903 5.49115 7.35716 5.48017 7.11625 5.48017C7.1929 4.8432 7.33526 4.21721 7.52142 3.61318C7.55427 3.52532 7.49952 3.42648 7.40097 3.39353C7.31336 3.36059 7.21481 3.4155 7.18195 3.51434C6.98484 4.15131 6.84249 4.82123 6.76583 5.49115C6.51397 5.49115 6.25116 5.50214 5.98834 5.5241C6.01025 5.28249 6.05405 5.04088 6.09785 4.7773C6.11975 4.67846 6.05405 4.5906 5.95549 4.56864C5.85694 4.54668 5.76933 4.61257 5.74743 4.71141C5.69268 5.00793 5.65983 5.28249 5.62698 5.55705C5.35321 5.58999 5.07945 5.62294 4.78379 5.67785C4.68523 5.69982 4.61953 5.78768 4.64143 5.88652C4.65238 5.97438 4.72903 6.02929 4.81664 6.02929C4.81664 6.02929 4.83854 6.02929 4.84949 6.02929C5.18896 5.97437 5.49557 5.93045 5.81314 5.8975C6.18545 5.86455 6.55777 5.84259 6.93009 5.84259H6.95199H6.96294C7.30241 5.84259 7.64188 5.85357 8.02515 5.88652C8.38651 5.91946 8.74788 5.96339 9.1202 6.02929C9.48157 6.09518 9.85389 6.18304 10.2043 6.2709C10.5766 6.36974 10.938 6.49054 11.2775 6.62233C11.6498 6.7651 12.0111 6.92984 12.3616 7.10555C12.6901 7.27029 13.0186 7.45699 13.3252 7.64369V8.55522C13.1281 8.42343 12.92 8.29164 12.712 8.15985C12.2959 7.91824 11.8688 7.6986 11.4308 7.5119C11.0475 7.34716 10.6533 7.20439 10.2591 7.08359C9.88674 6.97376 9.50347 6.87492 9.1202 6.79805C8.74788 6.72117 8.36461 6.67724 7.98134 6.63331C7.61998 6.60037 7.28051 6.58938 6.95199 6.58938C6.93009 6.58938 6.90819 6.58938 6.88629 6.58938C6.87534 6.58938 6.85344 6.58938 6.84249 6.58938C6.45922 6.58938 6.07595 6.61135 5.70363 6.65528C4.96994 6.73215 4.25816 6.88591 3.56828 7.10555C3.48067 7.1385 3.42592 7.23734 3.44782 7.3252C3.46972 7.40208 3.54637 7.446 3.61208 7.446C3.63398 7.446 3.64493 7.446 3.66683 7.446C4.33481 7.23734 5.03565 7.09457 5.73648 7.01769C6.09785 6.97376 6.47017 6.9518 6.84249 6.9518C6.86439 6.9518 6.87534 6.9518 6.89724 6.9518C6.91914 6.9518 6.93009 6.9518 6.95199 6.9518C7.26956 6.9518 7.59807 6.96278 7.94849 6.99573C8.32081 7.02868 8.69313 7.08359 9.0545 7.14948C9.42682 7.22636 9.81008 7.31422 10.1605 7.42404C10.5438 7.54484 10.927 7.67663 11.2994 7.84137C11.7155 8.01708 12.1316 8.23673 12.5368 8.46736C12.8105 8.63209 13.0733 8.79683 13.3252 8.98353V9.94997C12.8324 9.55461 12.3178 9.21416 11.7702 8.91763C11.3322 8.68701 10.8832 8.47834 10.4233 8.31361C10.04 8.17084 9.62393 8.05003 9.2078 7.96217C8.81359 7.87431 8.41937 7.80842 8.0361 7.76449C7.67473 7.72056 7.31336 7.70958 6.95199 7.70958C6.94104 7.70958 6.93009 7.70958 6.90819 7.70958C6.90819 7.70958 6.89724 7.70958 6.88629 7.70958C6.51397 7.70958 6.1307 7.73154 5.74743 7.77547C4.59763 7.90726 3.49162 8.23673 2.45132 8.74192C2.36372 8.78585 2.33086 8.89567 2.37467 8.98353C2.40752 9.04942 2.47322 9.08237 2.52797 9.08237C2.54987 9.08237 2.58273 9.08237 2.60463 9.0604C3.60113 8.5662 4.67428 8.25869 5.78028 8.12691C6.1526 8.08298 6.51397 8.06101 6.87534 8.06101C6.87534 8.06101 6.89724 8.06101 6.90819 8.06101H6.93009C7.26956 8.06101 7.63093 8.08298 7.98134 8.11592C8.35366 8.15985 8.72598 8.21477 9.10925 8.30262C9.51442 8.39048 9.90864 8.51129 10.281 8.64308C10.719 8.80781 11.157 8.99451 11.5731 9.22514C12.1864 9.55461 12.7558 9.94997 13.2924 10.4002V11.4326C12.5696 10.7187 11.7483 10.1477 10.8394 9.70836C10.4014 9.4997 9.93054 9.32398 9.44872 9.18121C9.04355 9.0604 8.61648 8.97255 8.20035 8.91763C7.80613 8.86272 7.41192 8.82978 7.0177 8.82978C7.00675 8.82978 6.99579 8.82978 6.97389 8.82978C6.95199 8.82978 6.93009 8.82978 6.91914 8.82978C6.57967 8.82978 6.22926 8.85174 5.86789 8.89567C4.25816 9.08237 2.72508 9.69738 1.42197 10.6748C1.34532 10.7297 1.32341 10.8395 1.38912 10.9274C1.42197 10.9713 1.47672 10.9933 1.53147 10.9933C1.56433 10.9933 1.60813 10.9823 1.64098 10.9603C2.88934 10.0159 4.35671 9.42282 5.91169 9.2471C6.26211 9.20317 6.60158 9.19219 6.91914 9.19219C6.93009 9.19219 6.95199 9.19219 6.96294 9.19219C6.97389 9.19219 6.9958 9.19219 7.00675 9.19219C7.39001 9.19219 7.77328 9.22514 8.1456 9.28005C8.55077 9.33496 8.94499 9.42282 9.33921 9.53264C9.79913 9.66443 10.2481 9.84015 10.6752 10.0378C11.6607 10.5101 12.5368 11.147 13.2814 11.9488V13.1348C12.4273 12.0037 11.2884 11.1141 9.97434 10.565C9.51442 10.3783 9.0326 10.2245 8.55077 10.1257C8.13465 10.0378 7.71853 9.98292 7.29146 9.96095C7.1491 9.96095 7.02865 9.96095 6.90819 9.96095C6.64538 9.96095 6.38256 9.97194 6.1088 10.0049C3.90774 10.2245 1.87094 11.3667 0.524024 13.1458C0.469272 13.2227 0.480222 13.3325 0.556876 13.3984C0.589728 13.4204 0.622579 13.4314 0.666382 13.4314C0.721134 13.4314 0.775887 13.4094 0.808739 13.3655C2.08995 11.6632 4.03915 10.565 6.14165 10.3563C6.39352 10.3344 6.65633 10.3234 6.90819 10.3234C7.0177 10.3234 7.13815 10.3234 7.26956 10.3234C7.67473 10.3453 8.0799 10.3893 8.47412 10.4771C8.93404 10.576 9.39396 10.7187 9.83199 10.8944C11.2446 11.4765 12.4273 12.4649 13.2814 13.7498V15.3862C12.5368 13.5631 11.0256 12.1135 9.164 11.4655C8.70408 11.3008 8.22226 11.191 7.72948 11.1361C7.44477 11.1031 7.171 11.0811 6.90819 11.0811C6.77678 11.0811 6.63443 11.0811 6.47017 11.0921C2.85649 11.3228 0.03125 14.3429 0.03125 17.978C0.03125 21.6132 2.73603 24.5015 6.24021 24.842C6.1526 25.0836 6.07595 25.3362 5.9993 25.5888C3.92964 25.3472 2.0352 24.238 0.775887 22.5577C0.721134 22.4808 0.611629 22.4588 0.524024 22.5247C0.447371 22.5796 0.42547 22.6894 0.491173 22.7773C1.79429 24.5235 3.75443 25.6766 5.90074 25.9402C5.83504 26.1818 5.78028 26.4344 5.73648 26.687C4.22531 26.4893 2.79079 25.8853 1.57528 24.9518C1.49862 24.8969 1.38912 24.9079 1.32341 24.9847C1.26866 25.0616 1.27961 25.1714 1.35627 25.2373C2.61558 26.2038 4.10485 26.8298 5.67078 27.0384C5.62698 27.291 5.59413 27.5436 5.57222 27.7962C4.49907 27.6535 3.46972 27.335 2.50607 26.8517C2.41847 26.8078 2.30896 26.8517 2.26516 26.9286C2.22136 27.0165 2.26516 27.1263 2.34181 27.1702C3.34926 27.6754 4.42242 28.0049 5.53937 28.1477C5.51747 28.4112 5.50652 28.6748 5.50652 28.9164C4.83854 28.8286 4.18151 28.6858 3.54637 28.4881C3.45877 28.4552 3.34926 28.5101 3.32736 28.5979C3.29451 28.6858 3.34926 28.7956 3.43687 28.8176C4.10485 29.0372 4.80569 29.18 5.49557 29.2678C5.49557 29.5204 5.50652 29.784 5.52842 30.0476C5.25466 30.0146 4.9809 29.9707 4.69618 29.9268C4.59763 29.9048 4.51002 29.9707 4.48812 30.0696C4.46622 30.1684 4.53192 30.2563 4.63048 30.2782C4.94804 30.3331 5.26561 30.3771 5.56127 30.41C5.59413 30.7175 5.63793 31.036 5.69268 31.3545C5.70363 31.4423 5.78028 31.4973 5.86789 31.4973C5.86789 31.4973 5.88979 31.4973 5.90074 31.4973C5.9993 31.4753 6.065 31.3874 6.0431 31.2886C5.97739 30.9262 5.92264 30.5747 5.90074 30.2343C5.86789 29.8609 5.84599 29.4875 5.84599 29.1141V29.0921C5.84599 28.7407 5.85694 28.3893 5.90074 28.0159C5.93359 27.6535 5.97739 27.291 6.0431 26.9176C6.1088 26.5552 6.1964 26.1818 6.28401 25.8304C6.38256 25.457 6.50302 25.0946 6.63443 24.7541C6.77678 24.3807 6.94104 24.0183 7.11625 23.6669C7.28051 23.3374 7.46667 23.0079 7.65283 22.7004H8.56172C8.43032 22.8981 8.29891 23.1068 8.1675 23.3154C7.92659 23.7328 7.70758 24.1611 7.52142 24.6004C7.35716 24.9847 7.21481 25.3801 7.09435 25.7755C6.98484 26.1489 6.88629 26.5333 6.80964 26.9176C6.73298 27.291 6.68918 27.6754 6.64538 28.0598C6.61253 28.4222 6.60158 28.7627 6.60158 29.0921C6.60158 29.1141 6.60158 29.1361 6.60158 29.158C6.60158 29.169 6.60158 29.191 6.60158 29.202C6.60158 29.5863 6.62348 29.9707 6.66728 30.3441C6.75488 31.1019 6.90819 31.8597 7.13815 32.5845C7.16005 32.6614 7.23671 32.7053 7.30241 32.7053C7.32431 32.7053 7.33526 32.7053 7.35716 32.7053C7.44477 32.6724 7.49952 32.5735 7.46667 32.4857C7.23671 31.7828 7.0834 31.047 7.00675 30.3112C6.96294 29.9488 6.94104 29.5754 6.94104 29.202C6.94104 29.202 6.94104 29.169 6.94104 29.147C6.94104 29.1251 6.94104 29.1141 6.94104 29.0921C6.94104 28.7736 6.95199 28.4442 6.98484 28.0927C7.0177 27.7193 7.07245 27.3459 7.13815 26.9835C7.21481 26.6101 7.30241 26.2258 7.41192 25.8743C7.53237 25.4899 7.67473 25.1056 7.82804 24.7322C8.00324 24.3148 8.22226 23.8975 8.45222 23.4912C8.61648 23.2166 8.78073 22.953 8.96689 22.7004H9.93054C9.53632 23.1946 9.19685 23.7108 8.90119 24.2599C8.67123 24.6992 8.47412 25.1495 8.29891 25.6107C8.15655 25.9951 8.0361 26.4124 7.94849 26.8298C7.86089 27.2251 7.79518 27.6205 7.75138 28.0049C7.70758 28.3673 7.69663 28.7297 7.69663 29.0921C7.69663 29.1031 7.69663 29.1141 7.69663 29.1361C7.69663 29.1361 7.69663 29.147 7.69663 29.158C7.69663 29.5314 7.71853 29.9158 7.76233 30.3002C7.90469 31.4863 8.24416 32.6284 8.78073 33.6937C8.81359 33.7596 8.86834 33.7926 8.93404 33.7926C8.95594 33.7926 8.98879 33.7926 9.01069 33.7706C9.0983 33.7267 9.13115 33.6168 9.08735 33.529C8.57267 32.4966 8.24416 31.3984 8.11275 30.2453C8.06895 29.8719 8.04705 29.5095 8.04705 29.147C8.04705 29.1361 8.04705 29.1251 8.04705 29.1141V29.0921C8.04705 28.7517 8.06895 28.3893 8.1018 28.0378C8.1456 27.6644 8.20035 27.291 8.28796 26.9067C8.37556 26.5003 8.49602 26.1049 8.62743 25.7315C8.79168 25.2923 8.97784 24.853 9.2078 24.4247C9.53632 23.8096 9.93054 23.2386 10.3795 22.7004H11.4089C10.708 23.4253 10.1277 24.2489 9.68963 25.1605C9.48157 25.5998 9.30636 26.072 9.164 26.5552C9.04355 26.9616 8.95594 27.3899 8.90119 27.8072C8.84644 28.2026 8.81359 28.5979 8.81359 28.9933C8.81359 29.0043 8.81359 29.0153 8.81359 29.0372C8.81359 29.0592 8.81359 29.0812 8.81359 29.0921C8.81359 29.4326 8.83549 29.784 8.87929 30.1464C9.06545 31.8048 9.71153 33.3752 10.7299 34.6931C10.7628 34.737 10.8175 34.759 10.8723 34.759C10.9051 34.759 10.9489 34.748 10.9818 34.7261C11.0584 34.6711 11.0694 34.5503 11.0146 34.4735C10.0291 33.2105 9.41586 31.6949 9.24066 30.1025C9.19685 29.7511 9.1859 29.4216 9.1859 29.0921C9.1859 29.0812 9.1859 29.0592 9.1859 29.0482C9.1859 29.0372 9.1859 29.0153 9.1859 29.0043C9.1859 28.6199 9.21876 28.2355 9.27351 27.8621C9.32826 27.4558 9.41586 27.0604 9.52537 26.665C9.65678 26.2038 9.83199 25.7535 10.0291 25.3252C10.5 24.3368 11.1351 23.4582 11.9345 22.7114H13.1171C11.9892 23.568 11.1022 24.7102 10.5547 26.0281C10.3686 26.4893 10.2153 26.9725 10.1167 27.4558C10.0291 27.8731 9.97434 28.2904 9.95244 28.7187C9.95244 28.8615 9.95244 28.9823 9.95244 29.1031C9.95244 29.3667 9.96339 29.6303 9.99624 29.9048C10.2153 32.1672 11.4089 34.2428 13.2486 35.5827C13.2814 35.6046 13.3143 35.6156 13.3471 35.6156C13.4019 35.6156 13.4566 35.5937 13.4895 35.5387C13.5442 35.4619 13.5333 35.352 13.4457 35.2971C11.6826 34.0122 10.5547 32.0354 10.3357 29.8719C10.3138 29.6193 10.3029 29.3557 10.3029 29.1031C10.3029 28.9933 10.3029 28.8725 10.3029 28.7407C10.3248 28.3344 10.3686 27.928 10.4562 27.5326C10.5547 27.0714 10.6971 26.6101 10.8723 26.1708C11.4527 24.7541 12.4382 23.568 13.7194 22.7114H15.3511C13.5333 23.4582 12.0878 24.9738 11.4417 26.8408C11.2775 27.302 11.168 27.7852 11.1132 28.2794C11.0803 28.565 11.0584 28.8395 11.0584 29.1031C11.0584 29.2349 11.0584 29.3777 11.0694 29.5424C11.2994 33.1666 14.3108 36 17.9354 36C21.56 36 24.44 33.2874 24.7795 29.773C25.0204 29.8609 25.2722 29.9378 25.5241 30.0146C25.2722 32.1232 24.1553 34.0452 22.4361 35.2971C22.3594 35.352 22.3375 35.4619 22.3923 35.5387C22.4251 35.5827 22.4799 35.6156 22.5346 35.6156C22.5675 35.6156 22.6113 35.6156 22.6332 35.5827C24.4181 34.2758 25.5898 32.288 25.8636 30.1025C26.1045 30.1684 26.3564 30.2233 26.6082 30.2672C26.4002 31.7938 25.7979 33.2434 24.8561 34.4735C24.8014 34.5503 24.8123 34.6602 24.889 34.7261C24.9218 34.748 24.9547 34.759 24.9985 34.759C25.0532 34.759 25.108 34.737 25.1408 34.6931C26.1264 33.4192 26.7506 31.9146 26.9696 30.3331C27.2214 30.3771 27.4733 30.41 27.7252 30.432C27.5828 31.5192 27.2543 32.5516 26.7725 33.529C26.7287 33.6168 26.7725 33.7267 26.8491 33.7706C26.871 33.7816 26.9039 33.7926 26.9258 33.7926C26.9915 33.7926 27.0572 33.7596 27.0791 33.6937C27.5828 32.6833 27.9223 31.5961 28.0756 30.4649C28.3494 30.4869 28.6012 30.4979 28.8421 30.4979C28.7545 31.1678 28.6122 31.8267 28.4041 32.4747C28.3713 32.5625 28.426 32.6724 28.5136 32.6943C28.5355 32.6943 28.5465 32.6943 28.5684 32.6943C28.645 32.6943 28.7107 32.6504 28.7326 32.5735C28.9516 31.8926 29.1049 31.2007 29.1925 30.4869C29.4444 30.4869 29.7072 30.4759 29.97 30.4539M17.9354 35.6266C14.4969 35.6266 11.6388 32.9359 11.4198 29.4985C11.4198 29.3447 11.4089 29.2129 11.4089 29.0811C11.4089 28.8286 11.4198 28.576 11.4527 28.3014C11.5074 27.8401 11.6169 27.3789 11.7593 26.9396C12.4054 25.0616 13.9165 23.5461 15.7891 22.8981C16.03 22.8212 16.2709 22.7444 16.5118 22.6894H17.9573C17.9573 22.6894 18.8771 22.6455 19.4466 22.4478C19.5342 22.4149 19.5889 22.316 19.5561 22.2282C19.5232 22.1403 19.4247 22.0854 19.3371 22.1184C18.8333 22.2941 18.012 22.338 17.9463 22.349H6.80964C4.79474 22.316 3.0755 20.9103 2.63748 18.9335C2.38562 17.8023 2.59368 16.6382 3.21786 15.6498C3.84204 14.6724 4.80569 13.9915 5.94454 13.7389C6.48112 13.6181 7.0177 13.6071 7.55427 13.684C8.28796 13.8048 8.98879 14.1013 9.56917 14.5735C9.84294 14.7822 10.0838 15.0348 10.2919 15.2984C10.6971 15.8145 10.9708 16.4076 11.1132 17.0445C11.1351 17.1324 11.1461 17.2203 11.168 17.3081C11.2337 17.7584 11.2337 18.2087 11.168 18.648C11.1461 18.8127 11.1022 18.9884 11.0584 19.1531C11.0365 19.252 11.0913 19.3398 11.1789 19.3728C11.1899 19.3728 11.2118 19.3728 11.2227 19.3728C11.2994 19.3728 11.3651 19.3179 11.387 19.241C11.4308 19.0653 11.4746 18.8786 11.5074 18.7029C11.5841 18.2196 11.5841 17.7364 11.5074 17.2532C11.4965 17.1544 11.4746 17.0555 11.4527 16.9677C11.2994 16.2648 10.9927 15.6278 10.5547 15.0787C10.3248 14.7932 10.0619 14.5296 9.77723 14.299C9.1421 13.7938 8.38651 13.4643 7.59807 13.3435C7.0177 13.2556 6.42637 13.2666 5.85694 13.3984C4.63048 13.673 3.59018 14.4088 2.91124 15.4631C2.23231 16.5284 2.0133 17.7804 2.28706 19.0104C2.75794 21.1519 4.60858 22.6675 6.79869 22.7004H7.21481C7.07245 22.9311 6.94104 23.1727 6.82059 23.4143C3.86394 23.3923 1.45482 20.9652 1.45482 17.989C1.45482 15.0128 3.87489 12.5638 6.86439 12.5638C6.86439 12.5638 6.88629 12.5638 6.89724 12.5638C6.90819 12.5638 6.91914 12.5638 6.93009 12.5638C7.37906 12.5638 7.82804 12.6297 8.25511 12.7395C10.1277 13.2337 11.595 14.7053 12.0878 16.5833C12.1973 17.0116 12.263 17.4619 12.263 17.9121C12.263 17.9231 12.263 17.9341 12.263 17.9451C12.263 17.9451 12.263 17.9671 12.263 17.978C12.263 17.989 12.263 18 12.263 18.011C12.263 18.022 12.263 18.0329 12.263 18.0439C12.263 18.4942 12.1973 18.9445 12.0878 19.3728C12.0659 19.4716 12.1206 19.5595 12.2083 19.5924C12.2192 19.5924 12.2411 19.5924 12.2521 19.5924C12.3287 19.5924 12.4054 19.5375 12.4273 19.4606C12.5477 18.9994 12.6134 18.5272 12.6134 18.0439V18.022C12.6134 18.022 12.6134 18 12.6134 17.978C12.6134 17.9561 12.6134 17.9561 12.6134 17.9341V17.9121C12.6134 17.4289 12.5477 16.9567 12.4163 16.4954C11.8907 14.4966 10.3248 12.9262 8.33176 12.399C7.87184 12.2782 7.40097 12.2123 6.91914 12.2123H6.89724C6.89724 12.2123 6.87534 12.2123 6.85344 12.2123C3.67778 12.2123 1.09345 14.8042 1.09345 17.989C1.09345 21.1739 3.55732 23.6449 6.63443 23.7547C6.51397 23.9963 6.41542 24.2489 6.31686 24.5015C2.95504 24.227 0.326915 21.3935 0.326915 17.978C0.326915 14.5625 3.0098 11.6632 6.43732 11.4436C6.59062 11.4436 6.72203 11.4326 6.85344 11.4326C7.1053 11.4326 7.36811 11.4436 7.63093 11.4765C8.09085 11.5314 8.55077 11.6412 8.98879 11.784C10.8613 12.432 12.3725 13.9475 13.0186 15.8255C13.0952 16.0671 13.1719 16.3087 13.2267 16.5503V17.7254C13.2267 17.8023 13.1938 18.593 13.4566 19.4387C13.4785 19.5156 13.5552 19.5595 13.6209 19.5595C13.6428 19.5595 13.6537 19.5595 13.6756 19.5595C13.7632 19.5265 13.818 19.4277 13.7961 19.3398C13.5442 18.5381 13.588 17.7584 13.588 17.7474V17.1214V16.5284V13.684V6.80903C13.6209 4.78829 15.0225 3.06406 16.9936 2.62477C19.3261 2.1086 21.6476 3.59121 22.1732 5.93045C22.2937 6.46858 22.3047 7.00671 22.228 7.54485C22.1185 8.28066 21.8119 8.97254 21.352 9.56559C21.1001 9.79622 20.8482 10.0488 20.6183 10.3014C20.1036 10.7077 19.5232 10.9823 18.8771 11.1251C18.7895 11.147 18.7019 11.158 18.6143 11.18C18.1653 11.2459 17.7164 11.2459 17.2784 11.18C17.1141 11.158 16.9389 11.1141 16.7746 11.0702C16.6761 11.0482 16.5885 11.1031 16.5556 11.191C16.5337 11.2898 16.5885 11.3777 16.6761 11.4106C16.8513 11.4545 17.0374 11.4985 17.2127 11.5314C17.4536 11.5644 17.6945 11.5863 17.9354 11.5863C18.1763 11.5863 18.4172 11.5644 18.6691 11.5314C18.7676 11.5204 18.8662 11.4985 18.9538 11.4765C19.6437 11.3228 20.2788 11.0262 20.8373 10.5869C21.122 10.3563 21.3848 10.0927 21.6148 9.8072C22.1075 9.17023 22.4361 8.42343 22.5675 7.62172C22.6551 7.03966 22.6441 6.4576 22.5127 5.87553C21.9542 3.33862 19.4466 1.7352 16.917 2.2953C14.7816 2.76754 13.2705 4.62355 13.2376 6.82001V7.23734C13.0076 7.09457 12.7667 6.96278 12.5258 6.84198C12.5477 3.87675 14.9678 1.46065 17.9354 1.46065C20.903 1.46065 23.345 3.88774 23.345 6.88591C23.345 6.88591 23.345 6.90787 23.345 6.91885C23.345 6.91885 23.345 6.94082 23.345 6.9518C23.345 7.40207 23.2793 7.85235 23.1697 8.28066C22.677 10.1586 21.1986 11.6303 19.3371 12.1245C18.91 12.2343 18.461 12.3002 18.012 12.3002H17.8916C17.4426 12.3002 16.9936 12.2343 16.5666 12.1245C16.468 12.1025 16.3804 12.1574 16.3476 12.2453C16.3257 12.3441 16.3804 12.432 16.468 12.4649C16.9279 12.5857 17.3988 12.6516 17.8806 12.6516H18.012C18.4939 12.6516 18.9647 12.5857 19.4247 12.4649C21.4177 11.9378 22.9836 10.3673 23.5092 8.36852C23.6297 7.90726 23.6954 7.43502 23.6954 6.9518V6.92984C23.6954 6.92984 23.6954 6.89689 23.6954 6.88591C23.6954 3.70104 21.111 1.10921 17.9354 1.10921C14.7597 1.10921 12.2959 3.58023 12.1864 6.66626C11.9454 6.54546 11.6936 6.44661 11.4417 6.34777C11.7155 2.97621 14.5407 0.340452 17.9463 0.340452C21.352 0.340452 24.2429 3.03112 24.4619 6.46858C24.4619 6.62233 24.4729 6.75412 24.4729 6.88591C24.4729 7.1385 24.4619 7.40208 24.4291 7.66565C24.3743 8.12691 24.2648 8.58816 24.1224 9.02746C23.4764 10.9054 21.9652 12.421 20.0926 13.0689C19.8517 13.1458 19.6108 13.2227 19.3699 13.2776H18.5596C18.4501 13.2776 17.3112 13.1898 16.4571 13.5082C16.3695 13.5412 16.3147 13.64 16.3476 13.7389C16.3695 13.8157 16.4461 13.8597 16.5118 13.8597C16.5337 13.8597 16.5556 13.8597 16.5775 13.8597C17.3879 13.5632 18.5267 13.651 18.5377 13.651H18.8005H19.3918H29.094C31.1089 13.684 32.8281 15.0897 33.2661 17.0665C33.7808 19.4057 32.3025 21.734 29.97 22.2611C29.4335 22.3819 28.8969 22.3929 28.3603 22.316C27.6266 22.1952 26.9258 21.8987 26.3454 21.4265C26.0716 21.2178 25.8307 20.9652 25.6227 20.7016C25.2175 20.1855 24.9437 19.5924 24.8014 18.9555C24.7795 18.8676 24.7685 18.7797 24.7466 18.6919C24.6809 18.2416 24.6809 17.7913 24.7466 17.352C24.7685 17.1873 24.8123 17.0116 24.8561 16.8469C24.878 16.748 24.8233 16.6602 24.7357 16.6272C24.6371 16.6052 24.5495 16.6602 24.5167 16.748C24.4729 16.9237 24.4291 17.1104 24.3962 17.2862C24.3196 17.7694 24.3196 18.2526 24.3962 18.7358C24.4072 18.8347 24.4291 18.9335 24.451 19.0214C24.6043 19.7242 24.9109 20.3612 25.3489 20.9103C25.5789 21.1959 25.8417 21.4594 26.1264 21.6901C26.7615 22.1952 27.5171 22.5247 28.3056 22.6455C28.5465 22.6785 28.7874 22.7004 29.0283 22.7004C29.3678 22.7004 29.7072 22.6675 30.0467 22.5906C32.5763 22.0305 34.175 19.5156 33.6166 16.9786C33.1457 14.8371 31.295 13.3215 29.1049 13.2886H28.6888C28.8312 13.058 28.9626 12.8164 29.083 12.5747C32.0397 12.5967 34.4488 15.0238 34.4488 18C34.4488 20.9762 32.0287 23.4253 29.0392 23.4253C29.0392 23.4253 29.0173 23.4253 29.0064 23.4253C28.9954 23.4253 28.9845 23.4253 28.9735 23.4253C28.5246 23.4253 28.0756 23.3594 27.6485 23.2495C25.776 22.7553 24.3086 21.2727 23.8158 19.4057C23.7063 18.9774 23.6406 18.5272 23.6406 18.0769C23.6406 18.0769 23.6406 18.0549 23.6406 18.0439C23.6406 18.0439 23.6406 18.022 23.6406 18.011C23.6406 18 23.6406 17.989 23.6406 17.978C23.6406 17.978 23.6406 17.9561 23.6406 17.9451C23.6406 17.4948 23.7063 17.0445 23.8158 16.6162C23.8377 16.5174 23.783 16.4295 23.6954 16.3966C23.5968 16.3746 23.5092 16.4295 23.4764 16.5174C23.3559 16.9786 23.2902 17.4509 23.2902 17.9341V17.9561C23.2902 17.9561 23.2902 17.989 23.2902 18C23.2902 18.011 23.2902 18.0329 23.2902 18.0439V18.0659C23.2902 18.5491 23.3559 19.0214 23.4764 19.4826C24.002 21.4814 25.5679 23.0519 27.5609 23.579C28.0208 23.6998 28.4917 23.7657 28.9735 23.7657H28.9954C28.9954 23.7657 29.0173 23.7657 29.0392 23.7657C32.2149 23.7657 34.7992 21.1739 34.7992 17.989C34.7992 14.8042 32.3354 12.3331 29.2582 12.2233C29.3787 11.9817 29.4773 11.7291 29.5758 11.4765C32.9376 11.7511 35.5658 14.5845 35.5658 18C35.5658 21.4155 32.8829 24.3148 29.4554 24.5345C29.302 24.5345 29.1706 24.5455 29.0392 24.5455C28.7874 24.5455 28.5355 24.5345 28.2617 24.5015C27.8018 24.4466 27.3419 24.3368 26.9039 24.194C25.0313 23.5461 23.5202 22.0305 22.8741 20.1525C22.7974 19.9109 22.7208 19.6693 22.666 19.4277V18.3295C22.666 18.3295 22.6879 17.1653 22.4251 16.4844C22.3923 16.3966 22.2828 16.3527 22.1951 16.3856C22.1075 16.4185 22.0637 16.5284 22.0966 16.6162C22.3375 17.2312 22.3156 18.3185 22.3156 18.3295V19.4606V22.3051V29.18C22.2828 31.2007 20.8811 32.925 18.91 33.3643C16.5775 33.8804 14.256 32.3978 13.7304 30.0586C13.6099 29.5204 13.599 28.9823 13.6756 28.4442C13.7961 27.7084 14.0917 27.0055 14.5626 26.4234C14.7816 26.1379 14.9787 25.9182 15.2744 25.7096C15.7891 25.3032 16.3804 25.0287 17.0155 24.8859C17.1031 24.8639 17.1908 24.853 17.2784 24.831C17.7273 24.7651 18.1763 24.7651 18.6143 24.831C18.7786 24.853 18.9538 24.8969 19.118 24.9408C19.129 24.9408 19.1509 24.9408 19.1618 24.9408C19.2385 24.9408 19.3042 24.8859 19.3261 24.809C19.348 24.7102 19.2933 24.6223 19.2057 24.5894C19.0304 24.5455 18.8443 24.5015 18.6691 24.4686C18.1872 24.3917 17.7054 24.3917 17.2236 24.4686C17.125 24.4796 17.0265 24.5015 16.9389 24.5235C16.249 24.6772 15.6139 24.9738 15.0554 25.4131C14.7378 25.6437 14.5079 25.8963 14.2779 26.1928C13.7742 26.8298 13.4457 27.5876 13.3252 28.3783C13.2376 28.9603 13.2486 29.5534 13.38 30.1245C13.8618 32.3209 15.811 33.8145 17.9573 33.8145C18.2968 33.8145 18.6362 33.7816 18.9757 33.7047C21.111 33.2325 22.6222 31.3765 22.6551 29.18V28.7627C22.885 28.9054 23.1259 29.0372 23.3669 29.158C23.345 32.1232 20.9249 34.5394 17.9573 34.5394C14.9897 34.5394 12.5477 32.1123 12.5477 29.1141C12.5477 29.1141 12.5477 29.0921 12.5477 29.0811C12.5477 29.0702 12.5477 29.0592 12.5477 29.0482C12.5477 28.5979 12.6134 28.1477 12.7229 27.7193C13.2157 25.8414 14.694 24.3697 16.5556 23.8755C16.9827 23.7657 17.4317 23.6998 17.8806 23.6998H18.0011C18.4501 23.6998 18.899 23.7657 19.3261 23.8755C19.3371 23.8755 19.359 23.8755 19.3699 23.8755C19.4466 23.8755 19.5232 23.8206 19.5451 23.7437C19.567 23.6449 19.5123 23.557 19.4247 23.5241C18.9647 23.4033 18.4939 23.3374 18.012 23.3374H17.8806C17.3988 23.3374 16.9279 23.4033 16.468 23.5241C14.475 24.0513 12.9091 25.6217 12.3835 27.6205C12.263 28.0818 12.1973 28.554 12.1973 29.0372V29.0592C12.1973 29.0592 12.1973 29.0812 12.1973 29.1031C12.1973 32.288 14.7816 34.8798 17.9573 34.8798C21.1329 34.8798 23.5968 32.4088 23.7063 29.3228C23.9472 29.4436 24.1991 29.5424 24.451 29.6412C24.1772 33.0128 21.352 35.6486 17.9573 35.6486" fill="#B01C1A"/>
<path d="M19.2504 19.5601C18.8234 20.0213 17.9692 20.0213 17.9583 20.0213H6.79968C5.69367 20.0213 4.79573 19.1208 4.79573 18.0116C4.79573 16.9024 5.69367 16.0018 6.79968 16.0018C7.90568 16.0018 8.80363 16.9024 8.80363 18.0116C8.80363 18.4179 8.68317 18.8023 8.46416 19.1318C8.40941 19.2087 8.43131 19.3185 8.50796 19.3734C8.58462 19.4283 8.69412 19.4063 8.74888 19.3295C9.01169 18.9341 9.15405 18.4838 9.15405 18.0116C9.15405 16.7047 8.09184 15.6504 6.79968 15.6504C5.50752 15.6504 4.44531 16.7157 4.44531 18.0116C4.44531 19.3075 5.50752 20.3728 6.79968 20.3728H13.151C13.151 20.3728 13.1838 20.3728 13.2057 20.3728C13.2276 20.3728 13.2386 20.3728 13.2605 20.3728H17.9583C18.024 20.3728 18.9657 20.3728 19.5023 19.8017C19.568 19.7358 19.568 19.615 19.5023 19.5491C19.4366 19.4832 19.3162 19.4832 19.2504 19.5491" fill="#B01C1A"/>
<path d="M19.2808 20.9329C18.7989 21.1745 18.0105 21.2184 17.9558 21.2294H6.79715C5.32977 21.1964 4.07046 20.1641 3.7529 18.7144C3.36963 16.9902 4.46468 15.266 6.18392 14.8816C7.15852 14.662 8.15501 14.9036 8.92155 15.5515C9.05296 15.6943 9.19532 15.8371 9.33767 15.9689C9.66619 16.3642 9.8852 16.8255 10.0057 17.3197C10.1371 17.9237 10.0933 18.5497 9.8852 19.1208V19.1537C9.8414 19.2416 9.8852 19.3514 9.9728 19.3843C9.99471 19.3843 10.0166 19.3953 10.0385 19.3953C10.1042 19.3953 10.1809 19.3514 10.2028 19.2855V19.2526C10.4546 18.6156 10.4984 17.9127 10.3451 17.2428C10.2247 16.6827 9.9728 16.1665 9.60049 15.7272C9.46908 15.5625 9.31577 15.4088 9.15151 15.277C8.29737 14.5631 7.19137 14.2886 6.10726 14.5302C4.19092 14.9585 2.98636 16.8584 3.40248 18.7803C3.7529 20.3837 5.14362 21.5369 6.7862 21.5698H17.9667C17.9667 21.5698 18.8646 21.5259 19.445 21.2404C19.5326 21.1964 19.5655 21.0866 19.5217 20.9987C19.4779 20.9109 19.3684 20.8779 19.2808 20.9219" fill="#B01C1A"/>
<path d="M16.6233 8.79749C17.0175 9.06107 17.4665 9.20384 17.9374 9.20384C19.2405 9.20384 20.2917 8.13855 20.2917 6.84264C20.2917 5.54673 19.2295 4.48145 17.9374 4.48145C16.6452 4.48145 15.583 5.54673 15.583 6.84264V13.2124C15.583 13.2124 15.572 13.2893 15.583 13.3222V17.8908C15.583 17.8908 15.6049 18.9561 16.1743 19.5602C16.2072 19.5931 16.251 19.6151 16.3057 19.6151C16.3495 19.6151 16.3933 19.6041 16.4262 19.5711C16.5028 19.5052 16.5028 19.3954 16.4262 19.3185C15.9553 18.8134 15.9334 17.8908 15.9334 17.8799V13.2783V6.83166C15.9334 5.72245 16.8314 4.8219 17.9374 4.8219C19.0434 4.8219 19.9413 5.72245 19.9413 6.83166C19.9413 7.94087 19.0434 8.84142 17.9374 8.84142C17.5322 8.84142 17.1489 8.72062 16.8204 8.50097C16.7437 8.44606 16.6342 8.46802 16.5795 8.5449C16.5247 8.62178 16.5466 8.7316 16.6233 8.78651" fill="#B01C1A"/>
<path d="M14.8834 19.6148C14.8834 19.6148 14.9272 19.6148 14.9601 19.6038C15.0477 19.5599 15.0915 19.4611 15.0477 19.3732C14.741 18.6703 14.741 17.8357 14.741 17.8247V6.84239C14.7739 5.35978 15.8032 4.10779 17.2487 3.78931C18.968 3.40493 20.6872 4.50316 21.0705 6.22738C21.2895 7.20481 21.0486 8.20419 20.4025 8.97296C20.2601 9.10474 20.1178 9.24751 19.9864 9.39028C19.5921 9.71975 19.1322 9.9394 18.6394 10.0602C18.0372 10.192 17.413 10.1481 16.8435 9.9394H16.8107C16.7231 9.89547 16.6136 9.9394 16.5807 10.0273C16.5479 10.1151 16.5807 10.2249 16.6793 10.2579H16.7121C17.1064 10.4226 17.5225 10.4885 17.9386 10.4885C18.2014 10.4885 18.4533 10.4556 18.7051 10.4007C19.2636 10.2799 19.7673 10.0273 20.2163 9.65386C20.3806 9.52207 20.5339 9.36832 20.6653 9.20358C21.3771 8.34696 21.6508 7.23775 21.4099 6.1505C20.9828 4.2286 19.0884 3.02055 17.1721 3.43787C15.5733 3.78931 14.4235 5.18406 14.3906 6.83141V17.8137C14.3906 17.8137 14.3906 18.7362 14.7191 19.505C14.752 19.5709 14.8177 19.6148 14.8834 19.6148Z" fill="#B01C1A"/>
<path d="M19.9364 18.999V22.7439V29.1905C19.9364 30.2998 19.0385 31.2003 17.9325 31.2003C16.8265 31.2003 15.9285 30.2998 15.9285 29.1905C15.9285 28.0813 16.8265 27.1808 17.9325 27.1808C18.3377 27.1808 18.7209 27.3016 19.0494 27.5212C19.1261 27.5761 19.2356 27.5542 19.2904 27.4773C19.3451 27.4004 19.3232 27.2906 19.2466 27.2357C18.8523 26.9721 18.4034 26.8293 17.9325 26.8293C16.6294 26.8293 15.5781 27.8946 15.5781 29.1905C15.5781 30.4865 16.6403 31.5517 17.9325 31.5517C19.2247 31.5517 20.2869 30.4865 20.2869 29.1905V22.8098C20.2869 22.8098 20.2869 22.7439 20.2869 22.711V19.0978C20.2869 19.0978 20.2869 19.0539 20.2869 19.0319V18.988V18.351V18.1314C20.2869 18.1314 20.2431 17.0221 19.6627 16.4071C19.597 16.3412 19.4875 16.3303 19.4108 16.4071C19.3451 16.473 19.3342 16.5828 19.4108 16.6597C19.9036 17.1759 19.9364 18.1423 19.9364 18.1423V18.999Z" fill="#B01C1A"/>
<path d="M21.1279 16.4634C21.0841 16.3756 20.9746 16.3426 20.887 16.3866C20.7993 16.4305 20.7665 16.5403 20.8103 16.6282C21.0841 17.1993 21.1279 18.2206 21.1279 18.2206V29.1919C21.095 30.6745 20.0657 31.9265 18.6202 32.245C17.7879 32.4317 16.9338 32.278 16.2111 31.8167C15.4883 31.3554 14.9956 30.6416 14.8094 29.8069C14.5904 28.8295 14.8423 27.8301 15.4774 27.0614C15.6307 26.8966 15.7402 26.7868 15.8935 26.644C16.2877 26.3146 16.7476 26.0949 17.2514 25.9741C17.8537 25.8423 18.4778 25.8863 19.0473 26.0949H19.0801C19.1677 26.1388 19.2772 26.0949 19.3101 26.0071C19.3429 25.9192 19.2991 25.8094 19.2115 25.7764H19.1787C18.5435 25.5238 17.8427 25.4799 17.1747 25.6337C16.6162 25.7545 16.1125 26.0071 15.6635 26.3805C15.5102 26.5342 15.4007 26.644 15.2365 26.8088C14.5247 27.6654 14.2509 28.7746 14.4918 29.8619C14.6999 30.7953 15.2474 31.5861 16.0468 32.0913C16.6272 32.4647 17.2842 32.6514 17.9522 32.6514C18.215 32.6514 18.4669 32.6184 18.7297 32.5635C20.3285 32.2121 21.4783 30.8173 21.5111 29.17V18.1877C21.5111 18.1877 21.4673 17.0784 21.1607 16.4415" fill="#B01C1A"/>
<path d="M57.4114 8.63184H46.5703V9.45551H49.1218V27.1919H46.5703V28.0156H55.1117V27.1919H52.5603V20.0534H57.4114C60.5323 20.0534 63.0837 17.4946 63.0837 14.3426C63.0837 11.1907 60.5651 8.63184 57.4114 8.63184ZM59.6343 17.0113C59.6343 18.3841 58.7583 19.2627 57.4114 19.2627H52.5603V9.45551H57.4114C58.6488 9.45551 59.6343 10.4769 59.6343 11.7069V17.0113Z" fill="#B01C1A"/>
<path d="M70.6585 21.8105H63.5625V22.5248H70.6585V21.8105Z" fill="#B01C1A"/>
<path d="M79.8293 9.45772H87.6918V8.66699H72.1092C70.9265 8.66699 69.7877 9.17218 69.054 10.1057C67.7618 11.764 68.6817 13.4333 70.149 13.4443C71.0141 13.4443 71.7807 12.7744 71.8792 11.9068C71.9997 10.7646 71.047 9.86406 69.941 9.98487C70.3242 9.6554 70.817 9.45772 71.4193 9.45772C73.0619 9.49067 74.7373 9.45772 76.3799 9.45772V27.2271H73.8065V28.0178H82.4027V27.2271H79.8293V9.45772Z" fill="#B01C1A"/>
<path d="M95.6334 8.00684C92.7315 14.9257 90.0486 21.0538 87.3876 27.2259H84.6719V28.0166H90.6399V27.2259H88.2856L90.2895 22.5254H95.5348V21.8116H90.5961L91.3517 20.0544L91.6802 19.2637L94.3084 13.1685L96.9146 19.2637L97.265 20.0544L100.309 27.2259H97.9549V28.0166H106.584V27.2259H103.868L95.6224 8.00684H95.6334Z" fill="#B01C1A"/>
<path d="M120.3 23.2405C119.348 23.2405 118.57 24.0093 118.57 24.9757C118.57 25.9861 119.479 26.8207 120.486 26.678C120.125 27.0294 119.61 27.2271 118.975 27.2271H114.157V8.66699H108.211V9.45772H110.762V27.2271H108.211V28.0288H118.975C120.727 28.0288 121.987 26.7658 121.987 24.9757C121.987 24.0093 121.22 23.2405 120.289 23.2405" fill="#B01C1A"/>
</svg>
