<svg xmlns="http://www.w3.org/2000/svg" xmlns:xlink="http://www.w3.org/1999/xlink" width="500" zoomAndPan="magnify" viewBox="0 0 375 374.999991" height="500" preserveAspectRatio="xMidYMid meet" version="1.0"><defs><g/><clipPath id="74399d67a7"><path d="M 133.59375 78.066406 L 241.59375 78.066406 L 241.59375 228.066406 L 133.59375 228.066406 Z M 133.59375 78.066406 " clip-rule="nonzero"/></clipPath></defs><g clip-path="url(#74399d67a7)"><path fill="#b60e0e" d="M 149.503906 182.835938 C 149.355469 182.140625 148.949219 181.542969 148.355469 181.152344 C 147.757812 180.765625 147.046875 180.636719 146.351562 180.785156 C 144.914062 181.089844 143.992188 182.503906 144.300781 183.941406 C 144.5625 185.1875 145.671875 186.046875 146.902344 186.046875 C 147.082031 186.046875 147.269531 186.027344 147.453125 185.988281 C 148.894531 185.683594 149.808594 184.269531 149.503906 182.835938 Z M 147.246094 184.996094 C 146.355469 185.183594 145.480469 184.617188 145.292969 183.730469 C 145.101562 182.84375 145.671875 181.964844 146.558594 181.777344 C 146.671875 181.753906 146.792969 181.742188 146.90625 181.742188 C 147.21875 181.742188 147.527344 181.832031 147.796875 182.007812 C 148.164062 182.246094 148.417969 182.617188 148.507812 183.046875 C 148.703125 183.933594 148.132812 184.804688 147.246094 184.996094 Z M 140.011719 168.136719 C 138.554688 168.011719 137.257812 169.09375 137.128906 170.558594 C 137.003906 172.015625 138.085938 173.3125 139.550781 173.4375 C 139.628906 173.445312 139.703125 173.449219 139.78125 173.449219 C 141.144531 173.449219 142.3125 172.402344 142.433594 171.023438 C 142.558594 169.558594 141.476562 168.265625 140.011719 168.136719 Z M 139.640625 172.429688 C 138.734375 172.347656 138.0625 171.550781 138.140625 170.644531 C 138.214844 169.789062 138.9375 169.140625 139.78125 169.140625 C 139.828125 169.140625 139.878906 169.144531 139.925781 169.144531 C 140.832031 169.222656 141.503906 170.027344 141.425781 170.933594 C 141.339844 171.835938 140.542969 172.511719 139.640625 172.429688 Z M 137.65625 154.191406 C 137.332031 154.058594 136.992188 153.992188 136.660156 153.992188 C 135.609375 153.992188 134.609375 154.621094 134.191406 155.660156 C 133.640625 157.019531 134.300781 158.574219 135.664062 159.125 C 135.988281 159.253906 136.324219 159.316406 136.65625 159.316406 C 137.707031 159.316406 138.710938 158.6875 139.125 157.652344 C 139.671875 156.292969 139.015625 154.738281 137.65625 154.191406 Z M 138.183594 157.273438 C 137.84375 158.113281 136.882812 158.523438 136.042969 158.183594 C 135.203125 157.84375 134.792969 156.882812 135.132812 156.042969 C 135.390625 155.402344 136.011719 155.011719 136.660156 155.011719 C 136.863281 155.011719 137.074219 155.046875 137.273438 155.132812 C 138.113281 155.46875 138.523438 156.433594 138.183594 157.273438 Z M 139.472656 140.160156 C 138.335938 139.234375 136.65625 139.414062 135.734375 140.554688 C 134.808594 141.695312 134.984375 143.375 136.125 144.296875 C 136.617188 144.695312 137.210938 144.890625 137.796875 144.890625 C 138.574219 144.890625 139.339844 144.554688 139.871094 143.902344 C 140.789062 142.761719 140.613281 141.085938 139.472656 140.160156 Z M 139.074219 143.265625 C 138.507812 143.972656 137.46875 144.082031 136.761719 143.507812 C 136.058594 142.9375 135.949219 141.898438 136.519531 141.195312 C 136.84375 140.792969 137.320312 140.585938 137.800781 140.585938 C 138.164062 140.585938 138.53125 140.707031 138.835938 140.953125 C 139.539062 141.523438 139.648438 142.5625 139.074219 143.265625 Z M 145.316406 127.28125 C 144.5 126.0625 142.839844 125.738281 141.621094 126.5625 C 141.03125 126.957031 140.632812 127.558594 140.5 128.257812 C 140.363281 128.953125 140.503906 129.664062 140.90625 130.253906 C 141.417969 131.015625 142.261719 131.425781 143.113281 131.425781 C 143.628906 131.425781 144.144531 131.28125 144.601562 130.972656 C 145.8125 130.15625 146.136719 128.496094 145.316406 127.28125 Z M 144.03125 130.132812 C 143.277344 130.640625 142.253906 130.441406 141.746094 129.6875 C 141.503906 129.324219 141.410156 128.886719 141.492188 128.457031 C 141.578125 128.023438 141.824219 127.652344 142.1875 127.40625 C 142.46875 127.21875 142.78125 127.125 143.105469 127.125 C 143.210938 127.125 143.316406 127.132812 143.421875 127.152344 C 143.855469 127.238281 144.230469 127.488281 144.472656 127.847656 C 144.980469 128.601562 144.78125 129.621094 144.03125 130.132812 Z M 154.671875 116.667969 C 154.242188 115.265625 152.75 114.472656 151.347656 114.902344 C 149.941406 115.328125 149.152344 116.820312 149.578125 118.222656 C 149.925781 119.367188 150.988281 120.105469 152.125 120.105469 C 152.382812 120.105469 152.644531 120.070312 152.90625 119.992188 C 154.304688 119.558594 155.097656 118.070312 154.671875 116.667969 Z M 152.605469 119.019531 C 151.738281 119.289062 150.8125 118.796875 150.550781 117.929688 C 150.285156 117.0625 150.773438 116.136719 151.644531 115.875 C 151.800781 115.824219 151.960938 115.800781 152.121094 115.800781 C 152.828125 115.800781 153.480469 116.257812 153.699219 116.964844 C 153.964844 117.835938 153.472656 118.757812 152.605469 119.019531 Z M 164.058594 106.59375 C 162.589844 106.59375 161.398438 107.789062 161.398438 109.253906 C 161.398438 110.71875 162.589844 111.914062 164.058594 111.914062 C 165.523438 111.914062 166.71875 110.71875 166.71875 109.253906 C 166.71875 107.789062 165.523438 106.59375 164.058594 106.59375 Z M 164.058594 110.902344 C 163.148438 110.902344 162.414062 110.164062 162.414062 109.257812 C 162.414062 108.347656 163.148438 107.613281 164.058594 107.613281 C 164.964844 107.613281 165.703125 108.347656 165.703125 109.257812 C 165.703125 110.164062 164.960938 110.902344 164.058594 110.902344 Z M 241.046875 110.984375 C 238.113281 109.789062 233.714844 108.65625 228.800781 109.570312 C 228.050781 107.25 226.246094 105.050781 224.34375 102.742188 C 221.484375 99.257812 218.523438 95.65625 219.695312 91.792969 C 220.027344 90.691406 220.667969 89.652344 221.59375 88.695312 C 221.753906 88.535156 221.785156 88.285156 221.671875 88.089844 C 221.558594 87.890625 221.328125 87.796875 221.105469 87.855469 C 218.199219 88.617188 215.554688 89.882812 213.398438 91.523438 C 212.152344 87.847656 211.339844 84.34375 213.398438 81.578125 C 214.082031 80.660156 215.039062 79.890625 216.234375 79.308594 C 216.441406 79.207031 216.554688 78.984375 216.511719 78.761719 C 216.46875 78.53125 216.285156 78.363281 216.058594 78.347656 C 212.839844 78.0625 208.085938 78.273438 203.757812 80.90625 C 200.246094 83.042969 197.5625 86.507812 196.257812 90.53125 C 195.710938 89.371094 195.5 88.210938 195.609375 87.011719 C 195.71875 85.785156 196.167969 84.558594 196.929688 83.371094 C 197.054688 83.179688 197.035156 82.925781 196.882812 82.757812 C 196.730469 82.585938 196.484375 82.539062 196.28125 82.640625 C 193.199219 84.160156 189.007812 86.984375 186.546875 91.753906 C 184.820312 95.109375 184.183594 99.046875 184.742188 102.914062 C 182.269531 102.652344 180.527344 101.8125 179.304688 100.304688 C 178.53125 99.355469 177.996094 98.175781 177.714844 96.808594 C 177.667969 96.582031 177.480469 96.417969 177.25 96.398438 C 177.023438 96.382812 176.8125 96.523438 176.734375 96.742188 C 175.609375 99.960938 174.597656 104.867188 176.160156 109.957031 C 176.292969 110.390625 176.441406 110.792969 176.582031 111.171875 C 176.476562 111.441406 176.371094 111.714844 176.273438 111.984375 C 175.746094 110.097656 174.5 108.292969 172.9375 107.179688 C 171.15625 105.914062 169.203125 105.703125 167.878906 105.75 C 167.671875 105.753906 167.492188 105.886719 167.417969 106.082031 C 167.347656 106.273438 167.402344 106.496094 167.550781 106.632812 C 168.789062 107.757812 169.394531 108.875 169.371094 109.941406 C 169.34375 110.921875 168.789062 111.625 168.195312 112.371094 C 167.515625 113.226562 166.8125 114.113281 166.945312 115.414062 C 167.121094 117.140625 168.644531 118.414062 169.988281 118.863281 C 168.417969 119.550781 166.902344 120.34375 165.441406 121.242188 C 165.484375 121.132812 165.519531 121.023438 165.550781 120.917969 C 166.539062 117.566406 163.480469 113.800781 160.089844 112.671875 C 158.019531 111.988281 156.085938 112.355469 154.832031 112.785156 C 154.636719 112.851562 154.5 113.03125 154.492188 113.234375 C 154.476562 113.4375 154.59375 113.632812 154.78125 113.722656 C 156.289062 114.441406 157.199219 115.328125 157.484375 116.355469 C 157.75 117.296875 157.421875 118.132812 157.070312 119.023438 C 156.671875 120.042969 156.257812 121.097656 156.765625 122.296875 C 157.441406 123.902344 159.265625 124.671875 160.679688 124.710938 C 159.378906 125.828125 158.160156 127.027344 157.03125 128.304688 C 157.035156 128.195312 157.042969 128.078125 157.039062 127.972656 C 157.003906 124.480469 152.980469 121.769531 149.410156 121.679688 C 147.222656 121.625 145.488281 122.542969 144.414062 123.324219 C 144.25 123.445312 144.171875 123.65625 144.214844 123.855469 C 144.265625 124.054688 144.429688 124.203125 144.636719 124.234375 C 146.289062 124.480469 147.417969 125.066406 147.992188 125.960938 C 148.519531 126.792969 148.453125 127.6875 148.378906 128.636719 C 148.292969 129.726562 148.203125 130.855469 149.042969 131.859375 C 149.84375 132.8125 151.070312 133.1875 152.210938 133.1875 C 152.65625 133.1875 153.089844 133.128906 153.476562 133.023438 C 152.566406 134.457031 151.753906 135.945312 151.050781 137.492188 C 151.027344 137.394531 151 137.296875 150.96875 137.203125 C 149.917969 133.875 145.273438 132.460938 141.832031 133.421875 C 139.730469 134.011719 138.339844 135.394531 137.539062 136.457031 C 137.414062 136.617188 137.402344 136.84375 137.507812 137.023438 C 137.613281 137.199219 137.816406 137.296875 138.019531 137.261719 C 139.675781 137.019531 140.925781 137.242188 141.734375 137.933594 C 142.480469 138.566406 142.675781 139.449219 142.882812 140.378906 C 143.125 141.445312 143.367188 142.546875 144.460938 143.261719 C 145.078125 143.660156 145.769531 143.828125 146.464844 143.828125 C 147.402344 143.828125 148.328125 143.523438 149.019531 143.097656 C 148.574219 144.730469 148.238281 146.382812 148.015625 148.058594 C 147.96875 147.976562 147.917969 147.894531 147.863281 147.816406 C 145.878906 144.9375 141.027344 144.945312 138.019531 146.871094 C 136.179688 148.046875 135.253906 149.777344 134.796875 151.027344 C 134.726562 151.21875 134.78125 151.4375 134.933594 151.574219 C 135.085938 151.714844 135.304688 151.75 135.488281 151.65625 C 137 150.9375 138.257812 150.789062 139.238281 151.214844 C 140.140625 151.601562 140.582031 152.386719 141.054688 153.214844 C 141.59375 154.167969 142.148438 155.148438 143.40625 155.507812 C 143.714844 155.601562 144.03125 155.640625 144.34375 155.640625 C 145.679688 155.640625 146.953125 154.882812 147.703125 154.027344 C 147.75 155.710938 147.914062 157.386719 148.183594 159.039062 C 148.121094 158.980469 148.050781 158.917969 147.980469 158.863281 C 145.246094 156.695312 140.609375 158.117188 138.292969 160.84375 C 136.878906 162.503906 136.5 164.429688 136.425781 165.753906 C 136.417969 165.960938 136.53125 166.152344 136.71875 166.242188 C 136.902344 166.332031 137.125 166.296875 137.273438 166.160156 C 138.507812 165.03125 139.667969 164.519531 140.730469 164.632812 C 141.703125 164.746094 142.359375 165.363281 143.050781 166.019531 C 143.832031 166.761719 144.640625 167.527344 145.921875 167.527344 L 145.96875 167.527344 C 147.679688 167.5 149.054688 166.152344 149.640625 164.878906 C 150.167969 166.460938 150.808594 168.003906 151.546875 169.488281 C 151.476562 169.457031 151.40625 169.425781 151.332031 169.394531 C 148.082031 168.117188 144.0625 170.832031 142.644531 174.113281 C 141.777344 176.117188 141.972656 178.070312 142.296875 179.359375 C 142.347656 179.5625 142.511719 179.710938 142.714844 179.742188 C 142.738281 179.746094 142.761719 179.746094 142.789062 179.746094 C 142.96875 179.746094 143.136719 179.652344 143.226562 179.5 C 144.074219 178.058594 145.035156 177.230469 146.085938 177.03125 C 147.050781 176.851562 147.855469 177.25 148.710938 177.679688 C 149.691406 178.164062 150.703125 178.667969 151.941406 178.269531 C 153.566406 177.746094 154.484375 176.054688 154.675781 174.667969 C 155.644531 176.023438 156.707031 177.308594 157.847656 178.515625 C 157.773438 178.507812 157.695312 178.492188 157.617188 178.488281 C 154.132812 178.21875 151.089844 181.992188 150.691406 185.546875 C 150.449219 187.710938 151.207031 189.523438 151.890625 190.664062 C 151.984375 190.816406 152.148438 190.90625 152.328125 190.90625 C 152.351562 190.90625 152.378906 190.90625 152.402344 190.902344 C 152.609375 190.871094 152.773438 190.71875 152.820312 190.519531 C 153.210938 188.894531 153.886719 187.820312 154.832031 187.324219 C 155.699219 186.871094 156.59375 187.015625 157.53125 187.171875 C 158.472656 187.332031 159.445312 187.488281 160.390625 187.03125 C 159.960938 187.453125 159.539062 187.910156 159.140625 188.402344 C 154.773438 193.742188 153.910156 201.472656 156.941406 208.105469 C 157.023438 208.285156 157.207031 208.402344 157.402344 208.402344 L 157.433594 208.402344 C 157.640625 208.386719 157.824219 208.246094 157.886719 208.054688 C 158.476562 206.234375 159.40625 204.804688 160.65625 203.8125 C 163.644531 201.425781 167.527344 202.191406 171.640625 203.003906 C 172.65625 203.207031 173.679688 203.402344 174.703125 203.554688 C 173.679688 206.113281 173.417969 208.519531 173.921875 210.71875 C 174.527344 213.363281 176.023438 214.929688 178.496094 217.539062 C 179.421875 218.511719 180.46875 219.617188 181.671875 220.984375 C 183.585938 223.160156 185.410156 225.449219 187.082031 227.792969 C 187.171875 227.949219 187.34375 228.046875 187.527344 228.046875 C 187.714844 228.046875 187.890625 227.941406 187.976562 227.769531 C 189.648438 225.4375 191.464844 223.152344 193.371094 220.984375 C 194.574219 219.613281 195.625 218.511719 196.546875 217.539062 C 199.023438 214.929688 200.515625 213.359375 201.121094 210.71875 C 201.625 208.527344 201.363281 206.125 200.347656 203.574219 C 201.417969 203.421875 202.496094 203.210938 203.5625 203 C 207.671875 202.191406 211.558594 201.421875 214.546875 203.808594 C 215.800781 204.8125 216.734375 206.234375 217.320312 208.050781 C 217.382812 208.25 217.5625 208.386719 217.773438 208.398438 C 217.78125 208.402344 217.792969 208.402344 217.800781 208.402344 C 218 208.402344 218.183594 208.285156 218.265625 208.105469 C 221.292969 201.472656 220.429688 193.738281 216.066406 188.394531 C 214.191406 186.101562 211.976562 184.613281 209.898438 183.648438 C 214.371094 179.898438 218.015625 175.183594 220.46875 169.960938 C 222.472656 165.703125 223.695312 161.148438 224.109375 156.429688 C 228.585938 154.261719 232.3125 150.644531 234.355469 146.367188 C 236.824219 141.183594 236.480469 136.011719 235.757812 132.582031 C 235.710938 132.363281 235.527344 132.195312 235.296875 132.183594 C 235.070312 132.167969 234.863281 132.304688 234.785156 132.515625 C 234.265625 133.933594 233.5 135.125 232.515625 136.066406 C 232.160156 136.402344 231.789062 136.695312 231.390625 136.957031 C 232.84375 134.226562 232.917969 130.609375 232.996094 126.820312 C 233.097656 121.691406 233.199219 116.382812 237.046875 113.574219 C 238.148438 112.765625 239.460938 112.226562 240.949219 111.964844 C 241.167969 111.929688 241.339844 111.746094 241.363281 111.519531 C 241.386719 111.28125 241.257812 111.070312 241.046875 110.984375 Z M 147.710938 151.722656 C 147.597656 152.296875 147.363281 152.847656 146.964844 153.308594 C 146.246094 154.152344 144.855469 154.867188 143.683594 154.523438 C 142.824219 154.273438 142.410156 153.542969 141.929688 152.703125 C 141.421875 151.808594 140.847656 150.796875 139.636719 150.265625 C 139.144531 150.058594 138.613281 149.949219 138.039062 149.949219 C 137.476562 149.949219 136.875 150.050781 136.246094 150.253906 C 136.722656 149.371094 137.453125 148.425781 138.558594 147.714844 C 141.128906 146.074219 145.382812 146.003906 147.019531 148.382812 C 147.429688 148.976562 147.699219 149.746094 147.769531 150.546875 C 147.738281 150.941406 147.714844 151.332031 147.710938 151.722656 Z M 213.46875 92.746094 C 215.230469 91.292969 217.390625 90.121094 219.785156 89.308594 C 219.308594 90.007812 218.953125 90.738281 218.726562 91.5 C 217.394531 95.878906 220.527344 99.691406 223.558594 103.382812 C 225.371094 105.585938 227.089844 107.679688 227.800781 109.78125 C 227.613281 109.828125 227.429688 109.867188 227.238281 109.917969 C 225.8125 110.304688 224.429688 110.863281 223.101562 111.566406 C 221.363281 104.070312 216.007812 100.460938 214.949219 99.8125 C 214.722656 99.671875 214.429688 99.730469 214.273438 99.945312 C 213.855469 100.523438 212.457031 102.628906 211.722656 105.777344 C 210.792969 106.1875 209.898438 106.65625 209.050781 107.183594 C 208.996094 107.210938 208.945312 107.242188 208.90625 107.269531 C 208.523438 107.511719 208.148438 107.773438 207.785156 108.046875 C 207.777344 107.988281 207.761719 107.933594 207.757812 107.875 C 207.492188 106.054688 207.527344 104.203125 207.867188 102.371094 C 208.355469 99.65625 209.5 97.125 211.175781 95.050781 C 211.863281 94.210938 212.632812 93.433594 213.46875 92.746094 Z M 219.796875 123.257812 C 222.148438 121.113281 224.523438 120.15625 225.574219 119.8125 C 226.132812 121.609375 227.351562 126.945312 224.460938 132.914062 L 224.363281 133.113281 C 223.523438 134.808594 222.273438 135.945312 220.84375 136.375 C 221.285156 135.808594 221.644531 135.210938 221.914062 134.597656 C 223.46875 131 221.839844 127.179688 219.796875 123.257812 Z M 220.988281 134.183594 C 220.59375 135.089844 219.980469 135.9375 219.167969 136.707031 C 218.855469 137.003906 218.5 137.296875 218.097656 137.585938 C 217.25 137.449219 216.359375 137.316406 215.480469 137.207031 C 215.867188 136.808594 216.195312 136.367188 216.460938 135.855469 C 217.132812 134.5625 217.347656 132.96875 217.074219 131.242188 L 217.039062 131.019531 C 216.839844 129.878906 216.546875 128.761719 216.160156 127.695312 C 214.179688 122.175781 210.269531 119.289062 209.507812 118.761719 C 209.292969 118.617188 208.996094 118.65625 208.828125 118.863281 C 208.347656 119.449219 204.175781 124.800781 205.515625 132.644531 C 205.515625 132.679688 205.523438 132.707031 205.53125 132.742188 C 204.320312 132.679688 203.058594 132.667969 201.835938 132.667969 C 201.765625 132.515625 201.699219 132.359375 201.632812 132.191406 C 201.015625 130.652344 200.621094 128.960938 200.460938 127.160156 C 200.304688 125.3125 200.402344 123.417969 200.753906 121.511719 C 200.761719 121.425781 200.785156 121.335938 200.804688 121.242188 C 200.859375 120.941406 200.925781 120.640625 201.003906 120.332031 C 201.015625 120.304688 201.023438 120.277344 201.027344 120.25 C 201.050781 120.144531 201.078125 120.039062 201.105469 119.921875 C 201.582031 118.117188 202.273438 116.402344 203.167969 114.820312 C 203.175781 114.804688 203.183594 114.792969 203.1875 114.777344 C 203.808594 113.691406 204.523438 112.667969 205.320312 111.738281 C 205.65625 111.328125 206.042969 110.917969 206.453125 110.511719 C 206.863281 110.113281 207.300781 109.722656 207.757812 109.359375 C 208.300781 108.914062 208.867188 108.503906 209.472656 108.128906 C 209.496094 108.113281 209.515625 108.097656 209.539062 108.085938 C 209.550781 108.078125 209.5625 108.066406 209.578125 108.0625 C 210.449219 107.511719 211.378906 107.03125 212.347656 106.621094 C 212.351562 106.621094 212.351562 106.621094 212.351562 106.621094 C 212.351562 106.617188 212.355469 106.617188 212.359375 106.613281 C 212.796875 106.429688 213.25 106.253906 213.742188 106.078125 C 214.738281 105.738281 215.773438 105.457031 216.839844 105.253906 C 216.136719 106.019531 215.574219 106.859375 215.164062 107.761719 C 213.46875 111.433594 214.71875 115.175781 215.988281 118.015625 C 216.222656 118.535156 216.472656 119.050781 216.691406 119.496094 L 216.816406 119.75 C 217.21875 120.546875 217.648438 121.355469 218.0625 122.136719 C 218.28125 122.554688 218.507812 122.976562 218.722656 123.390625 C 220.722656 127.207031 222.402344 130.902344 220.988281 134.183594 Z M 202.589844 148.09375 C 196.96875 145.972656 194.40625 141.726562 193.613281 140.136719 C 195.226562 139.378906 199.882812 137.597656 205.667969 139.070312 C 205.664062 139.074219 205.65625 139.082031 205.644531 139.089844 C 203.480469 141.0625 202.320312 144.53125 202.589844 148.09375 Z M 192.707031 139.457031 C 192.472656 139.582031 192.375 139.867188 192.480469 140.109375 C 192.964844 141.214844 195.707031 146.792969 202.726562 149.21875 C 202.910156 150.355469 203.238281 151.425781 203.691406 152.375 C 197.070312 151.722656 189.128906 146.84375 186.714844 138.613281 C 186.359375 137.421875 186.136719 136.1875 186.046875 134.9375 C 186.027344 134.703125 186.015625 134.46875 186.011719 134.234375 C 186.003906 134.09375 186.003906 133.957031 186.003906 133.820312 C 186.003906 133.710938 186 133.601562 186 133.488281 L 186 133.375 C 186.003906 133.175781 186.003906 132.980469 186.015625 132.785156 C 186.019531 132.667969 186.027344 132.558594 186.035156 132.449219 C 186.042969 132.316406 186.054688 132.1875 186.0625 132.058594 C 186.066406 131.960938 186.078125 131.871094 186.085938 131.78125 C 186.09375 131.640625 186.113281 131.5 186.132812 131.355469 C 186.136719 131.277344 186.148438 131.191406 186.15625 131.113281 C 186.167969 131.035156 186.179688 130.957031 186.191406 130.882812 C 186.214844 130.695312 186.242188 130.507812 186.273438 130.316406 C 186.28125 130.261719 186.296875 130.203125 186.300781 130.144531 C 186.34375 129.917969 186.386719 129.695312 186.433594 129.464844 L 186.464844 129.3125 C 186.5 129.160156 186.53125 129.007812 186.566406 128.863281 C 186.636719 128.578125 186.710938 128.296875 186.792969 128.019531 C 186.835938 127.875 186.875 127.730469 186.921875 127.589844 C 186.980469 127.398438 187.035156 127.214844 187.101562 127.023438 C 187.109375 127 187.117188 126.980469 187.121094 126.957031 C 187.199219 127.191406 187.289062 127.425781 187.382812 127.65625 C 187.386719 127.664062 187.390625 127.679688 187.398438 127.691406 C 187.699219 128.402344 188.078125 129.070312 188.535156 129.671875 C 188.792969 130.007812 189.0625 130.320312 189.347656 130.605469 C 192.128906 133.363281 196.285156 133.632812 200.664062 133.667969 C 200.949219 133.671875 201.230469 133.671875 201.511719 133.671875 L 201.769531 133.671875 C 203.21875 133.675781 204.71875 133.679688 206.117188 133.785156 C 209.621094 134.042969 211.828125 134.929688 213.273438 136.644531 C 213.371094 136.757812 213.460938 136.882812 213.550781 137.007812 C 211.792969 136.886719 210.371094 136.980469 209.125 137.285156 C 209.125 137.285156 209.121094 137.289062 209.117188 137.289062 C 209.117188 137.289062 209.113281 137.289062 209.113281 137.289062 C 209.109375 137.292969 209.101562 137.292969 209.097656 137.292969 C 208.199219 137.515625 207.417969 137.847656 206.710938 138.296875 C 199.511719 136.164062 193.789062 138.882812 192.707031 139.457031 Z M 200.6875 132.5625 C 200.703125 132.59375 200.714844 132.621094 200.730469 132.65625 L 200.667969 132.65625 C 196.101562 132.628906 191.800781 132.324219 189.34375 129.066406 C 188.527344 127.984375 187.984375 126.679688 187.730469 125.183594 C 187.722656 125.128906 187.699219 125.078125 187.675781 125.03125 C 187.660156 125.003906 187.644531 124.980469 187.625 124.960938 C 187.609375 124.941406 187.597656 124.917969 187.578125 124.902344 C 187.558594 124.882812 187.542969 124.875 187.519531 124.859375 C 187.496094 124.839844 187.472656 124.824219 187.445312 124.808594 C 187.425781 124.800781 187.402344 124.800781 187.382812 124.789062 C 187.351562 124.78125 187.324219 124.765625 187.289062 124.761719 C 187.265625 124.761719 187.246094 124.761719 187.226562 124.761719 C 187.089844 124.761719 186.960938 124.816406 186.863281 124.917969 C 186.863281 124.921875 186.855469 124.925781 186.851562 124.929688 C 186.828125 124.957031 186.8125 124.984375 186.800781 125.011719 C 186.785156 125.03125 186.769531 125.046875 186.761719 125.070312 C 186.683594 125.257812 186.582031 125.507812 186.46875 125.800781 C 186.441406 125.882812 186.40625 125.964844 186.375 126.050781 C 186.316406 126.207031 186.253906 126.371094 186.195312 126.546875 C 186.1875 126.574219 186.175781 126.601562 186.167969 126.628906 C 186.132812 126.738281 186.09375 126.84375 186.058594 126.960938 C 186.054688 126.980469 186.042969 127 186.039062 127.023438 C 186.011719 127.101562 185.988281 127.179688 185.964844 127.257812 C 185.949219 127.308594 185.9375 127.355469 185.921875 127.398438 C 185.382812 126.328125 185.070312 125.421875 184.910156 124.867188 C 186.726562 124.375 192.105469 123.351562 197.972656 126.460938 C 198.03125 126.484375 198.085938 126.515625 198.15625 126.558594 C 198.644531 126.824219 199.085938 127.128906 199.472656 127.453125 C 199.648438 129.277344 200.054688 130.996094 200.6875 132.5625 Z M 199.972656 120.257812 C 197.683594 118.691406 194.511719 118.210938 191.167969 117.714844 L 190.8125 117.660156 C 187.773438 114.828125 186.59375 111.582031 186.238281 110.355469 C 187.289062 110.070312 189.535156 109.621094 192.367188 109.882812 C 194.789062 110.109375 197.121094 110.808594 199.28125 111.957031 L 199.484375 112.066406 C 200.144531 112.425781 200.71875 112.84375 201.183594 113.308594 C 201.574219 113.6875 201.890625 114.109375 202.144531 114.5625 C 201.277344 116.152344 200.589844 117.863281 200.125 119.65625 C 200.09375 119.761719 200.066406 119.867188 200.042969 119.972656 C 200.039062 119.988281 200.035156 120.003906 200.027344 120.019531 C 200.007812 120.097656 199.992188 120.179688 199.972656 120.257812 Z M 206.570312 132.808594 C 206.550781 132.691406 206.53125 132.574219 206.507812 132.445312 C 205.398438 125.945312 208.308594 121.277344 209.320312 119.882812 C 210.527344 120.796875 213.558594 123.453125 215.207031 128.039062 C 215.570312 129.050781 215.847656 130.109375 216.035156 131.191406 L 216.066406 131.40625 C 216.308594 132.910156 216.132812 134.289062 215.558594 135.386719 C 215.296875 135.890625 214.964844 136.328125 214.5625 136.695312 C 214.402344 136.453125 214.230469 136.21875 214.046875 135.996094 C 212.050781 133.632812 209.058594 133.027344 206.570312 132.808594 Z M 212.890625 105.304688 C 213.476562 103.210938 214.335938 101.695312 214.824219 100.9375 C 215.550781 101.429688 216.855469 102.4375 218.191406 104.003906 C 216.53125 104.214844 214.921875 104.589844 213.40625 105.113281 C 213.226562 105.175781 213.058594 105.238281 212.890625 105.304688 Z M 216.585938 116.839844 C 215.539062 114.308594 214.703125 111.183594 216.082031 108.183594 C 216.652344 106.945312 217.535156 105.835938 218.703125 104.882812 C 218.75 104.851562 218.78125 104.808594 218.808594 104.761719 C 220.15625 106.523438 221.453125 108.863281 222.136719 111.871094 L 222.183594 112.085938 C 220.109375 113.324219 218.207031 114.933594 216.585938 116.839844 Z M 207.078125 101.203125 C 205.835938 99.894531 204.300781 98.648438 202.804688 97.4375 C 202.378906 97.09375 201.953125 96.742188 201.53125 96.394531 C 202.578125 92.472656 204.761719 89.976562 205.703125 89.050781 C 206.597656 89.984375 208.429688 92.191406 209.570312 95.535156 C 208.417969 97.234375 207.570312 99.160156 207.078125 101.203125 Z M 204.285156 81.769531 C 207.699219 79.691406 211.402344 79.210938 214.328125 79.261719 C 213.644531 79.761719 213.058594 80.332031 212.585938 80.972656 C 210.175781 84.210938 211.207031 88.277344 212.558594 92.199219 C 211.773438 92.875 211.042969 93.617188 210.390625 94.425781 C 210.359375 94.46875 210.328125 94.507812 210.296875 94.550781 C 208.882812 90.867188 206.730469 88.617188 206.066406 87.976562 C 205.875 87.796875 205.574219 87.792969 205.378906 87.964844 C 204.808594 88.472656 202.027344 91.121094 200.675781 95.683594 C 199.222656 94.441406 197.886719 93.152344 196.949219 91.753906 C 198.054688 87.570312 200.71875 83.941406 204.285156 81.769531 Z M 187.445312 92.214844 C 189.417969 88.402344 192.566406 85.894531 195.269531 84.328125 C 194.902344 85.179688 194.679688 86.042969 194.597656 86.910156 C 194.433594 88.691406 194.875 90.378906 195.949219 92.070312 C 195.957031 92.085938 195.964844 92.097656 195.976562 92.113281 C 197.433594 94.394531 199.84375 96.34375 202.167969 98.226562 C 203.925781 99.648438 205.578125 100.988281 206.828125 102.4375 C 206.511719 104.296875 206.484375 106.175781 206.753906 108.023438 C 206.785156 108.253906 206.828125 108.5 206.875 108.761719 C 206.484375 109.089844 206.097656 109.429688 205.738281 109.78125 C 205.628906 109.890625 205.527344 109.996094 205.421875 110.105469 C 205.367188 109.238281 205.222656 108.398438 204.996094 107.636719 C 204.972656 107.566406 204.949219 107.507812 204.925781 107.445312 C 204.917969 107.394531 204.898438 107.347656 204.875 107.296875 C 204.558594 106.371094 204.113281 105.554688 203.542969 104.886719 C 203.03125 104.289062 202.429688 103.8125 201.726562 103.433594 C 201.480469 103.050781 201.222656 102.679688 200.953125 102.320312 C 197.460938 97.675781 192.921875 96.070312 192.050781 95.792969 C 191.796875 95.714844 191.527344 95.839844 191.425781 96.085938 C 191.132812 96.796875 190.226562 99.335938 190.351562 102.808594 C 188.796875 102.941406 187.238281 103.042969 185.777344 102.980469 C 185.191406 99.253906 185.78125 95.445312 187.445312 92.214844 Z M 200.015625 102.785156 C 199.359375 102.609375 198.644531 102.492188 197.847656 102.4375 C 195.917969 102.296875 193.742188 102.5 191.644531 102.699219 C 191.550781 102.707031 191.457031 102.71875 191.363281 102.722656 C 191.273438 99.996094 191.875 97.875 192.199219 96.925781 C 193.585938 97.4375 197.136719 99.042969 200.015625 102.785156 Z M 177.199219 98.652344 C 177.527344 99.507812 177.96875 100.269531 178.507812 100.941406 C 180.027344 102.808594 182.1875 103.777344 185.304688 103.980469 C 187.09375 104.105469 189.015625 103.957031 190.902344 103.785156 C 190.90625 103.785156 190.90625 103.785156 190.910156 103.785156 L 190.925781 103.785156 C 191.195312 103.757812 191.464844 103.734375 191.734375 103.707031 C 193.890625 103.503906 195.925781 103.308594 197.773438 103.445312 C 200.09375 103.609375 201.683594 104.28125 202.765625 105.550781 C 203.316406 106.191406 203.734375 106.992188 204.019531 107.9375 C 204.320312 108.925781 204.453125 110.0625 204.414062 111.226562 C 203.800781 111.960938 203.234375 112.742188 202.71875 113.570312 C 202.480469 113.21875 202.207031 112.886719 201.890625 112.582031 C 201.363281 112.054688 200.714844 111.578125 199.972656 111.175781 L 199.765625 111.066406 C 199.191406 110.761719 198.605469 110.488281 198.015625 110.242188 C 196.234375 109.511719 194.375 109.050781 192.457031 108.875 C 188.902344 108.539062 186.207031 109.289062 185.460938 109.523438 C 185.210938 109.605469 185.0625 109.867188 185.121094 110.121094 C 185.28125 110.824219 186.167969 114.171875 189.121094 117.398438 C 186.96875 117.046875 185.035156 116.625 183.363281 115.84375 C 181.695312 115.058594 180.5 113.988281 179.71875 112.570312 C 179.125 111.5 178.792969 110.269531 178.730469 108.90625 C 178.714844 108.679688 178.558594 108.488281 178.339844 108.4375 C 178.125 108.386719 177.890625 108.484375 177.78125 108.679688 C 177.570312 109.050781 177.371094 109.429688 177.183594 109.816406 C 177.164062 109.761719 177.148438 109.710938 177.128906 109.648438 C 175.878906 105.597656 176.367188 101.640625 177.199219 98.652344 Z M 176.117188 117.472656 C 176.246094 115.4375 176.742188 113.386719 177.59375 111.367188 C 177.59375 111.367188 177.59375 111.367188 177.597656 111.367188 C 177.699219 111.113281 177.8125 110.867188 177.929688 110.617188 C 178.113281 111.492188 178.417969 112.308594 178.832031 113.0625 C 179.722656 114.671875 181.066406 115.882812 182.9375 116.757812 C 185.121094 117.785156 187.65625 118.21875 190.507812 118.640625 L 191.023438 118.71875 C 194.429688 119.226562 197.648438 119.707031 199.75 121.347656 C 199.457031 122.9375 199.335938 124.539062 199.382812 126.117188 C 199.148438 125.957031 198.898438 125.804688 198.636719 125.660156 C 198.566406 125.617188 198.496094 125.582031 198.433594 125.550781 C 191.582031 121.921875 185.320312 123.648438 184.132812 124.035156 C 183.882812 124.117188 183.734375 124.378906 183.792969 124.632812 C 183.90625 125.109375 184.359375 126.804688 185.535156 128.824219 C 185.519531 128.871094 185.511719 128.914062 185.5 128.960938 L 185.453125 129.183594 C 185.398438 129.449219 185.347656 129.710938 185.300781 129.976562 C 185.292969 130.03125 185.277344 130.085938 185.269531 130.148438 C 185.238281 130.34375 185.210938 130.539062 185.183594 130.738281 C 185.175781 130.804688 185.160156 130.875 185.152344 130.945312 C 185.152344 130.957031 185.152344 130.972656 185.148438 130.984375 C 185.140625 131.074219 185.128906 131.160156 185.121094 131.242188 C 185.105469 131.34375 185.097656 131.441406 185.089844 131.535156 C 185.082031 131.585938 185.078125 131.632812 185.074219 131.679688 C 185.0625 131.78125 185.054688 131.882812 185.046875 131.988281 C 185.042969 132.035156 185.039062 132.082031 185.039062 132.128906 C 185.035156 132.140625 185.035156 132.152344 185.035156 132.160156 C 185.035156 132.179688 185.03125 132.195312 185.03125 132.214844 C 185.023438 132.332031 185.011719 132.453125 185.011719 132.582031 C 185.007812 132.632812 185.007812 132.683594 185.003906 132.734375 C 185 132.777344 185 132.8125 185 132.855469 C 185 132.9375 185 133.027344 184.996094 133.117188 C 184.992188 133.246094 184.988281 133.375 184.988281 133.5 L 184.988281 133.53125 C 184.988281 133.707031 184.988281 133.878906 184.996094 134.054688 C 180.371094 131.164062 176.980469 126.078125 176.246094 120.855469 C 176.082031 119.742188 176.042969 118.605469 176.117188 117.472656 Z M 167.949219 115.304688 C 167.863281 114.414062 168.382812 113.761719 168.984375 113 C 169.628906 112.191406 170.347656 111.28125 170.382812 109.957031 C 170.410156 108.902344 169.988281 107.847656 169.125 106.808594 C 170.121094 106.917969 171.277344 107.242188 172.347656 108.003906 C 174.832031 109.769531 176.488281 113.691406 174.898438 116.097656 C 174.460938 116.753906 173.769531 117.34375 172.96875 117.699219 C 172.960938 117.703125 172.949219 117.707031 172.945312 117.707031 C 172.792969 117.757812 172.648438 117.808594 172.496094 117.859375 L 172.277344 117.9375 C 172.273438 117.941406 172.269531 117.941406 172.261719 117.945312 C 171.628906 118.105469 170.953125 118.109375 170.308594 117.898438 C 169.253906 117.550781 168.074219 116.523438 167.949219 115.304688 Z M 157.699219 121.898438 C 157.351562 121.074219 157.65625 120.292969 158.011719 119.390625 C 158.386719 118.433594 158.816406 117.351562 158.457031 116.078125 C 158.175781 115.0625 157.464844 114.175781 156.335938 113.429688 C 157.320312 113.246094 158.515625 113.21875 159.761719 113.632812 C 162.65625 114.597656 165.386719 117.863281 164.574219 120.628906 C 164.34375 121.386719 163.851562 122.15625 163.1875 122.730469 C 163.175781 122.746094 163.160156 122.753906 163.144531 122.765625 C 163.140625 122.769531 163.136719 122.769531 163.128906 122.773438 C 163.023438 122.847656 162.917969 122.925781 162.816406 123 L 162.667969 123.109375 C 162.664062 123.109375 162.660156 123.113281 162.660156 123.117188 C 162.644531 123.121094 162.636719 123.132812 162.621094 123.140625 C 162.609375 123.15625 162.59375 123.167969 162.574219 123.175781 C 162.019531 123.511719 161.382812 123.710938 160.707031 123.691406 C 159.601562 123.664062 158.171875 123.027344 157.699219 121.898438 Z M 153.226562 132.039062 C 152.160156 132.332031 150.605469 132.140625 149.820312 131.203125 C 149.25 130.519531 149.3125 129.679688 149.386719 128.710938 C 149.46875 127.691406 149.558594 126.527344 148.84375 125.414062 C 148.277344 124.523438 147.335938 123.882812 146.039062 123.5 C 146.929688 123.035156 148.058594 122.65625 149.375 122.691406 C 152.425781 122.765625 155.988281 125.089844 156.015625 127.976562 C 156.027344 128.757812 155.78125 129.621094 155.320312 130.367188 C 155.3125 130.382812 155.296875 130.394531 155.292969 130.410156 C 155.128906 130.617188 154.980469 130.816406 154.859375 130.988281 C 154.421875 131.472656 153.875 131.855469 153.226562 132.039062 Z M 148.507812 142.207031 C 147.574219 142.800781 146.035156 143.074219 145.007812 142.40625 C 144.257812 141.917969 144.078125 141.101562 143.867188 140.148438 C 143.640625 139.144531 143.390625 138.011719 142.382812 137.152344 C 141.59375 136.480469 140.539062 136.144531 139.226562 136.144531 L 139.144531 136.144531 C 139.859375 135.441406 140.835938 134.75 142.101562 134.394531 C 145.039062 133.578125 149.125 134.757812 149.996094 137.507812 C 150.21875 138.207031 150.246094 139.042969 150.070312 139.839844 C 149.945312 140.152344 149.832031 140.472656 149.71875 140.796875 L 149.671875 140.917969 C 149.398438 141.429688 149.015625 141.878906 148.507812 142.207031 Z M 148.746094 164.378906 C 148.304688 165.394531 147.179688 166.480469 145.957031 166.5 L 145.925781 166.5 C 145.050781 166.5 144.449219 165.929688 143.75 165.269531 C 143 164.5625 142.160156 163.761719 140.84375 163.613281 C 140.707031 163.59375 140.5625 163.589844 140.425781 163.589844 C 139.503906 163.589844 138.554688 163.925781 137.59375 164.59375 C 137.789062 163.605469 138.214844 162.488281 139.0625 161.488281 C 141.039062 159.167969 145.089844 157.859375 147.351562 159.648438 C 147.878906 160.070312 148.339844 160.675781 148.640625 161.363281 C 148.761719 161.890625 148.882812 162.359375 149 162.792969 C 149.035156 163.328125 148.964844 163.871094 148.746094 164.378906 Z M 153.679688 174.441406 C 153.554688 175.542969 152.796875 176.914062 151.632812 177.285156 C 150.78125 177.5625 150.027344 177.1875 149.164062 176.753906 C 148.242188 176.296875 147.195312 175.78125 145.898438 176.023438 C 144.859375 176.21875 143.917969 176.847656 143.074219 177.90625 C 142.980469 176.910156 143.054688 175.714844 143.574219 174.507812 C 144.589844 172.167969 147.199219 170.078125 149.601562 170.078125 C 150.066406 170.078125 150.527344 170.15625 150.964844 170.328125 C 151.582031 170.570312 152.179688 171.003906 152.660156 171.550781 C 152.929688 172.011719 153.191406 172.449219 153.46875 172.878906 C 153.65625 173.375 153.742188 173.902344 153.679688 174.441406 Z M 154.398438 172.445312 C 154.183594 171.894531 153.863281 171.386719 153.488281 170.945312 C 151.992188 168.347656 150.824219 165.554688 150.011719 162.640625 C 149.964844 162.078125 149.820312 161.53125 149.601562 161.023438 C 149.003906 158.390625 148.699219 155.671875 148.699219 152.949219 C 148.699219 152.515625 148.703125 152.1875 148.714844 151.863281 C 148.796875 151.421875 148.816406 150.96875 148.785156 150.519531 C 148.988281 147.417969 149.59375 144.339844 150.589844 141.359375 C 150.796875 140.960938 150.949219 140.535156 151.050781 140.105469 C 152.1875 137.109375 153.722656 134.277344 155.609375 131.683594 C 155.824219 131.445312 156.019531 131.1875 156.183594 130.914062 C 158.171875 128.320312 160.511719 126.003906 163.136719 124.019531 C 163.378906 123.875 163.605469 123.707031 163.816406 123.527344 C 166.5 121.601562 169.433594 120.050781 172.535156 118.921875 C 172.824219 118.851562 173.101562 118.75 173.367188 118.632812 C 173.921875 118.449219 174.488281 118.273438 175.066406 118.117188 C 175.042969 119.082031 175.09375 120.046875 175.226562 121 C 176.042969 126.828125 179.804688 132.269531 185.058594 135.277344 C 185.164062 136.507812 185.386719 137.722656 185.734375 138.902344 C 188.359375 147.855469 196.835938 152.921875 204.046875 153.425781 C 203.832031 158.855469 201.363281 163.902344 197.210938 167.324219 C 193.40625 170.464844 188.777344 171.824219 184.5 171.066406 C 179.175781 170.113281 174.089844 165.574219 172.113281 159.277344 C 172.109375 159.234375 172.097656 159.191406 172.082031 159.144531 C 172.078125 159.140625 172.074219 159.132812 172.066406 159.121094 C 171.476562 157.1875 171.179688 155.089844 171.257812 152.878906 C 171.96875 154.25 173.203125 155.894531 175.210938 156.578125 C 175.757812 156.765625 176.335938 156.859375 176.925781 156.882812 C 177.816406 157.875 178.597656 158.957031 179.242188 160.109375 C 180.605469 162.527344 181.394531 165.199219 181.582031 168.0625 L 181.582031 168.070312 C 181.589844 168.125 181.601562 168.175781 181.621094 168.21875 C 181.621094 168.230469 181.625 168.238281 181.632812 168.246094 C 181.65625 168.292969 181.683594 168.335938 181.714844 168.375 C 181.71875 168.375 181.722656 168.378906 181.722656 168.382812 C 181.761719 168.414062 181.800781 168.445312 181.847656 168.46875 C 181.851562 168.472656 181.855469 168.476562 181.863281 168.476562 C 181.894531 168.496094 181.929688 168.507812 181.964844 168.515625 C 181.980469 168.515625 181.992188 168.515625 182.003906 168.519531 C 182.007812 168.519531 182.019531 168.523438 182.027344 168.527344 C 182.046875 168.527344 182.070312 168.527344 182.085938 168.527344 C 182.144531 168.527344 182.199219 168.519531 182.25 168.503906 C 182.265625 168.496094 182.277344 168.484375 182.292969 168.476562 C 182.328125 168.464844 182.363281 168.449219 182.390625 168.425781 C 182.410156 168.414062 182.421875 168.398438 182.4375 168.378906 C 182.460938 168.359375 182.484375 168.335938 182.507812 168.308594 C 182.519531 168.289062 182.527344 168.265625 182.535156 168.246094 C 182.550781 168.222656 182.5625 168.203125 182.570312 168.179688 C 183.414062 165.597656 183.867188 162.921875 183.921875 160.21875 C 183.957031 158.105469 183.742188 155.988281 183.289062 153.921875 C 184.410156 152.722656 185.210938 151.332031 185.597656 149.878906 C 186.707031 145.769531 184.355469 141.601562 181.460938 139.601562 C 178.769531 137.75 174.960938 137.410156 171.269531 138.6875 C 167.355469 140.046875 164.140625 143.167969 162.453125 147.25 C 162.109375 148.078125 161.800781 148.929688 161.527344 149.789062 C 161.476562 149.949219 160.3125 153.769531 160.207031 158 C 160.207031 158.1875 160.203125 158.382812 160.203125 158.570312 C 160.203125 158.761719 160.207031 158.953125 160.207031 159.140625 L 160.207031 159.148438 C 160.226562 160.09375 160.292969 161.03125 160.398438 161.960938 C 160.398438 161.972656 160.398438 161.984375 160.398438 161.996094 C 160.398438 162.003906 160.40625 162.015625 160.40625 162.027344 C 160.863281 165.882812 162.085938 169.59375 163.953125 172.949219 C 163.957031 172.964844 163.957031 172.976562 163.960938 172.992188 C 163.984375 173.054688 164.023438 173.113281 164.066406 173.164062 C 165.964844 176.5 168.515625 179.476562 171.601562 181.878906 C 170.089844 182.039062 167.875 182.457031 165.519531 183.515625 C 164.085938 182.605469 162.710938 181.597656 161.441406 180.515625 C 161.070312 180.046875 160.617188 179.648438 160.117188 179.328125 C 157.945312 177.296875 156.019531 174.972656 154.398438 172.445312 Z M 192.671875 202.585938 C 192.710938 202.609375 192.75 202.640625 192.792969 202.664062 C 193.625 203.144531 194.503906 203.4375 195.417969 203.609375 C 196.0625 205.21875 196.234375 206.722656 195.917969 208.078125 C 195.550781 209.65625 194.652344 210.601562 193.019531 212.320312 C 192.390625 212.988281 191.675781 213.734375 190.851562 214.671875 C 189.683594 216 188.566406 217.394531 187.523438 218.8125 C 186.480469 217.390625 185.363281 216.003906 184.195312 214.671875 C 183.367188 213.738281 182.660156 212.988281 182.03125 212.324219 C 180.394531 210.601562 179.5 209.652344 179.125 208.078125 C 178.808594 206.730469 178.972656 205.238281 179.601562 203.640625 C 180.5625 203.480469 181.492188 203.183594 182.363281 202.683594 C 182.03125 203.890625 182.03125 204.984375 182.371094 205.957031 C 182.695312 206.890625 183.15625 207.410156 184.523438 208.949219 L 185.191406 209.707031 C 185.863281 210.46875 186.503906 211.273438 187.09375 212.097656 C 187.183594 212.242188 187.347656 212.332031 187.523438 212.332031 C 187.703125 212.332031 187.867188 212.238281 187.960938 212.082031 C 188.546875 211.265625 189.183594 210.46875 189.855469 209.707031 L 190.316406 209.183594 C 191.910156 207.378906 192.339844 206.890625 192.675781 205.960938 C 193.03125 204.96875 193.023438 203.835938 192.671875 202.585938 Z M 191.71875 205.617188 C 191.449219 206.363281 191.082031 206.777344 189.550781 208.511719 L 189.089844 209.03125 C 188.542969 209.65625 188.019531 210.304688 187.523438 210.960938 C 187.03125 210.304688 186.503906 209.65625 185.957031 209.03125 L 185.285156 208.273438 C 183.984375 206.808594 183.59375 206.367188 183.332031 205.621094 C 182.941406 204.507812 183.125 203.144531 183.871094 201.558594 C 185.707031 199.816406 186.957031 197.039062 187.601562 193.253906 C 188.21875 196.886719 189.390625 199.597656 191.105469 201.34375 C 191.929688 203.015625 192.136719 204.457031 191.71875 205.617188 Z M 173.308594 181.882812 C 169.980469 179.535156 167.242188 176.519531 165.214844 173.09375 C 167.242188 172.328125 169.183594 171.332031 170.980469 170.125 C 172.472656 169.121094 173.871094 167.96875 175.152344 166.695312 C 177.570312 169.460938 180.742188 171.425781 184.332031 172.070312 C 188.894531 172.886719 193.832031 171.445312 197.867188 168.113281 C 202.003906 164.699219 204.550781 159.761719 205.011719 154.402344 C 206.464844 156.09375 208.566406 157.316406 211.285156 158.039062 C 212.570312 158.375 213.921875 158.546875 215.308594 158.546875 C 217.082031 158.546875 218.917969 158.273438 220.757812 157.722656 C 219.542969 166.976562 214.875 175.277344 207.546875 181.167969 C 207.53125 181.175781 207.511719 181.191406 207.492188 181.203125 C 206.925781 181.621094 206.335938 182.015625 205.734375 182.390625 C 203.402344 183.863281 200.875 185.015625 198.21875 185.804688 C 198.175781 185.820312 193.851562 187.089844 189.734375 187.089844 C 189.015625 187.089844 188.308594 187.0625 187.636719 187.011719 C 182.480469 186.640625 177.523438 184.867188 173.308594 181.882812 Z M 180.371094 156.117188 C 181.089844 155.773438 181.785156 155.316406 182.429688 154.765625 C 182.785156 156.5625 182.945312 158.386719 182.910156 160.210938 C 182.894531 160.8125 182.859375 161.410156 182.808594 162.003906 C 182.757812 161.722656 182.699219 161.445312 182.636719 161.171875 C 182.210938 159.375 181.429688 157.640625 180.371094 156.117188 Z M 182.011719 164.292969 C 181.59375 162.65625 180.96875 161.085938 180.136719 159.609375 C 179.582031 158.625 178.933594 157.6875 178.207031 156.808594 C 178.605469 156.742188 179.007812 156.644531 179.402344 156.511719 C 180.460938 157.976562 181.238281 159.660156 181.648438 161.40625 C 181.890625 162.425781 181.992188 163.402344 182.011719 164.292969 Z M 182.382812 153.421875 C 181.492188 154.328125 180.476562 155.007812 179.433594 155.421875 C 179.410156 155.429688 179.382812 155.4375 179.359375 155.449219 C 178.632812 155.726562 177.890625 155.882812 177.171875 155.882812 C 176.605469 155.886719 176.058594 155.800781 175.550781 155.625 C 172.675781 154.640625 171.628906 151.253906 171.445312 150.582031 C 171.386719 150.347656 171.164062 150.191406 170.925781 150.210938 C 170.683594 150.226562 170.488281 150.40625 170.453125 150.644531 C 170.039062 153.527344 170.277344 156.390625 171.03125 159.046875 C 169.558594 159.65625 168.039062 160.167969 166.496094 160.558594 C 164.820312 160.980469 163.097656 161.261719 161.375 161.414062 C 161.296875 160.660156 161.246094 159.898438 161.234375 159.128906 C 161.234375 158.945312 161.230469 158.761719 161.230469 158.582031 C 161.230469 158.398438 161.234375 158.214844 161.234375 158.023438 C 161.335938 153.949219 162.5 150.136719 162.507812 150.105469 C 162.765625 149.273438 163.066406 148.453125 163.398438 147.65625 C 164.976562 143.835938 167.972656 140.925781 171.613281 139.664062 C 174.996094 138.488281 178.464844 138.785156 180.894531 140.453125 C 183.496094 142.246094 185.613281 145.976562 184.625 149.632812 C 184.261719 150.972656 183.46875 152.320312 182.382812 153.421875 Z M 166.742188 161.539062 C 168.304688 161.148438 169.84375 160.628906 171.335938 160.015625 C 172.070312 162.175781 173.140625 164.179688 174.5 165.914062 C 173.25 167.164062 171.882812 168.300781 170.417969 169.28125 C 168.640625 170.472656 166.722656 171.445312 164.710938 172.195312 C 163.070312 169.175781 161.964844 165.867188 161.492188 162.417969 C 163.261719 162.265625 165.027344 161.972656 166.742188 161.539062 Z M 162.351562 182.539062 C 163.035156 183.0625 163.742188 183.5625 164.464844 184.042969 C 163.535156 184.535156 162.59375 185.136719 161.683594 185.867188 C 162.351562 184.867188 162.519531 183.566406 162.351562 182.539062 Z M 160.214844 185.945312 C 159.484375 186.457031 158.652344 186.316406 157.695312 186.15625 C 156.683594 185.992188 155.535156 185.796875 154.359375 186.410156 C 153.425781 186.898438 152.703125 187.785156 152.210938 189.039062 C 151.824219 188.113281 151.546875 186.949219 151.695312 185.640625 C 152.027344 182.707031 154.5 179.472656 157.265625 179.472656 C 157.351562 179.472656 157.445312 179.476562 157.535156 179.480469 C 158.195312 179.535156 158.894531 179.769531 159.515625 180.15625 C 159.925781 180.539062 160.308594 180.882812 160.6875 181.203125 C 161.003906 181.613281 161.234375 182.089844 161.335938 182.625 C 161.542969 183.710938 161.21875 185.246094 160.214844 185.945312 Z M 171.839844 201.996094 C 167.679688 201.171875 163.378906 200.328125 160.023438 203.003906 C 158.910156 203.890625 158.023438 205.066406 157.378906 206.511719 C 155.105469 200.507812 156.054688 193.765625 159.921875 189.03125 C 161.671875 186.894531 163.722656 185.488281 165.695312 184.5625 C 165.710938 184.558594 165.730469 184.546875 165.746094 184.539062 C 168.769531 183.132812 171.601562 182.859375 172.871094 182.8125 C 177.070312 185.746094 181.972656 187.527344 187.082031 187.984375 C 186.851562 195.289062 185.109375 199.933594 181.902344 201.789062 C 181.046875 202.28125 180.128906 202.5625 179.15625 202.695312 C 179.148438 202.695312 179.132812 202.695312 179.121094 202.699219 C 176.898438 202.988281 174.417969 202.503906 171.839844 201.996094 Z M 200.132812 210.480469 C 199.589844 212.847656 198.25 214.261719 195.8125 216.828125 C 194.882812 217.808594 193.828125 218.914062 192.609375 220.304688 C 190.816406 222.335938 189.113281 224.472656 187.523438 226.652344 C 185.9375 224.472656 184.226562 222.335938 182.433594 220.304688 C 181.214844 218.917969 180.164062 217.808594 179.230469 216.828125 C 176.796875 214.261719 175.457031 212.847656 174.910156 210.480469 C 174.4375 208.417969 174.71875 206.128906 175.742188 203.679688 C 176.667969 203.78125 177.582031 203.824219 178.46875 203.773438 C 177.917969 205.378906 177.808594 206.902344 178.136719 208.3125 C 178.570312 210.160156 179.59375 211.238281 181.292969 213.027344 C 181.914062 213.683594 182.621094 214.429688 183.429688 215.347656 C 184.726562 216.820312 185.953125 218.367188 187.085938 219.949219 C 187.179688 220.101562 187.34375 220.195312 187.527344 220.195312 C 187.710938 220.195312 187.882812 220.09375 187.96875 219.929688 C 189.101562 218.351562 190.328125 216.8125 191.613281 215.347656 C 192.425781 214.429688 193.132812 213.683594 193.753906 213.027344 C 195.453125 211.234375 196.480469 210.15625 196.90625 208.3125 C 197.238281 206.902344 197.117188 205.375 196.558594 203.761719 C 197.453125 203.828125 198.378906 203.792969 199.308594 203.699219 C 200.328125 206.136719 200.605469 208.421875 200.132812 210.480469 Z M 215.277344 189.03125 C 219.152344 193.765625 220.101562 200.507812 217.824219 206.515625 C 217.183594 205.070312 216.296875 203.894531 215.179688 203.003906 C 211.824219 200.324219 207.523438 201.175781 203.367188 201.992188 C 202.109375 202.242188 200.878906 202.480469 199.691406 202.632812 C 199.605469 202.617188 199.515625 202.628906 199.429688 202.664062 C 197.195312 202.921875 195.109375 202.824219 193.300781 201.78125 C 190.320312 200.070312 188.601562 195.9375 188.191406 189.503906 C 188.164062 189.042969 188.140625 188.554688 188.125 188.054688 C 188.648438 188.082031 189.1875 188.105469 189.734375 188.105469 C 194.003906 188.105469 198.328125 186.832031 198.507812 186.78125 C 201.183594 185.976562 203.734375 184.828125 206.09375 183.363281 C 208.71875 184.019531 212.425781 185.535156 215.277344 189.03125 Z M 219.550781 169.519531 C 217.085938 174.761719 213.390625 179.480469 208.855469 183.191406 C 208.316406 182.976562 207.796875 182.796875 207.300781 182.648438 C 207.570312 182.441406 207.839844 182.234375 208.097656 182.023438 L 208.148438 181.988281 C 208.175781 181.96875 208.199219 181.949219 208.226562 181.929688 C 208.242188 181.921875 208.253906 181.90625 208.269531 181.898438 C 215.886719 175.738281 220.683594 167.046875 221.824219 157.371094 C 222.238281 157.230469 222.644531 157.070312 223.046875 156.902344 C 222.597656 161.296875 221.417969 165.539062 219.550781 169.519531 Z M 233.214844 136.789062 C 233.933594 136.105469 234.546875 135.300781 235.046875 134.386719 C 235.492188 137.558594 235.425781 141.742188 233.4375 145.917969 C 231.132812 150.753906 226.554688 154.71875 221.191406 156.519531 C 217.839844 157.648438 214.5 157.835938 211.542969 157.054688 C 208.484375 156.242188 206.285156 154.773438 205.011719 152.6875 C 205.011719 152.6875 205.011719 152.683594 205.007812 152.683594 C 204.339844 151.589844 203.882812 150.238281 203.679688 148.773438 C 203.195312 145.253906 204.234375 141.75 206.332031 139.839844 C 206.480469 139.703125 206.640625 139.570312 206.820312 139.441406 C 206.894531 139.386719 206.96875 139.332031 207.058594 139.273438 C 207.714844 138.828125 208.449219 138.507812 209.304688 138.292969 C 209.304688 138.292969 209.308594 138.292969 209.308594 138.292969 C 209.3125 138.292969 209.316406 138.292969 209.316406 138.289062 C 209.320312 138.289062 209.324219 138.289062 209.332031 138.285156 C 210.644531 137.964844 212.1875 137.898438 214.21875 138.089844 C 214.269531 138.089844 214.320312 138.09375 214.371094 138.105469 L 214.472656 138.109375 C 214.640625 138.128906 214.816406 138.144531 214.992188 138.167969 C 216.03125 138.285156 217.121094 138.453125 218.140625 138.617188 C 218.148438 138.617188 218.164062 138.617188 218.175781 138.617188 C 218.191406 138.617188 218.203125 138.621094 218.222656 138.621094 C 218.226562 138.621094 218.238281 138.617188 218.246094 138.617188 C 218.25 138.617188 218.265625 138.621094 218.273438 138.621094 C 218.28125 138.625 218.292969 138.625 218.304688 138.628906 C 218.316406 138.632812 218.328125 138.636719 218.347656 138.644531 C 218.363281 138.644531 218.375 138.652344 218.390625 138.652344 L 218.550781 138.679688 C 222.507812 139.320312 226.59375 139.976562 230.003906 138.753906 C 231.222656 138.316406 232.304688 137.65625 233.214844 136.789062 Z M 236.445312 112.738281 C 232.195312 115.851562 232.082031 121.410156 231.976562 126.785156 C 231.890625 131.164062 231.800781 135.300781 229.539062 137.835938 C 226.601562 138.84375 223.003906 138.363281 219.464844 137.800781 C 219.550781 137.726562 219.636719 137.652344 219.71875 137.578125 C 222.019531 137.5 224.035156 136.046875 225.277344 133.5625 L 225.375 133.359375 C 228.757812 126.375 226.800781 120.183594 226.378906 119.007812 C 226.285156 118.761719 226.023438 118.621094 225.769531 118.691406 C 225.179688 118.851562 222.238281 119.734375 219.316406 122.332031 C 219.195312 122.105469 219.078125 121.882812 218.957031 121.65625 C 218.546875 120.878906 218.121094 120.074219 217.71875 119.28125 L 217.59375 119.035156 C 217.421875 118.691406 217.230469 118.289062 217.042969 117.886719 C 219.828125 114.457031 223.53125 111.984375 227.507812 110.902344 C 231.972656 109.6875 236.097656 110.363281 239.140625 111.367188 C 238.152344 111.691406 237.25 112.152344 236.445312 112.738281 Z M 227.964844 146.023438 C 227.398438 145.523438 222.214844 141.152344 214.332031 142.199219 C 214.054688 142.234375 213.777344 142.28125 213.5 142.332031 C 209.042969 143.128906 207.484375 146.394531 207.925781 149.09375 C 208.320312 151.507812 210.417969 153.882812 214.125 153.882812 C 214.496094 153.882812 214.878906 153.859375 215.277344 153.808594 L 215.511719 153.777344 C 223.195312 152.746094 227.289062 147.707031 228.035156 146.703125 C 228.191406 146.496094 228.160156 146.195312 227.964844 146.023438 Z M 215.386719 152.769531 L 215.160156 152.796875 C 212.519531 153.121094 209.441406 152.050781 208.933594 148.929688 C 208.566406 146.703125 209.898438 144.007812 213.675781 143.328125 C 213.9375 143.285156 214.203125 143.242188 214.46875 143.207031 C 215.265625 143.097656 216.027344 143.050781 216.761719 143.050781 C 222.074219 143.050781 225.734375 145.542969 226.925781 146.476562 C 225.734375 147.9375 221.949219 151.890625 215.386719 152.769531 Z M 210.539062 191.460938 C 209.734375 190.792969 205.382812 187.5 198.894531 188.207031 L 198.710938 188.230469 C 194.949219 188.679688 193.429688 191.332031 193.609375 193.613281 C 193.785156 195.816406 195.554688 198.082031 199.039062 198.082031 C 199.214844 198.082031 199.394531 198.078125 199.582031 198.066406 C 199.8125 198.046875 200.046875 198.03125 200.28125 198.003906 C 206.917969 197.277344 210.273438 192.667969 210.636719 192.144531 C 210.785156 191.925781 210.746094 191.632812 210.539062 191.460938 Z M 200.171875 196.996094 C 199.949219 197.019531 199.726562 197.039062 199.511719 197.050781 C 196.359375 197.253906 194.769531 195.367188 194.625 193.53125 C 194.421875 190.953125 196.664062 189.496094 198.84375 189.234375 L 199.015625 189.214844 C 199.601562 189.15625 200.164062 189.121094 200.707031 189.121094 C 205.191406 189.121094 208.34375 191.082031 209.519531 191.949219 C 208.574219 193.136719 205.523438 196.40625 200.171875 196.996094 Z M 176.246094 188.230469 L 176.050781 188.207031 C 169.574219 187.503906 165.21875 190.796875 164.414062 191.460938 C 164.210938 191.632812 164.171875 191.925781 164.320312 192.140625 C 164.679688 192.664062 168.035156 197.273438 174.671875 198.003906 C 174.910156 198.027344 175.140625 198.046875 175.378906 198.0625 C 175.5625 198.070312 175.742188 198.078125 175.914062 198.078125 C 179.394531 198.078125 181.167969 195.816406 181.34375 193.609375 C 181.523438 191.332031 180 188.679688 176.246094 188.230469 Z M 180.332031 193.53125 C 180.183594 195.367188 178.597656 197.253906 175.449219 197.050781 C 175.230469 197.035156 175.007812 197.019531 174.78125 196.996094 C 169.425781 196.40625 166.378906 193.132812 165.4375 191.949219 C 166.757812 190.980469 170.554688 188.636719 175.929688 189.214844 L 176.117188 189.234375 C 178.292969 189.496094 180.535156 190.953125 180.332031 193.53125 Z M 178.335938 147.332031 C 177.546875 145.453125 175.867188 144.757812 175.371094 144.59375 C 175.132812 144.511719 174.871094 144.621094 174.753906 144.84375 C 174.589844 145.175781 173.8125 146.910156 174.679688 148.8125 C 175.558594 150.738281 177.402344 151.28125 177.765625 151.367188 C 177.808594 151.375 177.847656 151.382812 177.890625 151.382812 C 178.09375 151.382812 178.28125 151.257812 178.359375 151.0625 C 178.585938 150.492188 179.035156 149 178.335938 147.332031 Z M 177.5625 150.226562 C 177.003906 150 176.105469 149.480469 175.605469 148.386719 C 175.117188 147.3125 175.300781 146.304688 175.488281 145.738281 C 176.042969 146.011719 176.929688 146.605469 177.402344 147.722656 C 177.820312 148.722656 177.707031 149.664062 177.5625 150.226562 Z M 162.6875 117.824219 C 162.3125 116.933594 161.589844 116.160156 160.652344 115.660156 C 160.476562 115.566406 160.269531 115.585938 160.109375 115.703125 C 159.949219 115.820312 159.875 116.015625 159.910156 116.210938 C 160.042969 116.859375 160.042969 117.488281 159.914062 118.089844 C 159.800781 118.617188 159.613281 118.996094 159.449219 119.332031 C 159.214844 119.804688 158.988281 120.25 159.183594 120.824219 C 159.34375 121.300781 159.753906 121.71875 160.320312 121.972656 C 160.640625 122.113281 160.964844 122.1875 161.265625 122.1875 C 161.496094 122.1875 161.714844 122.144531 161.914062 122.0625 C 163.253906 121.492188 163.265625 119.210938 162.6875 117.824219 Z M 161.515625 121.125 C 161.332031 121.207031 161.027344 121.175781 160.738281 121.046875 C 160.449219 120.914062 160.214844 120.703125 160.144531 120.496094 C 160.089844 120.339844 160.160156 120.183594 160.359375 119.777344 C 160.539062 119.410156 160.765625 118.953125 160.90625 118.296875 C 160.984375 117.933594 161.027344 117.554688 161.027344 117.175781 C 161.304688 117.441406 161.566406 117.785156 161.75 118.21875 C 162.21875 119.332031 162.09375 120.882812 161.515625 121.125 Z M 159.09375 181.816406 C 158.257812 180.625 156.027344 181.085938 154.792969 181.941406 C 153.992188 182.492188 153.394531 183.363281 153.097656 184.382812 C 153.046875 184.570312 153.101562 184.777344 153.25 184.90625 C 153.347656 184.988281 153.464844 185.03125 153.585938 185.03125 C 153.65625 185.03125 153.722656 185.019531 153.789062 184.988281 C 154.390625 184.730469 155.007812 184.597656 155.617188 184.597656 L 155.625 184.597656 C 156.167969 184.597656 156.578125 184.703125 156.933594 184.796875 C 157.445312 184.929688 157.929688 185.050781 158.449219 184.746094 C 158.882812 184.492188 159.207031 183.996094 159.335938 183.390625 C 159.46875 182.796875 159.378906 182.21875 159.09375 181.816406 Z M 158.34375 183.179688 C 158.277344 183.492188 158.113281 183.765625 157.929688 183.875 C 157.878906 183.90625 157.820312 183.921875 157.746094 183.921875 C 157.621094 183.921875 157.453125 183.878906 157.183594 183.8125 C 156.785156 183.710938 156.292969 183.585938 155.625 183.585938 L 155.609375 183.585938 C 155.238281 183.585938 154.863281 183.621094 154.496094 183.699219 C 154.699219 183.375 154.980469 183.042969 155.363281 182.773438 C 156.355469 182.089844 157.898438 181.886719 158.257812 182.398438 C 158.378906 182.566406 158.414062 182.871094 158.34375 183.179688 Z M 153.34375 125.800781 C 152.722656 125.050781 151.804688 124.53125 150.761719 124.324219 C 150.570312 124.289062 150.371094 124.363281 150.253906 124.519531 C 150.140625 124.679688 150.125 124.890625 150.21875 125.066406 C 150.527344 125.644531 150.714844 126.246094 150.769531 126.859375 C 150.8125 127.402344 150.746094 127.816406 150.683594 128.183594 C 150.601562 128.707031 150.519531 129.199219 150.867188 129.6875 C 151.15625 130.101562 151.679688 130.378906 152.292969 130.457031 C 152.402344 130.472656 152.511719 130.480469 152.617188 130.480469 C 153.097656 130.480469 153.53125 130.339844 153.84375 130.082031 C 154.957031 129.140625 154.296875 126.957031 153.34375 125.800781 Z M 153.1875 129.300781 C 153.035156 129.429688 152.730469 129.488281 152.417969 129.453125 C 152.101562 129.410156 151.816406 129.273438 151.691406 129.097656 C 151.644531 129.035156 151.621094 128.960938 151.621094 128.851562 C 151.621094 128.734375 151.644531 128.578125 151.683594 128.351562 C 151.75 127.945312 151.832031 127.445312 151.773438 126.773438 C 151.746094 126.402344 151.671875 126.027344 151.5625 125.664062 C 151.902344 125.839844 152.261719 126.085938 152.558594 126.445312 C 153.328125 127.378906 153.664062 128.894531 153.1875 129.300781 Z M 151.8125 173.074219 C 151.363281 171.691406 149.085938 171.476562 147.660156 171.933594 C 146.734375 172.230469 145.90625 172.886719 145.320312 173.773438 C 145.21875 173.941406 145.214844 174.148438 145.316406 174.316406 C 145.421875 174.488281 145.609375 174.578125 145.808594 174.558594 C 146.460938 174.480469 147.089844 174.539062 147.675781 174.71875 C 148.199219 174.878906 148.558594 175.097656 148.871094 175.289062 C 149.238281 175.515625 149.585938 175.726562 150.015625 175.726562 C 150.117188 175.726562 150.222656 175.714844 150.335938 175.6875 C 150.828125 175.570312 151.28125 175.195312 151.582031 174.652344 C 151.882812 174.121094 151.964844 173.546875 151.8125 173.074219 Z M 150.695312 174.160156 C 150.539062 174.4375 150.308594 174.648438 150.101562 174.699219 C 149.9375 174.742188 149.789062 174.660156 149.402344 174.425781 C 149.050781 174.210938 148.617188 173.949219 147.976562 173.746094 C 147.617188 173.640625 147.246094 173.566406 146.863281 173.53125 C 147.152344 173.28125 147.519531 173.042969 147.964844 172.902344 C 149.113281 172.539062 150.648438 172.796875 150.84375 173.390625 C 150.910156 173.582031 150.851562 173.886719 150.695312 174.160156 Z M 146.734375 136.164062 C 145.925781 135.632812 144.894531 135.394531 143.839844 135.507812 C 143.640625 135.527344 143.476562 135.660156 143.414062 135.84375 C 143.351562 136.027344 143.394531 136.234375 143.535156 136.371094 C 144.003906 136.835938 144.359375 137.359375 144.585938 137.929688 C 144.789062 138.433594 144.847656 138.851562 144.894531 139.222656 C 144.964844 139.746094 145.03125 140.238281 145.511719 140.605469 C 145.8125 140.839844 146.21875 140.960938 146.664062 140.960938 C 146.800781 140.960938 146.949219 140.945312 147.097656 140.925781 C 147.699219 140.820312 148.199219 140.523438 148.46875 140.109375 C 149.253906 138.882812 147.992188 136.984375 146.734375 136.164062 Z M 147.609375 139.554688 C 147.5 139.722656 147.226562 139.867188 146.917969 139.917969 C 146.605469 139.972656 146.289062 139.925781 146.117188 139.796875 C 145.988281 139.695312 145.953125 139.53125 145.894531 139.082031 C 145.835938 138.675781 145.769531 138.167969 145.523438 137.550781 C 145.382812 137.203125 145.207031 136.867188 144.992188 136.550781 C 145.371094 136.621094 145.785156 136.753906 146.171875 137.011719 C 147.1875 137.671875 147.949219 139.027344 147.609375 139.554688 Z M 143.8125 160.28125 L 143.765625 160.28125 C 142.792969 160.296875 141.808594 160.675781 140.988281 161.363281 C 140.839844 161.488281 140.777344 161.6875 140.824219 161.878906 C 140.875 162.070312 141.03125 162.214844 141.222656 162.25 C 141.871094 162.371094 142.453125 162.609375 142.964844 162.953125 C 143.414062 163.257812 143.695312 163.574219 143.945312 163.851562 C 144.296875 164.242188 144.628906 164.621094 145.226562 164.65625 L 145.320312 164.65625 C 145.796875 164.65625 146.304688 164.429688 146.722656 164.03125 C 147.164062 163.605469 147.410156 163.082031 147.402344 162.589844 C 147.375 161.148438 145.308594 160.28125 143.8125 160.28125 Z M 146.019531 163.292969 C 145.785156 163.515625 145.5 163.65625 145.289062 163.636719 C 145.125 163.628906 145.003906 163.507812 144.703125 163.167969 C 144.425781 162.863281 144.085938 162.484375 143.535156 162.105469 C 143.226562 161.898438 142.890625 161.71875 142.539062 161.574219 C 142.886719 161.421875 143.308594 161.300781 143.777344 161.292969 C 144.988281 161.269531 146.375 161.976562 146.386719 162.601562 C 146.386719 162.808594 146.246094 163.078125 146.019531 163.292969 Z M 143.445312 148.003906 C 142.515625 147.726562 141.464844 147.804688 140.480469 148.21875 C 140.300781 148.296875 140.179688 148.472656 140.171875 148.667969 C 140.167969 148.859375 140.269531 149.046875 140.441406 149.136719 C 141.027344 149.441406 141.515625 149.839844 141.902344 150.316406 C 142.242188 150.738281 142.417969 151.121094 142.574219 151.460938 C 142.792969 151.9375 143.007812 152.398438 143.566406 152.605469 C 143.746094 152.675781 143.941406 152.707031 144.144531 152.707031 C 144.480469 152.707031 144.835938 152.617188 145.179688 152.445312 C 145.722656 152.167969 146.117188 151.742188 146.25 151.265625 C 146.65625 149.867188 144.890625 148.421875 143.445312 148.003906 Z M 145.277344 150.984375 C 145.222656 151.183594 145.007812 151.398438 144.726562 151.535156 C 144.4375 151.683594 144.125 151.730469 143.925781 151.65625 C 143.769531 151.597656 143.6875 151.445312 143.5 151.035156 C 143.328125 150.664062 143.117188 150.199219 142.699219 149.679688 C 142.460938 149.390625 142.199219 149.121094 141.898438 148.878906 C 142.277344 148.832031 142.710938 148.84375 143.164062 148.976562 C 144.320312 149.3125 145.449219 150.382812 145.277344 150.984375 Z M 173.957031 112.929688 C 173.859375 111.964844 173.394531 111.015625 172.644531 110.265625 C 172.507812 110.128906 172.300781 110.082031 172.113281 110.144531 C 171.929688 110.210938 171.800781 110.378906 171.78125 110.574219 C 171.710938 111.230469 171.53125 111.832031 171.234375 112.371094 C 170.96875 112.847656 170.679688 113.152344 170.425781 113.421875 C 170.058594 113.804688 169.71875 114.171875 169.730469 114.769531 C 169.746094 115.273438 170.019531 115.800781 170.484375 116.203125 C 170.898438 116.566406 171.375 116.761719 171.824219 116.761719 C 171.878906 116.761719 171.929688 116.761719 171.980469 116.753906 C 173.429688 116.601562 174.105469 114.421875 173.957031 112.929688 Z M 171.875 115.746094 C 171.671875 115.765625 171.386719 115.648438 171.152344 115.441406 C 170.910156 115.226562 170.75 114.953125 170.746094 114.742188 C 170.738281 114.570312 170.847656 114.445312 171.15625 114.117188 C 171.441406 113.820312 171.785156 113.445312 172.117188 112.859375 C 172.300781 112.53125 172.445312 112.1875 172.558594 111.820312 C 172.742188 112.15625 172.898438 112.566406 172.945312 113.027344 C 173.066406 114.234375 172.492188 115.675781 171.875 115.746094 Z M 171.875 115.746094 " fill-opacity="1" fill-rule="nonzero"/></g><g fill="#b60e0e" fill-opacity="1"><g transform="translate(125.147597, 268.144552)"><g><path d="M 6.859375 -8.515625 L 6.859375 -2.640625 C 6.859375 -1.992188 7.019531 -1.570312 7.34375 -1.375 C 7.675781 -1.1875 8.453125 -1.054688 9.671875 -0.984375 L 9.671875 0 L 1.34375 0 L 1.34375 -0.984375 C 2.46875 -1.078125 3.179688 -1.222656 3.484375 -1.421875 C 3.796875 -1.617188 3.953125 -2.023438 3.953125 -2.640625 L 3.953125 -16.640625 C 3.953125 -17.179688 3.8125 -17.585938 3.53125 -17.859375 C 3.257812 -18.128906 2.492188 -18.320312 1.234375 -18.4375 L 1.234375 -19.40625 L 10.109375 -19.40625 C 11.898438 -19.40625 13.359375 -18.960938 14.484375 -18.078125 C 15.617188 -17.203125 16.1875 -16.046875 16.1875 -14.609375 C 16.1875 -12.734375 15.503906 -11.25 14.140625 -10.15625 C 12.773438 -9.0625 11.066406 -8.515625 9.015625 -8.515625 Z M 6.859375 -18.28125 L 6.859375 -9.71875 L 8.234375 -9.71875 C 9.765625 -9.71875 10.90625 -10.109375 11.65625 -10.890625 C 12.414062 -11.679688 12.796875 -12.703125 12.796875 -13.953125 C 12.796875 -16.835938 11.453125 -18.28125 8.765625 -18.28125 Z M 6.859375 -18.28125 "/></g></g></g><g fill="#b60e0e" fill-opacity="1"><g transform="translate(143.621389, 268.144552)"><g><path d="M 1.28125 0 L 1.28125 -0.984375 C 2.382812 -0.984375 3.101562 -1.109375 3.4375 -1.359375 C 3.78125 -1.617188 3.953125 -2.023438 3.953125 -2.578125 L 3.953125 -16.578125 C 3.953125 -17.171875 3.757812 -17.601562 3.375 -17.875 C 2.988281 -18.144531 2.328125 -18.332031 1.390625 -18.4375 L 1.390625 -19.40625 L 9.890625 -19.40625 C 12.617188 -19.40625 14.96875 -18.550781 16.9375 -16.84375 C 18.914062 -15.144531 19.90625 -12.722656 19.90625 -9.578125 C 19.90625 -6.617188 18.882812 -4.28125 16.84375 -2.5625 C 14.8125 -0.851562 12.304688 0 9.328125 0 Z M 6.859375 -18.21875 L 6.859375 -3.34375 C 6.859375 -2.507812 7.097656 -1.929688 7.578125 -1.609375 C 8.054688 -1.285156 8.796875 -1.125 9.796875 -1.125 C 12.003906 -1.125 13.6875 -1.851562 14.84375 -3.3125 C 16 -4.769531 16.578125 -6.863281 16.578125 -9.59375 C 16.578125 -12.164062 15.894531 -14.253906 14.53125 -15.859375 C 13.164062 -17.472656 11.375 -18.28125 9.15625 -18.28125 C 8.207031 -18.28125 7.441406 -18.257812 6.859375 -18.21875 Z M 6.859375 -18.21875 "/></g></g></g><g fill="#b60e0e" fill-opacity="1"><g transform="translate(165.991116, 268.144552)"><g/></g></g><g fill="#b60e0e" fill-opacity="1"><g transform="translate(174.144076, 268.144552)"><g><path d="M 11.328125 0 L 11.328125 -0.984375 C 13.003906 -1.085938 13.84375 -1.347656 13.84375 -1.765625 C 13.84375 -1.960938 13.804688 -2.160156 13.734375 -2.359375 L 12.09375 -6.734375 L 5.296875 -6.734375 C 4.398438 -4.410156 3.953125 -2.894531 3.953125 -2.1875 C 3.953125 -1.507812 4.882812 -1.109375 6.75 -0.984375 L 6.75 0 L -0.5625 0 L -0.5625 -0.984375 C 0.1875 -1.035156 0.785156 -1.207031 1.234375 -1.5 C 1.691406 -1.800781 2.039062 -2.171875 2.28125 -2.609375 C 2.519531 -3.046875 3.367188 -5.140625 4.828125 -8.890625 L 9.015625 -19.6875 L 10.109375 -19.6875 L 16.578125 -2.9375 C 17.035156 -1.726562 17.984375 -1.078125 19.421875 -0.984375 L 19.421875 0 Z M 8.6875 -15.453125 L 5.796875 -7.9375 L 11.625 -7.9375 Z M 8.6875 -15.453125 "/></g></g></g><g fill="#b60e0e" fill-opacity="1"><g transform="translate(194.326611, 268.144552)"><g><path d="M 15.015625 0 C 13.015625 -3.144531 10.945312 -6.078125 8.8125 -8.796875 L 6.859375 -8.796875 L 6.859375 -2.640625 C 6.859375 -1.992188 7.007812 -1.582031 7.3125 -1.40625 C 7.625 -1.226562 8.367188 -1.085938 9.546875 -0.984375 L 9.546875 0 L 1.34375 0 L 1.34375 -0.984375 C 2.46875 -1.078125 3.179688 -1.222656 3.484375 -1.421875 C 3.796875 -1.617188 3.953125 -2.023438 3.953125 -2.640625 L 3.953125 -16.671875 C 3.953125 -17.265625 3.785156 -17.679688 3.453125 -17.921875 C 3.128906 -18.171875 2.425781 -18.34375 1.34375 -18.4375 L 1.34375 -19.40625 L 10.3125 -19.40625 C 12.175781 -19.40625 13.65625 -19 14.75 -18.1875 C 15.851562 -17.382812 16.40625 -16.25 16.40625 -14.78125 C 16.40625 -12.207031 14.828125 -10.460938 11.671875 -9.546875 C 12.316406 -8.722656 13.597656 -7.007812 15.515625 -4.40625 C 16.515625 -3.039062 17.144531 -2.25 17.40625 -2.03125 C 17.675781 -1.820312 17.988281 -1.609375 18.34375 -1.390625 C 18.695312 -1.171875 19.332031 -1.035156 20.25 -0.984375 L 20.25 0 Z M 6.859375 -18.28125 L 6.859375 -9.96875 L 8.65625 -9.96875 C 9.96875 -9.96875 11.023438 -10.382812 11.828125 -11.21875 C 12.640625 -12.0625 13.046875 -13.148438 13.046875 -14.484375 C 13.046875 -15.679688 12.703125 -16.613281 12.015625 -17.28125 C 11.328125 -17.945312 10.382812 -18.28125 9.1875 -18.28125 Z M 6.859375 -18.28125 "/></g></g></g><g fill="#b60e0e" fill-opacity="1"><g transform="translate(215.384024, 268.144552)"><g><path d="M 16.15625 -14.140625 C 15.957031 -14.890625 15.59375 -15.671875 15.0625 -16.484375 C 14.53125 -17.304688 14.066406 -17.816406 13.671875 -18.015625 C 13.285156 -18.222656 12.367188 -18.328125 10.921875 -18.328125 L 10.109375 -18.328125 L 10.109375 -2.828125 C 10.109375 -2.316406 10.269531 -1.914062 10.59375 -1.625 C 10.925781 -1.332031 11.8125 -1.117188 13.25 -0.984375 L 13.25 0 L 4.09375 0 L 4.09375 -0.984375 C 5.425781 -1.078125 6.273438 -1.226562 6.640625 -1.4375 C 7.003906 -1.644531 7.1875 -2.0625 7.1875 -2.6875 L 7.1875 -18.328125 L 6.40625 -18.328125 C 5.09375 -18.328125 4.238281 -18.257812 3.84375 -18.125 C 3.457031 -18 2.976562 -17.523438 2.40625 -16.703125 C 1.84375 -15.878906 1.429688 -15.023438 1.171875 -14.140625 L 0.1875 -14.140625 L 0.1875 -19.40625 L 17.109375 -19.40625 L 17.109375 -14.140625 Z M 16.15625 -14.140625 "/></g></g></g><g fill="#b60e0e" fill-opacity="1"><g transform="translate(234.117543, 268.144552)"><g><path d="M 3.15625 -0.984375 L 2.578125 0 L 1.484375 0 L 1.28125 -6.625 L 2.375 -6.625 C 3.488281 -2.726562 5.453125 -0.78125 8.265625 -0.78125 C 10.703125 -0.78125 11.921875 -1.921875 11.921875 -4.203125 C 11.921875 -4.878906 11.753906 -5.5 11.421875 -6.0625 C 11.097656 -6.632812 10.707031 -7.070312 10.25 -7.375 C 9.800781 -7.675781 9.128906 -7.992188 8.234375 -8.328125 C 6.429688 -8.984375 5.144531 -9.523438 4.375 -9.953125 C 3.613281 -10.390625 2.992188 -10.992188 2.515625 -11.765625 C 2.046875 -12.546875 1.8125 -13.476562 1.8125 -14.5625 C 1.8125 -16.03125 2.390625 -17.273438 3.546875 -18.296875 C 4.703125 -19.316406 6.085938 -19.828125 7.703125 -19.828125 C 9.117188 -19.828125 10.566406 -19.378906 12.046875 -18.484375 L 12.609375 -19.40625 L 13.6875 -19.40625 L 13.8125 -12.96875 L 12.6875 -12.96875 C 12.09375 -15.15625 11.390625 -16.648438 10.578125 -17.453125 C 9.765625 -18.253906 8.75 -18.65625 7.53125 -18.65625 C 6.644531 -18.65625 5.898438 -18.375 5.296875 -17.8125 C 4.703125 -17.25 4.40625 -16.566406 4.40625 -15.765625 C 4.40625 -14.816406 4.660156 -14.03125 5.171875 -13.40625 C 5.691406 -12.789062 6.847656 -12.160156 8.640625 -11.515625 C 10.941406 -10.671875 12.507812 -9.816406 13.34375 -8.953125 C 14.1875 -8.097656 14.609375 -6.953125 14.609375 -5.515625 C 14.609375 -3.785156 13.976562 -2.367188 12.71875 -1.265625 C 11.457031 -0.160156 9.890625 0.390625 8.015625 0.390625 C 6.328125 0.390625 4.707031 -0.0664062 3.15625 -0.984375 Z M 3.15625 -0.984375 "/></g></g></g></svg>