<svg xmlns="http://www.w3.org/2000/svg" xmlns:xlink="http://www.w3.org/1999/xlink" width="500" zoomAndPan="magnify" viewBox="0 0 375 374.999991" height="500" preserveAspectRatio="xMidYMid meet" version="1.0"><defs><g/><clipPath id="70c9f6d197"><path d="M 133.59375 78.066406 L 241.59375 78.066406 L 241.59375 228.066406 L 133.59375 228.066406 Z M 133.59375 78.066406 " clip-rule="nonzero"/></clipPath></defs><g clip-path="url(#70c9f6d197)"><path fill="#ffffff" d="M 149.53125 182.835938 C 149.386719 182.140625 148.976562 181.542969 148.378906 181.152344 C 147.78125 180.765625 147.070312 180.636719 146.371094 180.785156 C 144.933594 181.089844 144.011719 182.503906 144.320312 183.941406 C 144.582031 185.1875 145.695312 186.046875 146.925781 186.046875 C 147.105469 186.046875 147.292969 186.027344 147.480469 185.988281 C 148.917969 185.683594 149.839844 184.269531 149.53125 182.835938 Z M 147.269531 184.996094 C 146.378906 185.183594 145.5 184.617188 145.3125 183.730469 C 145.125 182.84375 145.695312 181.964844 146.582031 181.777344 C 146.695312 181.753906 146.816406 181.742188 146.929688 181.742188 C 147.242188 181.742188 147.550781 181.832031 147.820312 182.007812 C 148.191406 182.246094 148.445312 182.617188 148.535156 183.046875 C 148.726562 183.933594 148.15625 184.804688 147.269531 184.996094 Z M 140.023438 168.136719 C 138.5625 168.011719 137.265625 169.09375 137.132812 170.558594 C 137.007812 172.015625 138.09375 173.3125 139.558594 173.4375 C 139.636719 173.445312 139.714844 173.449219 139.792969 173.449219 C 141.160156 173.449219 142.328125 172.402344 142.449219 171.023438 C 142.574219 169.558594 141.492188 168.265625 140.023438 168.136719 Z M 139.648438 172.429688 C 138.742188 172.347656 138.070312 171.550781 138.148438 170.644531 C 138.222656 169.789062 138.949219 169.140625 139.789062 169.140625 C 139.839844 169.140625 139.890625 169.144531 139.9375 169.144531 C 140.84375 169.222656 141.515625 170.027344 141.4375 170.933594 C 141.355469 171.835938 140.554688 172.511719 139.648438 172.429688 Z M 137.664062 154.191406 C 137.339844 154.058594 136.996094 153.992188 136.667969 153.992188 C 135.613281 153.992188 134.609375 154.621094 134.191406 155.660156 C 133.640625 157.019531 134.300781 158.574219 135.667969 159.125 C 135.992188 159.253906 136.328125 159.316406 136.660156 159.316406 C 137.714844 159.316406 138.71875 158.6875 139.136719 157.652344 C 139.683594 156.292969 139.023438 154.738281 137.664062 154.191406 Z M 138.191406 157.273438 C 137.851562 158.113281 136.886719 158.523438 136.046875 158.183594 C 135.203125 157.84375 134.792969 156.882812 135.136719 156.042969 C 135.394531 155.402344 136.015625 155.011719 136.667969 155.011719 C 136.871094 155.011719 137.082031 155.046875 137.28125 155.132812 C 138.121094 155.46875 138.53125 156.433594 138.191406 157.273438 Z M 139.484375 140.160156 C 138.34375 139.234375 136.664062 139.414062 135.734375 140.554688 C 134.808594 141.695312 134.984375 143.375 136.128906 144.296875 C 136.621094 144.695312 137.214844 144.890625 137.804688 144.890625 C 138.582031 144.890625 139.347656 144.554688 139.878906 143.902344 C 140.800781 142.761719 140.625 141.085938 139.484375 140.160156 Z M 139.085938 143.265625 C 138.515625 143.972656 137.472656 144.082031 136.769531 143.507812 C 136.0625 142.9375 135.953125 141.898438 136.527344 141.195312 C 136.847656 140.792969 137.328125 140.585938 137.808594 140.585938 C 138.171875 140.585938 138.539062 140.707031 138.84375 140.953125 C 139.550781 141.523438 139.660156 142.5625 139.085938 143.265625 Z M 145.335938 127.28125 C 144.515625 126.0625 142.855469 125.738281 141.636719 126.5625 C 141.046875 126.957031 140.644531 127.558594 140.511719 128.257812 C 140.375 128.953125 140.515625 129.664062 140.917969 130.253906 C 141.433594 131.015625 142.277344 131.425781 143.128906 131.425781 C 143.648438 131.425781 144.164062 131.28125 144.621094 130.972656 C 145.835938 130.15625 146.160156 128.496094 145.335938 127.28125 Z M 144.050781 130.132812 C 143.296875 130.640625 142.269531 130.441406 141.757812 129.6875 C 141.515625 129.324219 141.421875 128.886719 141.507812 128.457031 C 141.589844 128.023438 141.839844 127.652344 142.203125 127.40625 C 142.484375 127.21875 142.796875 127.125 143.121094 127.125 C 143.226562 127.125 143.335938 127.132812 143.441406 127.152344 C 143.871094 127.238281 144.246094 127.488281 144.488281 127.847656 C 145 128.601562 144.800781 129.621094 144.050781 130.132812 Z M 154.707031 116.667969 C 154.277344 115.265625 152.785156 114.472656 151.378906 114.902344 C 149.96875 115.328125 149.175781 116.820312 149.605469 118.222656 C 149.953125 119.367188 151.015625 120.105469 152.15625 120.105469 C 152.414062 120.105469 152.675781 120.070312 152.9375 119.992188 C 154.34375 119.558594 155.132812 118.070312 154.707031 116.667969 Z M 152.636719 119.019531 C 151.769531 119.289062 150.84375 118.796875 150.578125 117.929688 C 150.316406 117.0625 150.804688 116.136719 151.675781 115.875 C 151.832031 115.824219 151.992188 115.800781 152.152344 115.800781 C 152.859375 115.800781 153.515625 116.257812 153.734375 116.964844 C 154 117.835938 153.507812 118.757812 152.636719 119.019531 Z M 164.109375 106.59375 C 162.640625 106.59375 161.445312 107.789062 161.445312 109.253906 C 161.445312 110.71875 162.640625 111.914062 164.109375 111.914062 C 165.578125 111.914062 166.777344 110.71875 166.777344 109.253906 C 166.777344 107.789062 165.578125 106.59375 164.109375 106.59375 Z M 164.109375 110.902344 C 163.203125 110.902344 162.464844 110.164062 162.464844 109.257812 C 162.464844 108.347656 163.203125 107.613281 164.109375 107.613281 C 165.019531 107.613281 165.757812 108.347656 165.757812 109.257812 C 165.757812 110.164062 165.015625 110.902344 164.109375 110.902344 Z M 241.234375 110.984375 C 238.296875 109.789062 233.890625 108.65625 228.964844 109.570312 C 228.214844 107.25 226.410156 105.050781 224.503906 102.742188 C 221.636719 99.257812 218.667969 95.65625 219.84375 91.792969 C 220.179688 90.691406 220.816406 89.652344 221.75 88.695312 C 221.90625 88.535156 221.941406 88.285156 221.828125 88.089844 C 221.710938 87.890625 221.480469 87.796875 221.257812 87.855469 C 218.34375 88.617188 215.699219 89.882812 213.539062 91.523438 C 212.289062 87.847656 211.476562 84.34375 213.539062 81.578125 C 214.222656 80.660156 215.179688 79.890625 216.378906 79.308594 C 216.582031 79.207031 216.699219 78.984375 216.65625 78.761719 C 216.613281 78.53125 216.425781 78.363281 216.203125 78.347656 C 212.976562 78.0625 208.214844 78.273438 203.878906 80.90625 C 200.359375 83.042969 197.675781 86.507812 196.367188 90.53125 C 195.820312 89.371094 195.605469 88.210938 195.71875 87.011719 C 195.828125 85.785156 196.277344 84.558594 197.039062 83.371094 C 197.167969 83.179688 197.144531 82.925781 196.992188 82.757812 C 196.839844 82.585938 196.59375 82.539062 196.390625 82.640625 C 193.304688 84.160156 189.101562 86.984375 186.640625 91.753906 C 184.90625 95.109375 184.273438 99.046875 184.828125 102.914062 C 182.355469 102.652344 180.609375 101.8125 179.382812 100.304688 C 178.609375 99.355469 178.074219 98.175781 177.792969 96.808594 C 177.746094 96.582031 177.554688 96.417969 177.328125 96.398438 C 177.097656 96.382812 176.886719 96.523438 176.8125 96.742188 C 175.683594 99.960938 174.667969 104.867188 176.234375 109.957031 C 176.367188 110.390625 176.515625 110.792969 176.65625 111.171875 C 176.550781 111.441406 176.445312 111.714844 176.347656 111.984375 C 175.816406 110.097656 174.570312 108.292969 173.003906 107.179688 C 171.222656 105.914062 169.261719 105.703125 167.941406 105.75 C 167.734375 105.753906 167.550781 105.886719 167.476562 106.082031 C 167.40625 106.273438 167.460938 106.496094 167.609375 106.632812 C 168.847656 107.757812 169.457031 108.875 169.429688 109.941406 C 169.40625 110.921875 168.847656 111.625 168.253906 112.371094 C 167.574219 113.226562 166.871094 114.113281 167.003906 115.414062 C 167.179688 117.140625 168.707031 118.414062 170.050781 118.863281 C 168.480469 119.550781 166.957031 120.34375 165.496094 121.242188 C 165.539062 121.132812 165.574219 121.023438 165.605469 120.917969 C 166.59375 117.566406 163.53125 113.800781 160.132812 112.671875 C 158.0625 111.988281 156.125 112.355469 154.871094 112.785156 C 154.671875 112.851562 154.539062 113.03125 154.527344 113.234375 C 154.511719 113.4375 154.628906 113.632812 154.816406 113.722656 C 156.328125 114.441406 157.242188 115.328125 157.527344 116.355469 C 157.789062 117.296875 157.464844 118.132812 157.113281 119.023438 C 156.714844 120.042969 156.300781 121.097656 156.804688 122.296875 C 157.480469 123.902344 159.308594 124.671875 160.726562 124.710938 C 159.421875 125.828125 158.203125 127.027344 157.070312 128.304688 C 157.078125 128.195312 157.085938 128.078125 157.078125 127.972656 C 157.046875 124.480469 153.011719 121.769531 149.4375 121.679688 C 147.25 121.625 145.507812 122.542969 144.433594 123.324219 C 144.269531 123.445312 144.191406 123.65625 144.234375 123.855469 C 144.285156 124.054688 144.449219 124.203125 144.65625 124.234375 C 146.3125 124.480469 147.441406 125.066406 148.015625 125.960938 C 148.542969 126.792969 148.476562 127.6875 148.402344 128.636719 C 148.320312 129.726562 148.230469 130.855469 149.070312 131.859375 C 149.871094 132.8125 151.101562 133.1875 152.242188 133.1875 C 152.6875 133.1875 153.125 133.128906 153.511719 133.023438 C 152.597656 134.457031 151.785156 135.945312 151.082031 137.492188 C 151.054688 137.394531 151.03125 137.296875 151 137.203125 C 149.945312 133.875 145.292969 132.460938 141.847656 133.421875 C 139.738281 134.011719 138.347656 135.394531 137.546875 136.457031 C 137.417969 136.617188 137.40625 136.84375 137.511719 137.023438 C 137.621094 137.199219 137.824219 137.296875 138.027344 137.261719 C 139.683594 137.019531 140.9375 137.242188 141.75 137.933594 C 142.496094 138.566406 142.691406 139.449219 142.898438 140.378906 C 143.140625 141.445312 143.386719 142.546875 144.480469 143.261719 C 145.097656 143.660156 145.792969 143.828125 146.488281 143.828125 C 147.429688 143.828125 148.355469 143.523438 149.046875 143.097656 C 148.597656 144.730469 148.261719 146.382812 148.039062 148.058594 C 147.992188 147.976562 147.941406 147.894531 147.886719 147.816406 C 145.902344 144.9375 141.042969 144.945312 138.027344 146.871094 C 136.183594 148.046875 135.257812 149.777344 134.800781 151.027344 C 134.726562 151.21875 134.78125 151.4375 134.933594 151.574219 C 135.089844 151.714844 135.308594 151.75 135.492188 151.65625 C 137.003906 150.9375 138.265625 150.789062 139.246094 151.214844 C 140.152344 151.601562 140.59375 152.386719 141.066406 153.214844 C 141.605469 154.167969 142.164062 155.148438 143.421875 155.507812 C 143.734375 155.601562 144.050781 155.640625 144.359375 155.640625 C 145.699219 155.640625 146.976562 154.882812 147.726562 154.027344 C 147.777344 155.710938 147.9375 157.386719 148.207031 159.039062 C 148.144531 158.980469 148.078125 158.917969 148.007812 158.863281 C 145.265625 156.695312 140.621094 158.117188 138.300781 160.84375 C 136.886719 162.503906 136.503906 164.429688 136.433594 165.753906 C 136.421875 165.960938 136.539062 166.152344 136.722656 166.242188 C 136.910156 166.332031 137.132812 166.296875 137.28125 166.160156 C 138.515625 165.03125 139.679688 164.519531 140.742188 164.632812 C 141.71875 164.746094 142.375 165.363281 143.066406 166.019531 C 143.851562 166.761719 144.660156 167.527344 145.941406 167.527344 L 145.992188 167.527344 C 147.703125 167.5 149.082031 166.152344 149.667969 164.878906 C 150.199219 166.460938 150.835938 168.003906 151.578125 169.488281 C 151.507812 169.457031 151.4375 169.425781 151.363281 169.394531 C 148.105469 168.117188 144.082031 170.832031 142.660156 174.113281 C 141.792969 176.117188 141.988281 178.070312 142.3125 179.359375 C 142.363281 179.5625 142.527344 179.710938 142.730469 179.742188 C 142.753906 179.746094 142.78125 179.746094 142.804688 179.746094 C 142.984375 179.746094 143.152344 179.652344 143.246094 179.5 C 144.09375 178.058594 145.054688 177.230469 146.109375 177.03125 C 147.074219 176.851562 147.882812 177.25 148.738281 177.679688 C 149.71875 178.164062 150.730469 178.667969 151.976562 178.269531 C 153.601562 177.746094 154.523438 176.054688 154.710938 174.667969 C 155.683594 176.023438 156.746094 177.308594 157.890625 178.515625 C 157.816406 178.507812 157.738281 178.492188 157.660156 178.488281 C 154.167969 178.21875 151.121094 181.992188 150.71875 185.546875 C 150.476562 187.710938 151.238281 189.523438 151.921875 190.664062 C 152.015625 190.816406 152.183594 190.90625 152.359375 190.90625 C 152.386719 190.90625 152.410156 190.90625 152.4375 190.902344 C 152.640625 190.871094 152.804688 190.71875 152.855469 190.519531 C 153.242188 188.894531 153.921875 187.820312 154.867188 187.324219 C 155.738281 186.871094 156.632812 187.015625 157.570312 187.171875 C 158.515625 187.332031 159.488281 187.488281 160.4375 187.03125 C 160.003906 187.453125 159.585938 187.910156 159.183594 188.402344 C 154.8125 193.742188 153.945312 201.472656 156.984375 208.105469 C 157.0625 208.285156 157.246094 208.402344 157.445312 208.402344 L 157.476562 208.402344 C 157.683594 208.386719 157.867188 208.246094 157.929688 208.054688 C 158.519531 206.234375 159.449219 204.804688 160.703125 203.8125 C 163.695312 201.425781 167.585938 202.191406 171.707031 203.003906 C 172.722656 203.207031 173.75 203.402344 174.773438 203.554688 C 173.75 206.113281 173.488281 208.519531 173.992188 210.71875 C 174.597656 213.363281 176.097656 214.929688 178.574219 217.539062 C 179.5 218.511719 180.550781 219.617188 181.757812 220.984375 C 183.675781 223.160156 185.5 225.449219 187.175781 227.792969 C 187.261719 227.949219 187.4375 228.046875 187.621094 228.046875 C 187.808594 228.046875 187.988281 227.941406 188.070312 227.769531 C 189.746094 225.4375 191.5625 223.152344 193.476562 220.984375 C 194.683594 219.613281 195.734375 218.511719 196.65625 217.539062 C 199.136719 214.929688 200.632812 213.359375 201.238281 210.71875 C 201.742188 208.527344 201.484375 206.125 200.464844 203.574219 C 201.535156 203.421875 202.617188 203.210938 203.683594 203 C 207.800781 202.191406 211.695312 201.421875 214.6875 203.808594 C 215.945312 204.8125 216.878906 206.234375 217.464844 208.050781 C 217.527344 208.25 217.707031 208.386719 217.917969 208.398438 C 217.929688 208.402344 217.941406 208.402344 217.949219 208.402344 C 218.148438 208.402344 218.332031 208.285156 218.410156 208.105469 C 221.445312 201.472656 220.582031 193.738281 216.210938 188.394531 C 214.332031 186.101562 212.113281 184.613281 210.03125 183.648438 C 214.511719 179.898438 218.160156 175.183594 220.621094 169.960938 C 222.628906 165.703125 223.851562 161.148438 224.265625 156.429688 C 228.753906 154.261719 232.484375 150.644531 234.53125 146.367188 C 237.003906 141.183594 236.660156 136.011719 235.9375 132.582031 C 235.890625 132.363281 235.703125 132.195312 235.476562 132.183594 C 235.246094 132.167969 235.039062 132.304688 234.960938 132.515625 C 234.441406 133.933594 233.675781 135.125 232.6875 136.066406 C 232.332031 136.402344 231.960938 136.695312 231.5625 136.957031 C 233.015625 134.226562 233.09375 130.609375 233.167969 126.820312 C 233.269531 121.691406 233.375 116.382812 237.226562 113.574219 C 238.332031 112.765625 239.644531 112.226562 241.136719 111.964844 C 241.355469 111.929688 241.527344 111.746094 241.550781 111.519531 C 241.574219 111.28125 241.445312 111.070312 241.234375 110.984375 Z M 147.734375 151.722656 C 147.625 152.296875 147.386719 152.847656 146.988281 153.308594 C 146.269531 154.152344 144.875 154.867188 143.699219 154.523438 C 142.839844 154.273438 142.425781 153.542969 141.945312 152.703125 C 141.433594 151.808594 140.863281 150.796875 139.648438 150.265625 C 139.15625 150.058594 138.625 149.949219 138.046875 149.949219 C 137.484375 149.949219 136.882812 150.050781 136.25 150.253906 C 136.726562 149.371094 137.457031 148.425781 138.570312 147.714844 C 141.140625 146.074219 145.402344 146.003906 147.042969 148.382812 C 147.457031 148.976562 147.726562 149.746094 147.792969 150.546875 C 147.761719 150.941406 147.742188 151.332031 147.734375 151.722656 Z M 213.609375 92.746094 C 215.375 91.292969 217.539062 90.121094 219.9375 89.308594 C 219.457031 90.007812 219.101562 90.738281 218.875 91.5 C 217.539062 95.878906 220.679688 99.691406 223.71875 103.382812 C 225.53125 105.585938 227.253906 107.679688 227.964844 109.78125 C 227.777344 109.828125 227.589844 109.867188 227.398438 109.917969 C 225.972656 110.304688 224.585938 110.863281 223.257812 111.566406 C 221.515625 104.070312 216.152344 100.460938 215.09375 99.8125 C 214.863281 99.671875 214.570312 99.730469 214.414062 99.945312 C 213.992188 100.523438 212.59375 102.628906 211.855469 105.777344 C 210.925781 106.1875 210.03125 106.65625 209.183594 107.183594 C 209.128906 107.210938 209.074219 107.242188 209.035156 107.269531 C 208.652344 107.511719 208.28125 107.773438 207.914062 108.046875 C 207.90625 107.988281 207.894531 107.933594 207.886719 107.875 C 207.621094 106.054688 207.65625 104.203125 207.996094 102.371094 C 208.488281 99.65625 209.632812 97.125 211.3125 95.050781 C 211.996094 94.210938 212.769531 93.433594 213.609375 92.746094 Z M 219.949219 123.257812 C 222.300781 121.113281 224.683594 120.15625 225.734375 119.8125 C 226.292969 121.609375 227.511719 126.945312 224.621094 132.914062 L 224.519531 133.113281 C 223.679688 134.808594 222.429688 135.945312 220.996094 136.375 C 221.4375 135.808594 221.800781 135.210938 222.070312 134.597656 C 223.625 131 221.996094 127.179688 219.949219 123.257812 Z M 221.140625 134.183594 C 220.746094 135.089844 220.128906 135.9375 219.316406 136.707031 C 219.003906 137.003906 218.648438 137.296875 218.246094 137.585938 C 217.394531 137.449219 216.503906 137.316406 215.625 137.207031 C 216.011719 136.808594 216.335938 136.367188 216.605469 135.855469 C 217.28125 134.5625 217.492188 132.96875 217.21875 131.242188 L 217.183594 131.019531 C 216.984375 129.878906 216.691406 128.761719 216.304688 127.695312 C 214.320312 122.175781 210.40625 119.289062 209.640625 118.761719 C 209.421875 118.617188 209.125 118.65625 208.957031 118.863281 C 208.476562 119.449219 204.296875 124.800781 205.640625 132.644531 C 205.640625 132.679688 205.648438 132.707031 205.65625 132.742188 C 204.441406 132.679688 203.179688 132.667969 201.953125 132.667969 C 201.882812 132.515625 201.820312 132.359375 201.75 132.191406 C 201.132812 130.652344 200.738281 128.960938 200.578125 127.160156 C 200.421875 125.3125 200.519531 123.417969 200.871094 121.511719 C 200.878906 121.425781 200.898438 121.335938 200.921875 121.242188 C 200.976562 120.941406 201.042969 120.640625 201.121094 120.332031 C 201.132812 120.304688 201.140625 120.277344 201.144531 120.25 C 201.167969 120.144531 201.195312 120.039062 201.222656 119.921875 C 201.699219 118.117188 202.394531 116.402344 203.289062 114.820312 C 203.296875 114.804688 203.304688 114.792969 203.308594 114.777344 C 203.929688 113.691406 204.644531 112.667969 205.445312 111.738281 C 205.78125 111.328125 206.167969 110.917969 206.582031 110.511719 C 206.992188 110.113281 207.429688 109.722656 207.886719 109.359375 C 208.429688 108.914062 209 108.503906 209.605469 108.128906 C 209.628906 108.113281 209.648438 108.097656 209.667969 108.085938 C 209.683594 108.078125 209.695312 108.066406 209.710938 108.0625 C 210.582031 107.511719 211.515625 107.03125 212.484375 106.621094 C 212.488281 106.621094 212.488281 106.621094 212.488281 106.621094 C 212.488281 106.617188 212.492188 106.617188 212.496094 106.613281 C 212.933594 106.429688 213.386719 106.253906 213.882812 106.078125 C 214.878906 105.738281 215.917969 105.457031 216.984375 105.253906 C 216.28125 106.019531 215.714844 106.859375 215.304688 107.761719 C 213.609375 111.433594 214.859375 115.175781 216.128906 118.015625 C 216.363281 118.535156 216.617188 119.050781 216.835938 119.496094 L 216.960938 119.75 C 217.363281 120.546875 217.792969 121.355469 218.210938 122.136719 C 218.429688 122.554688 218.652344 122.976562 218.871094 123.390625 C 220.875 127.207031 222.558594 130.902344 221.140625 134.183594 Z M 202.710938 148.09375 C 197.078125 145.972656 194.511719 141.726562 193.71875 140.136719 C 195.332031 139.378906 200 137.597656 205.792969 139.070312 C 205.789062 139.074219 205.78125 139.082031 205.769531 139.089844 C 203.601562 141.0625 202.441406 144.53125 202.710938 148.09375 Z M 192.808594 139.457031 C 192.574219 139.582031 192.476562 139.867188 192.582031 140.109375 C 193.066406 141.214844 195.816406 146.792969 202.84375 149.21875 C 203.03125 150.355469 203.359375 151.425781 203.8125 152.375 C 197.179688 151.722656 189.226562 146.84375 186.808594 138.613281 C 186.449219 137.421875 186.226562 136.1875 186.136719 134.9375 C 186.121094 134.703125 186.109375 134.46875 186.101562 134.234375 C 186.097656 134.09375 186.097656 133.957031 186.09375 133.820312 C 186.09375 133.710938 186.089844 133.601562 186.089844 133.488281 L 186.089844 133.375 C 186.09375 133.175781 186.097656 132.980469 186.109375 132.785156 C 186.109375 132.667969 186.117188 132.558594 186.125 132.449219 C 186.132812 132.316406 186.144531 132.1875 186.152344 132.058594 C 186.160156 131.960938 186.167969 131.871094 186.175781 131.78125 C 186.1875 131.640625 186.203125 131.5 186.222656 131.355469 C 186.226562 131.277344 186.242188 131.191406 186.25 131.113281 C 186.257812 131.035156 186.269531 130.957031 186.28125 130.882812 C 186.304688 130.695312 186.332031 130.507812 186.363281 130.316406 C 186.371094 130.261719 186.386719 130.203125 186.394531 130.144531 C 186.433594 129.917969 186.476562 129.695312 186.523438 129.464844 L 186.558594 129.3125 C 186.589844 129.160156 186.621094 129.007812 186.65625 128.863281 C 186.730469 128.578125 186.804688 128.296875 186.886719 128.019531 C 186.925781 127.875 186.96875 127.730469 187.015625 127.589844 C 187.070312 127.398438 187.128906 127.214844 187.195312 127.023438 C 187.199219 127 187.210938 126.980469 187.214844 126.957031 C 187.292969 127.191406 187.378906 127.425781 187.476562 127.65625 C 187.480469 127.664062 187.484375 127.679688 187.492188 127.691406 C 187.792969 128.402344 188.171875 129.070312 188.628906 129.671875 C 188.886719 130.007812 189.15625 130.320312 189.445312 130.605469 C 192.230469 133.363281 196.394531 133.632812 200.78125 133.667969 C 201.066406 133.671875 201.347656 133.671875 201.628906 133.671875 L 201.886719 133.671875 C 203.339844 133.675781 204.84375 133.679688 206.242188 133.785156 C 209.753906 134.042969 211.964844 134.929688 213.410156 136.644531 C 213.511719 136.757812 213.601562 136.882812 213.691406 137.007812 C 211.929688 136.886719 210.507812 136.980469 209.257812 137.285156 C 209.253906 137.285156 209.253906 137.289062 209.25 137.289062 C 209.25 137.289062 209.246094 137.289062 209.242188 137.289062 C 209.238281 137.292969 209.234375 137.292969 209.226562 137.292969 C 208.332031 137.515625 207.542969 137.847656 206.835938 138.296875 C 199.628906 136.164062 193.894531 138.882812 192.808594 139.457031 Z M 200.804688 132.5625 C 200.820312 132.59375 200.832031 132.621094 200.847656 132.65625 L 200.785156 132.65625 C 196.210938 132.628906 191.902344 132.324219 189.4375 129.066406 C 188.625 127.984375 188.078125 126.679688 187.824219 125.183594 C 187.816406 125.128906 187.792969 125.078125 187.769531 125.03125 C 187.753906 125.003906 187.738281 124.980469 187.71875 124.960938 C 187.703125 124.941406 187.691406 124.917969 187.671875 124.902344 C 187.652344 124.882812 187.636719 124.875 187.613281 124.859375 C 187.589844 124.839844 187.566406 124.824219 187.539062 124.808594 C 187.519531 124.800781 187.496094 124.800781 187.476562 124.789062 C 187.445312 124.78125 187.417969 124.765625 187.378906 124.761719 C 187.359375 124.761719 187.339844 124.761719 187.320312 124.761719 C 187.183594 124.761719 187.054688 124.816406 186.957031 124.917969 C 186.953125 124.921875 186.949219 124.925781 186.941406 124.929688 C 186.921875 124.957031 186.90625 124.984375 186.890625 125.011719 C 186.875 125.03125 186.863281 125.046875 186.855469 125.070312 C 186.855469 125.070312 186.855469 125.070312 186.851562 125.070312 C 186.773438 125.257812 186.671875 125.507812 186.5625 125.800781 C 186.53125 125.882812 186.5 125.964844 186.464844 126.050781 C 186.410156 126.207031 186.34375 126.371094 186.289062 126.546875 C 186.277344 126.574219 186.265625 126.601562 186.257812 126.628906 C 186.222656 126.738281 186.183594 126.84375 186.148438 126.960938 C 186.144531 126.980469 186.136719 127 186.128906 127.023438 C 186.101562 127.101562 186.082031 127.179688 186.054688 127.257812 C 186.039062 127.308594 186.027344 127.355469 186.011719 127.398438 C 185.472656 126.328125 185.160156 125.421875 184.996094 124.867188 C 186.820312 124.375 192.207031 123.351562 198.085938 126.460938 C 198.140625 126.484375 198.195312 126.515625 198.269531 126.558594 C 198.757812 126.824219 199.199219 127.128906 199.589844 127.453125 C 199.761719 129.277344 200.171875 130.996094 200.804688 132.5625 Z M 200.085938 120.257812 C 197.792969 118.691406 194.617188 118.210938 191.269531 117.714844 L 190.914062 117.660156 C 187.867188 114.828125 186.6875 111.582031 186.332031 110.355469 C 187.382812 110.070312 189.632812 109.621094 192.46875 109.882812 C 194.894531 110.109375 197.230469 110.808594 199.398438 111.957031 L 199.601562 112.066406 C 200.261719 112.425781 200.835938 112.84375 201.300781 113.308594 C 201.691406 113.6875 202.011719 114.109375 202.265625 114.5625 C 201.394531 116.152344 200.707031 117.863281 200.238281 119.65625 C 200.210938 119.761719 200.183594 119.867188 200.160156 119.972656 C 200.15625 119.988281 200.148438 120.003906 200.144531 120.019531 C 200.121094 120.097656 200.109375 120.179688 200.085938 120.257812 Z M 206.699219 132.808594 C 206.675781 132.691406 206.65625 132.574219 206.636719 132.445312 C 205.523438 125.945312 208.4375 121.277344 209.453125 119.882812 C 210.660156 120.796875 213.699219 123.453125 215.347656 128.039062 C 215.714844 129.050781 215.992188 130.109375 216.179688 131.191406 L 216.210938 131.40625 C 216.453125 132.910156 216.273438 134.289062 215.703125 135.386719 C 215.441406 135.890625 215.105469 136.328125 214.703125 136.695312 C 214.542969 136.453125 214.371094 136.21875 214.1875 135.996094 C 212.1875 133.632812 209.1875 133.027344 206.699219 132.808594 Z M 213.027344 105.304688 C 213.617188 103.210938 214.476562 101.695312 214.964844 100.9375 C 215.691406 101.429688 217 102.4375 218.339844 104.003906 C 216.675781 104.214844 215.066406 104.589844 213.546875 105.113281 C 213.367188 105.175781 213.199219 105.238281 213.027344 105.304688 Z M 216.730469 116.839844 C 215.679688 114.308594 214.847656 111.183594 216.226562 108.183594 C 216.796875 106.945312 217.683594 105.835938 218.851562 104.882812 C 218.898438 104.851562 218.929688 104.808594 218.957031 104.761719 C 220.308594 106.523438 221.605469 108.863281 222.292969 111.871094 L 222.339844 112.085938 C 220.261719 113.324219 218.355469 114.933594 216.730469 116.839844 Z M 207.207031 101.203125 C 205.960938 99.894531 204.421875 98.648438 202.925781 97.4375 C 202.5 97.09375 202.070312 96.742188 201.648438 96.394531 C 202.699219 92.472656 204.886719 89.976562 205.828125 89.050781 C 206.726562 89.984375 208.558594 92.191406 209.703125 95.535156 C 208.550781 97.234375 207.699219 99.160156 207.207031 101.203125 Z M 204.410156 81.769531 C 207.828125 79.691406 211.539062 79.210938 214.46875 79.261719 C 213.785156 79.761719 213.199219 80.332031 212.722656 80.972656 C 210.308594 84.210938 211.34375 88.277344 212.695312 92.199219 C 211.90625 92.875 211.175781 93.617188 210.523438 94.425781 C 210.492188 94.46875 210.460938 94.507812 210.429688 94.550781 C 209.015625 90.867188 206.855469 88.617188 206.191406 87.976562 C 206 87.796875 205.699219 87.792969 205.503906 87.964844 C 204.929688 88.472656 202.144531 91.121094 200.792969 95.683594 C 199.335938 94.441406 198 93.152344 197.058594 91.753906 C 198.167969 87.570312 200.835938 83.941406 204.410156 81.769531 Z M 187.539062 92.214844 C 189.515625 88.402344 192.667969 85.894531 195.375 84.328125 C 195.007812 85.179688 194.785156 86.042969 194.703125 86.910156 C 194.539062 88.691406 194.980469 90.378906 196.058594 92.070312 C 196.066406 92.085938 196.074219 92.097656 196.082031 92.113281 C 197.546875 94.394531 199.957031 96.34375 202.285156 98.226562 C 204.046875 99.648438 205.703125 100.988281 206.957031 102.4375 C 206.636719 104.296875 206.609375 106.175781 206.882812 108.023438 C 206.910156 108.253906 206.957031 108.5 207.003906 108.761719 C 206.609375 109.089844 206.222656 109.429688 205.863281 109.78125 C 205.753906 109.890625 205.652344 109.996094 205.546875 110.105469 C 205.492188 109.238281 205.347656 108.398438 205.121094 107.636719 C 205.097656 107.566406 205.070312 107.507812 205.050781 107.445312 C 205.042969 107.394531 205.023438 107.347656 205 107.296875 C 204.679688 106.371094 204.238281 105.554688 203.664062 104.886719 C 203.152344 104.289062 202.546875 103.8125 201.84375 103.433594 C 201.597656 103.050781 201.339844 102.679688 201.070312 102.320312 C 197.570312 97.675781 193.027344 96.070312 192.152344 95.792969 C 191.898438 95.714844 191.628906 95.839844 191.527344 96.085938 C 191.234375 96.796875 190.324219 99.335938 190.449219 102.808594 C 188.894531 102.941406 187.328125 103.042969 185.867188 102.980469 C 185.28125 99.253906 185.871094 95.445312 187.539062 92.214844 Z M 200.132812 102.785156 C 199.476562 102.609375 198.757812 102.492188 197.960938 102.4375 C 196.027344 102.296875 193.847656 102.5 191.746094 102.699219 C 191.652344 102.707031 191.558594 102.71875 191.464844 102.722656 C 191.371094 99.996094 191.976562 97.875 192.300781 96.925781 C 193.691406 97.4375 197.246094 99.042969 200.132812 102.785156 Z M 177.273438 98.652344 C 177.601562 99.507812 178.042969 100.269531 178.585938 100.941406 C 180.109375 102.808594 182.273438 103.777344 185.394531 103.980469 C 187.1875 104.105469 189.113281 103.957031 191.003906 103.785156 C 191.007812 103.785156 191.007812 103.785156 191.007812 103.785156 L 191.023438 103.785156 C 191.292969 103.757812 191.566406 103.734375 191.835938 103.707031 C 193.996094 103.503906 196.035156 103.308594 197.882812 103.445312 C 200.210938 103.609375 201.800781 104.28125 202.886719 105.550781 C 203.4375 106.191406 203.855469 106.992188 204.140625 107.9375 C 204.445312 108.925781 204.578125 110.0625 204.539062 111.226562 C 203.921875 111.960938 203.355469 112.742188 202.839844 113.570312 C 202.597656 113.21875 202.324219 112.886719 202.011719 112.582031 C 201.480469 112.054688 200.832031 111.578125 200.085938 111.175781 L 199.878906 111.066406 C 199.304688 110.761719 198.71875 110.488281 198.128906 110.242188 C 196.34375 109.511719 194.480469 109.050781 192.558594 108.875 C 189 108.539062 186.296875 109.289062 185.554688 109.523438 C 185.300781 109.605469 185.152344 109.867188 185.210938 110.121094 C 185.371094 110.824219 186.257812 114.171875 189.21875 117.398438 C 187.0625 117.046875 185.125 116.625 183.449219 115.84375 C 181.777344 115.058594 180.582031 113.988281 179.800781 112.570312 C 179.207031 111.5 178.871094 110.269531 178.808594 108.90625 C 178.792969 108.679688 178.636719 108.488281 178.417969 108.4375 C 178.199219 108.386719 177.96875 108.484375 177.859375 108.679688 C 177.648438 109.050781 177.449219 109.429688 177.257812 109.816406 C 177.242188 109.761719 177.222656 109.710938 177.203125 109.648438 C 175.953125 105.597656 176.441406 101.640625 177.273438 98.652344 Z M 176.191406 117.472656 C 176.320312 115.4375 176.816406 113.386719 177.667969 111.367188 C 177.667969 111.367188 177.667969 111.367188 177.671875 111.367188 C 177.777344 111.113281 177.886719 110.867188 178.003906 110.617188 C 178.191406 111.492188 178.496094 112.308594 178.910156 113.0625 C 179.804688 114.671875 181.148438 115.882812 183.023438 116.757812 C 185.210938 117.785156 187.75 118.21875 190.605469 118.640625 L 191.121094 118.71875 C 194.535156 119.226562 197.761719 119.707031 199.863281 121.347656 C 199.570312 122.9375 199.449219 124.539062 199.5 126.117188 C 199.261719 125.957031 199.011719 125.804688 198.75 125.660156 C 198.679688 125.617188 198.609375 125.582031 198.546875 125.550781 C 191.683594 121.921875 185.410156 123.648438 184.21875 124.035156 C 183.96875 124.117188 183.820312 124.378906 183.882812 124.632812 C 183.992188 125.109375 184.449219 126.804688 185.625 128.824219 C 185.609375 128.871094 185.601562 128.914062 185.59375 128.960938 L 185.542969 129.183594 C 185.488281 129.449219 185.4375 129.710938 185.390625 129.976562 C 185.382812 130.03125 185.367188 130.085938 185.359375 130.148438 C 185.328125 130.34375 185.300781 130.539062 185.273438 130.738281 C 185.265625 130.804688 185.25 130.875 185.242188 130.945312 C 185.242188 130.957031 185.242188 130.972656 185.238281 130.984375 C 185.230469 131.074219 185.21875 131.160156 185.210938 131.242188 C 185.195312 131.34375 185.1875 131.441406 185.179688 131.535156 C 185.171875 131.585938 185.167969 131.632812 185.164062 131.679688 C 185.152344 131.78125 185.144531 131.882812 185.136719 131.988281 C 185.132812 132.035156 185.128906 132.082031 185.125 132.128906 C 185.125 132.140625 185.125 132.152344 185.125 132.160156 C 185.125 132.179688 185.121094 132.195312 185.121094 132.214844 C 185.113281 132.332031 185.101562 132.453125 185.101562 132.582031 C 185.097656 132.632812 185.097656 132.683594 185.09375 132.734375 C 185.089844 132.777344 185.089844 132.8125 185.089844 132.855469 C 185.089844 132.9375 185.089844 133.027344 185.085938 133.117188 C 185.082031 133.246094 185.078125 133.375 185.078125 133.5 L 185.078125 133.53125 C 185.078125 133.707031 185.078125 133.878906 185.085938 134.054688 C 180.453125 131.164062 177.054688 126.078125 176.320312 120.855469 C 176.15625 119.742188 176.113281 118.605469 176.191406 117.472656 Z M 168.007812 115.304688 C 167.921875 114.414062 168.445312 113.761719 169.046875 113 C 169.691406 112.191406 170.414062 111.28125 170.445312 109.957031 C 170.472656 108.902344 170.050781 107.847656 169.1875 106.808594 C 170.183594 106.917969 171.34375 107.242188 172.414062 108.003906 C 174.90625 109.769531 176.5625 113.691406 174.972656 116.097656 C 174.535156 116.753906 173.839844 117.34375 173.035156 117.699219 C 173.03125 117.703125 173.019531 117.707031 173.011719 117.707031 C 172.863281 117.757812 172.714844 117.808594 172.566406 117.859375 L 172.34375 117.9375 C 172.339844 117.941406 172.335938 117.941406 172.332031 117.945312 C 171.695312 118.105469 171.019531 118.109375 170.375 117.898438 C 169.316406 117.550781 168.136719 116.523438 168.007812 115.304688 Z M 157.738281 121.898438 C 157.394531 121.074219 157.699219 120.292969 158.054688 119.390625 C 158.429688 118.433594 158.859375 117.351562 158.5 116.078125 C 158.214844 115.0625 157.503906 114.175781 156.375 113.429688 C 157.363281 113.246094 158.558594 113.21875 159.808594 113.632812 C 162.707031 114.597656 165.441406 117.863281 164.628906 120.628906 C 164.398438 121.386719 163.902344 122.15625 163.242188 122.730469 C 163.226562 122.746094 163.214844 122.753906 163.195312 122.765625 C 163.191406 122.769531 163.1875 122.769531 163.179688 122.773438 C 163.074219 122.847656 162.96875 122.925781 162.867188 123 L 162.71875 123.109375 C 162.714844 123.109375 162.710938 123.113281 162.710938 123.117188 C 162.695312 123.121094 162.683594 123.132812 162.671875 123.140625 C 162.660156 123.15625 162.644531 123.167969 162.625 123.175781 C 162.066406 123.511719 161.429688 123.710938 160.753906 123.691406 C 159.648438 123.664062 158.214844 123.027344 157.738281 121.898438 Z M 153.257812 132.039062 C 152.191406 132.332031 150.632812 132.140625 149.851562 131.203125 C 149.277344 130.519531 149.339844 129.679688 149.414062 128.710938 C 149.496094 127.691406 149.585938 126.527344 148.871094 125.414062 C 148.300781 124.523438 147.359375 123.882812 146.058594 123.5 C 146.949219 123.035156 148.085938 122.65625 149.402344 122.691406 C 152.457031 122.765625 156.027344 125.089844 156.054688 127.976562 C 156.066406 128.757812 155.820312 129.621094 155.359375 130.367188 C 155.351562 130.382812 155.335938 130.394531 155.328125 130.410156 C 155.164062 130.617188 155.019531 130.816406 154.894531 130.988281 C 154.460938 131.472656 153.910156 131.855469 153.257812 132.039062 Z M 148.535156 142.207031 C 147.597656 142.800781 146.058594 143.074219 145.027344 142.40625 C 144.277344 141.917969 144.097656 141.101562 143.882812 140.148438 C 143.660156 139.144531 143.40625 138.011719 142.398438 137.152344 C 141.609375 136.480469 140.550781 136.144531 139.234375 136.144531 L 139.15625 136.144531 C 139.867188 135.441406 140.847656 134.75 142.117188 134.394531 C 145.058594 133.578125 149.152344 134.757812 150.023438 137.507812 C 150.25 138.207031 150.277344 139.042969 150.097656 139.839844 C 149.972656 140.152344 149.859375 140.472656 149.746094 140.796875 L 149.699219 140.917969 C 149.425781 141.429688 149.042969 141.878906 148.535156 142.207031 Z M 148.773438 164.378906 C 148.332031 165.394531 147.203125 166.480469 145.980469 166.5 L 145.949219 166.5 C 145.070312 166.5 144.464844 165.929688 143.765625 165.269531 C 143.015625 164.5625 142.171875 163.761719 140.855469 163.613281 C 140.71875 163.59375 140.574219 163.589844 140.4375 163.589844 C 139.515625 163.589844 138.5625 163.925781 137.601562 164.59375 C 137.796875 163.605469 138.222656 162.488281 139.070312 161.488281 C 141.050781 159.167969 145.109375 157.859375 147.375 159.648438 C 147.902344 160.070312 148.363281 160.675781 148.667969 161.363281 C 148.789062 161.890625 148.90625 162.359375 149.027344 162.792969 C 149.0625 163.328125 148.992188 163.871094 148.773438 164.378906 Z M 153.714844 174.441406 C 153.589844 175.542969 152.828125 176.914062 151.664062 177.285156 C 150.808594 177.5625 150.058594 177.1875 149.191406 176.753906 C 148.269531 176.296875 147.21875 175.78125 145.921875 176.023438 C 144.878906 176.21875 143.933594 176.847656 143.089844 177.90625 C 142.996094 176.910156 143.070312 175.714844 143.59375 174.507812 C 144.605469 172.167969 147.222656 170.078125 149.628906 170.078125 C 150.097656 170.078125 150.558594 170.15625 150.992188 170.328125 C 151.613281 170.570312 152.210938 171.003906 152.695312 171.550781 C 152.960938 172.011719 153.226562 172.449219 153.503906 172.878906 C 153.691406 173.375 153.773438 173.902344 153.714844 174.441406 Z M 154.433594 172.445312 C 154.21875 171.894531 153.898438 171.386719 153.523438 170.945312 C 152.023438 168.347656 150.855469 165.554688 150.042969 162.640625 C 149.992188 162.078125 149.851562 161.53125 149.632812 161.023438 C 149.03125 158.390625 148.722656 155.671875 148.722656 152.949219 C 148.722656 152.515625 148.726562 152.1875 148.742188 151.863281 C 148.824219 151.421875 148.84375 150.96875 148.8125 150.519531 C 149.015625 147.417969 149.621094 144.339844 150.617188 141.359375 C 150.828125 140.960938 150.980469 140.535156 151.082031 140.105469 C 152.222656 137.109375 153.757812 134.277344 155.648438 131.683594 C 155.863281 131.445312 156.058594 131.1875 156.222656 130.914062 C 158.214844 128.320312 160.558594 126.003906 163.191406 124.019531 C 163.429688 123.875 163.65625 123.707031 163.867188 123.527344 C 166.554688 121.601562 169.496094 120.050781 172.605469 118.921875 C 172.890625 118.851562 173.171875 118.75 173.433594 118.632812 C 173.988281 118.449219 174.558594 118.273438 175.140625 118.117188 C 175.117188 119.082031 175.167969 120.046875 175.296875 121 C 176.117188 126.828125 179.882812 132.269531 185.148438 135.277344 C 185.253906 136.507812 185.476562 137.722656 185.824219 138.902344 C 188.453125 147.855469 196.945312 152.921875 204.167969 153.425781 C 203.957031 158.855469 201.484375 163.902344 197.324219 167.324219 C 193.511719 170.464844 188.871094 171.824219 184.589844 171.066406 C 179.253906 170.113281 174.160156 165.574219 172.179688 159.277344 C 172.175781 159.234375 172.164062 159.191406 172.148438 159.144531 C 172.144531 159.140625 172.140625 159.132812 172.132812 159.121094 C 171.542969 157.1875 171.246094 155.089844 171.324219 152.878906 C 172.035156 154.25 173.273438 155.894531 175.285156 156.578125 C 175.828125 156.765625 176.410156 156.859375 177 156.882812 C 177.890625 157.875 178.675781 158.957031 179.324219 160.109375 C 180.683594 162.527344 181.476562 165.199219 181.667969 168.0625 L 181.667969 168.070312 C 181.671875 168.125 181.683594 168.175781 181.703125 168.21875 C 181.707031 168.230469 181.707031 168.238281 181.71875 168.246094 C 181.738281 168.292969 181.765625 168.335938 181.796875 168.375 C 181.800781 168.375 181.808594 168.378906 181.808594 168.382812 C 181.84375 168.414062 181.886719 168.445312 181.929688 168.46875 C 181.933594 168.472656 181.941406 168.476562 181.945312 168.476562 C 181.980469 168.496094 182.015625 168.507812 182.050781 168.515625 C 182.066406 168.515625 182.074219 168.515625 182.085938 168.519531 C 182.09375 168.519531 182.101562 168.523438 182.109375 168.527344 C 182.132812 168.527344 182.152344 168.527344 182.171875 168.527344 C 182.226562 168.527344 182.28125 168.519531 182.332031 168.503906 C 182.351562 168.496094 182.363281 168.484375 182.378906 168.476562 C 182.410156 168.464844 182.445312 168.449219 182.476562 168.425781 C 182.496094 168.414062 182.507812 168.398438 182.523438 168.378906 C 182.546875 168.359375 182.570312 168.335938 182.589844 168.308594 C 182.605469 168.289062 182.613281 168.265625 182.621094 168.246094 C 182.636719 168.222656 182.648438 168.203125 182.65625 168.179688 C 183.5 165.597656 183.957031 162.921875 184.007812 160.21875 C 184.042969 158.105469 183.832031 155.988281 183.375 153.921875 C 184.5 152.722656 185.300781 151.332031 185.6875 149.878906 C 186.796875 145.769531 184.441406 141.601562 181.542969 139.601562 C 178.847656 137.75 175.03125 137.410156 171.335938 138.6875 C 167.414062 140.046875 164.195312 143.167969 162.503906 147.25 C 162.15625 148.078125 161.847656 148.929688 161.574219 149.789062 C 161.527344 149.949219 160.359375 153.769531 160.253906 158 C 160.25 158.1875 160.25 158.382812 160.25 158.570312 C 160.25 158.761719 160.25 158.953125 160.253906 159.140625 L 160.253906 159.148438 C 160.273438 160.09375 160.339844 161.03125 160.445312 161.960938 C 160.445312 161.972656 160.445312 161.984375 160.445312 161.996094 C 160.445312 162.003906 160.453125 162.015625 160.453125 162.027344 C 160.910156 165.882812 162.136719 169.59375 164.003906 172.949219 C 164.007812 172.964844 164.011719 172.976562 164.015625 172.992188 C 164.039062 173.054688 164.074219 173.113281 164.121094 173.164062 C 166.023438 176.5 168.578125 179.476562 171.667969 181.878906 C 170.15625 182.039062 167.933594 182.457031 165.574219 183.515625 C 164.136719 182.605469 162.761719 181.597656 161.492188 180.515625 C 161.117188 180.046875 160.664062 179.648438 160.164062 179.328125 C 157.988281 177.296875 156.058594 174.972656 154.433594 172.445312 Z M 192.773438 202.585938 C 192.816406 202.609375 192.851562 202.640625 192.898438 202.664062 C 193.726562 203.144531 194.609375 203.4375 195.527344 203.609375 C 196.171875 205.21875 196.34375 206.722656 196.027344 208.078125 C 195.660156 209.65625 194.757812 210.601562 193.125 212.320312 C 192.496094 212.988281 191.777344 213.734375 190.953125 214.671875 C 189.78125 216 188.660156 217.394531 187.617188 218.8125 C 186.574219 217.390625 185.453125 216.003906 184.285156 214.671875 C 183.457031 213.738281 182.742188 212.988281 182.113281 212.324219 C 180.476562 210.601562 179.578125 209.652344 179.203125 208.078125 C 178.886719 206.730469 179.050781 205.238281 179.679688 203.640625 C 180.644531 203.480469 181.578125 203.183594 182.449219 202.683594 C 182.117188 203.890625 182.113281 204.984375 182.457031 205.957031 C 182.78125 206.890625 183.242188 207.410156 184.609375 208.949219 L 185.28125 209.707031 C 185.957031 210.46875 186.59375 211.273438 187.1875 212.097656 C 187.277344 212.242188 187.441406 212.332031 187.617188 212.332031 C 187.796875 212.332031 187.960938 212.238281 188.054688 212.082031 C 188.644531 211.265625 189.28125 210.46875 189.953125 209.707031 L 190.414062 209.183594 C 192.011719 207.378906 192.445312 206.890625 192.78125 205.960938 C 193.132812 204.96875 193.128906 203.835938 192.773438 202.585938 Z M 191.820312 205.617188 C 191.550781 206.363281 191.183594 206.777344 189.648438 208.511719 L 189.1875 209.03125 C 188.636719 209.65625 188.113281 210.304688 187.617188 210.960938 C 187.121094 210.304688 186.59375 209.65625 186.046875 209.03125 L 185.375 208.273438 C 184.074219 206.808594 183.679688 206.367188 183.417969 205.621094 C 183.027344 204.507812 183.210938 203.144531 183.960938 201.558594 C 185.800781 199.816406 187.050781 197.039062 187.695312 193.253906 C 188.3125 196.886719 189.488281 199.597656 191.207031 201.34375 C 192.027344 203.015625 192.238281 204.457031 191.820312 205.617188 Z M 173.378906 181.882812 C 170.042969 179.535156 167.300781 176.519531 165.269531 173.09375 C 167.300781 172.328125 169.246094 171.332031 171.046875 170.125 C 172.539062 169.121094 173.941406 167.96875 175.222656 166.695312 C 177.648438 169.460938 180.824219 171.425781 184.421875 172.070312 C 188.992188 172.886719 193.933594 171.445312 197.976562 168.113281 C 202.121094 164.699219 204.675781 159.761719 205.132812 154.402344 C 206.589844 156.09375 208.695312 157.316406 211.421875 158.039062 C 212.707031 158.375 214.058594 158.546875 215.453125 158.546875 C 217.230469 158.546875 219.066406 158.273438 220.90625 157.722656 C 219.691406 166.976562 215.015625 175.277344 207.671875 181.167969 C 207.660156 181.175781 207.640625 181.191406 207.621094 181.203125 C 207.050781 181.621094 206.460938 182.015625 205.859375 182.390625 C 203.523438 183.863281 200.992188 185.015625 198.332031 185.804688 C 198.285156 185.820312 193.957031 187.089844 189.832031 187.089844 C 189.113281 187.089844 188.402344 187.0625 187.730469 187.011719 C 182.566406 186.640625 177.601562 184.867188 173.378906 181.882812 Z M 180.453125 156.117188 C 181.171875 155.773438 181.867188 155.316406 182.515625 154.765625 C 182.871094 156.5625 183.027344 158.386719 182.996094 160.210938 C 182.980469 160.8125 182.945312 161.410156 182.894531 162.003906 C 182.84375 161.722656 182.785156 161.445312 182.71875 161.171875 C 182.296875 159.375 181.515625 157.640625 180.453125 156.117188 Z M 182.097656 164.292969 C 181.675781 162.65625 181.050781 161.085938 180.21875 159.609375 C 179.660156 158.625 179.015625 157.6875 178.285156 156.808594 C 178.683594 156.742188 179.085938 156.644531 179.480469 156.511719 C 180.542969 157.976562 181.320312 159.660156 181.734375 161.40625 C 181.976562 162.425781 182.078125 163.402344 182.097656 164.292969 Z M 182.46875 153.421875 C 181.578125 154.328125 180.554688 155.007812 179.511719 155.421875 C 179.488281 155.429688 179.464844 155.4375 179.441406 155.449219 C 178.710938 155.726562 177.96875 155.882812 177.246094 155.882812 C 176.679688 155.886719 176.132812 155.800781 175.621094 155.625 C 172.746094 154.640625 171.695312 151.253906 171.511719 150.582031 C 171.453125 150.347656 171.230469 150.191406 170.988281 150.210938 C 170.75 150.226562 170.550781 150.40625 170.519531 150.644531 C 170.105469 153.527344 170.339844 156.390625 171.097656 159.046875 C 169.621094 159.65625 168.097656 160.167969 166.554688 160.558594 C 164.875 160.980469 163.152344 161.261719 161.421875 161.414062 C 161.347656 160.660156 161.296875 159.898438 161.285156 159.128906 C 161.28125 158.945312 161.277344 158.761719 161.277344 158.582031 C 161.277344 158.398438 161.28125 158.214844 161.285156 158.023438 C 161.382812 153.949219 162.550781 150.136719 162.558594 150.105469 C 162.816406 149.273438 163.117188 148.453125 163.449219 147.65625 C 165.03125 143.835938 168.03125 140.925781 171.679688 139.664062 C 175.066406 138.488281 178.542969 138.785156 180.976562 140.453125 C 183.582031 142.246094 185.703125 145.976562 184.710938 149.632812 C 184.351562 150.972656 183.554688 152.320312 182.46875 153.421875 Z M 166.800781 161.539062 C 168.363281 161.148438 169.90625 160.628906 171.402344 160.015625 C 172.136719 162.175781 173.210938 164.179688 174.574219 165.914062 C 173.320312 167.164062 171.949219 168.300781 170.480469 169.28125 C 168.703125 170.472656 166.777344 171.445312 164.765625 172.195312 C 163.121094 169.175781 162.011719 165.867188 161.542969 162.417969 C 163.3125 162.265625 165.082031 161.972656 166.800781 161.539062 Z M 162.402344 182.539062 C 163.085938 183.0625 163.796875 183.5625 164.519531 184.042969 C 163.585938 184.535156 162.644531 185.136719 161.730469 185.867188 C 162.398438 184.867188 162.566406 183.566406 162.402344 182.539062 Z M 160.261719 185.945312 C 159.527344 186.457031 158.695312 186.316406 157.738281 186.15625 C 156.722656 185.992188 155.574219 185.796875 154.398438 186.410156 C 153.460938 186.898438 152.738281 187.785156 152.246094 189.039062 C 151.859375 188.113281 151.578125 186.949219 151.730469 185.640625 C 152.058594 182.707031 154.535156 179.472656 157.308594 179.472656 C 157.394531 179.472656 157.488281 179.476562 157.578125 179.480469 C 158.238281 179.535156 158.9375 179.769531 159.5625 180.15625 C 159.972656 180.539062 160.355469 180.882812 160.734375 181.203125 C 161.054688 181.613281 161.285156 182.089844 161.386719 182.625 C 161.59375 183.710938 161.265625 185.246094 160.261719 185.945312 Z M 171.90625 201.996094 C 167.738281 201.171875 163.433594 200.328125 160.070312 203.003906 C 158.953125 203.890625 158.066406 205.066406 157.421875 206.511719 C 155.144531 200.507812 156.09375 193.765625 159.96875 189.03125 C 161.71875 186.894531 163.773438 185.488281 165.75 184.5625 C 165.765625 184.558594 165.785156 184.546875 165.804688 184.539062 C 168.832031 183.132812 171.667969 182.859375 172.941406 182.8125 C 177.148438 185.746094 182.058594 187.527344 187.171875 187.984375 C 186.941406 195.289062 185.199219 199.933594 181.988281 201.789062 C 181.128906 202.28125 180.207031 202.5625 179.234375 202.695312 C 179.226562 202.695312 179.210938 202.695312 179.199219 202.699219 C 176.972656 202.988281 174.488281 202.503906 171.90625 201.996094 Z M 200.25 210.480469 C 199.703125 212.847656 198.363281 214.261719 195.921875 216.828125 C 194.988281 217.808594 193.933594 218.914062 192.710938 220.304688 C 190.914062 222.335938 189.207031 224.472656 187.617188 226.652344 C 186.027344 224.472656 184.3125 222.335938 182.519531 220.304688 C 181.296875 218.917969 180.246094 217.808594 179.3125 216.828125 C 176.871094 214.261719 175.53125 212.847656 174.984375 210.480469 C 174.507812 208.417969 174.792969 206.128906 175.816406 203.679688 C 176.742188 203.78125 177.65625 203.824219 178.546875 203.773438 C 177.996094 205.378906 177.886719 206.902344 178.210938 208.3125 C 178.648438 210.160156 179.675781 211.238281 181.375 213.027344 C 181.996094 213.683594 182.707031 214.429688 183.515625 215.347656 C 184.816406 216.820312 186.046875 218.367188 187.179688 219.949219 C 187.273438 220.101562 187.4375 220.195312 187.621094 220.195312 C 187.804688 220.195312 187.976562 220.09375 188.066406 219.929688 C 189.195312 218.351562 190.425781 216.8125 191.714844 215.347656 C 192.527344 214.429688 193.234375 213.683594 193.859375 213.027344 C 195.5625 211.234375 196.589844 210.15625 197.015625 208.3125 C 197.351562 206.902344 197.226562 205.375 196.667969 203.761719 C 197.566406 203.828125 198.492188 203.792969 199.421875 203.699219 C 200.445312 206.136719 200.71875 208.421875 200.25 210.480469 Z M 215.417969 189.03125 C 219.300781 193.765625 220.25 200.507812 217.96875 206.515625 C 217.328125 205.070312 216.441406 203.894531 215.324219 203.003906 C 211.960938 200.324219 207.652344 201.175781 203.488281 201.992188 C 202.230469 202.242188 200.996094 202.480469 199.804688 202.632812 C 199.722656 202.617188 199.628906 202.628906 199.542969 202.664062 C 197.304688 202.921875 195.214844 202.824219 193.402344 201.78125 C 190.417969 200.070312 188.699219 195.9375 188.285156 189.503906 C 188.261719 189.042969 188.234375 188.554688 188.21875 188.054688 C 188.746094 188.082031 189.285156 188.105469 189.832031 188.105469 C 194.109375 188.105469 198.4375 186.832031 198.621094 186.78125 C 201.300781 185.976562 203.855469 184.828125 206.222656 183.363281 C 208.851562 184.019531 212.5625 185.535156 215.417969 189.03125 Z M 219.703125 169.519531 C 217.230469 174.761719 213.527344 179.480469 208.984375 183.191406 C 208.449219 182.976562 207.925781 182.796875 207.429688 182.648438 C 207.699219 182.441406 207.96875 182.234375 208.230469 182.023438 L 208.277344 181.988281 C 208.308594 181.96875 208.332031 181.949219 208.359375 181.929688 C 208.371094 181.921875 208.386719 181.90625 208.398438 181.898438 C 216.027344 175.738281 220.835938 167.046875 221.980469 157.371094 C 222.394531 157.230469 222.796875 157.070312 223.203125 156.902344 C 222.75 161.296875 221.570312 165.539062 219.703125 169.519531 Z M 233.390625 136.789062 C 234.109375 136.105469 234.722656 135.300781 235.222656 134.386719 C 235.671875 137.558594 235.605469 141.742188 233.609375 145.917969 C 231.300781 150.753906 226.714844 154.71875 221.34375 156.519531 C 217.984375 157.648438 214.640625 157.835938 211.675781 157.054688 C 208.613281 156.242188 206.414062 154.773438 205.132812 152.6875 C 205.132812 152.6875 205.132812 152.683594 205.132812 152.683594 C 204.460938 151.589844 204.003906 150.238281 203.800781 148.773438 C 203.316406 145.253906 204.355469 141.75 206.457031 139.839844 C 206.609375 139.703125 206.765625 139.570312 206.949219 139.441406 C 207.023438 139.386719 207.097656 139.332031 207.1875 139.273438 C 207.84375 138.828125 208.578125 138.507812 209.433594 138.292969 C 209.4375 138.292969 209.441406 138.292969 209.441406 138.292969 C 209.445312 138.292969 209.445312 138.292969 209.445312 138.289062 C 209.453125 138.289062 209.457031 138.289062 209.464844 138.285156 C 210.777344 137.964844 212.324219 137.898438 214.359375 138.089844 C 214.410156 138.089844 214.460938 138.09375 214.511719 138.105469 L 214.613281 138.109375 C 214.78125 138.128906 214.957031 138.144531 215.132812 138.167969 C 216.175781 138.285156 217.265625 138.453125 218.289062 138.617188 C 218.296875 138.617188 218.3125 138.617188 218.320312 138.617188 C 218.339844 138.617188 218.351562 138.621094 218.371094 138.621094 C 218.375 138.621094 218.382812 138.617188 218.394531 138.617188 C 218.398438 138.617188 218.410156 138.621094 218.421875 138.621094 C 218.429688 138.625 218.441406 138.625 218.449219 138.628906 C 218.464844 138.632812 218.476562 138.636719 218.496094 138.644531 C 218.511719 138.644531 218.523438 138.652344 218.539062 138.652344 L 218.699219 138.679688 C 222.660156 139.320312 226.753906 139.976562 230.171875 138.753906 C 231.394531 138.316406 232.476562 137.65625 233.390625 136.789062 Z M 236.625 112.738281 C 232.367188 115.851562 232.253906 121.410156 232.148438 126.785156 C 232.058594 131.164062 231.972656 135.300781 229.707031 137.835938 C 226.761719 138.84375 223.160156 138.363281 219.613281 137.800781 C 219.699219 137.726562 219.785156 137.652344 219.867188 137.578125 C 222.171875 137.5 224.195312 136.046875 225.4375 133.5625 L 225.535156 133.359375 C 228.921875 126.375 226.964844 120.183594 226.539062 119.007812 C 226.449219 118.761719 226.183594 118.621094 225.933594 118.691406 C 225.339844 118.851562 222.394531 119.734375 219.464844 122.332031 C 219.34375 122.105469 219.226562 121.882812 219.105469 121.65625 C 218.691406 120.878906 218.265625 120.074219 217.863281 119.28125 L 217.738281 119.035156 C 217.566406 118.691406 217.375 118.289062 217.191406 117.886719 C 219.976562 114.457031 223.6875 111.984375 227.667969 110.902344 C 232.144531 109.6875 236.277344 110.363281 239.320312 111.367188 C 238.335938 111.691406 237.429688 112.152344 236.625 112.738281 Z M 228.128906 146.023438 C 227.5625 145.523438 222.371094 141.152344 214.472656 142.199219 C 214.195312 142.234375 213.917969 142.28125 213.640625 142.332031 C 209.175781 143.128906 207.613281 146.394531 208.054688 149.09375 C 208.449219 151.507812 210.550781 153.882812 214.265625 153.882812 C 214.636719 153.882812 215.019531 153.859375 215.417969 153.808594 L 215.652344 153.777344 C 223.351562 152.746094 227.453125 147.707031 228.199219 146.703125 C 228.355469 146.496094 228.328125 146.195312 228.128906 146.023438 Z M 215.53125 152.769531 L 215.300781 152.796875 C 212.65625 153.121094 209.574219 152.050781 209.0625 148.929688 C 208.695312 146.703125 210.03125 144.007812 213.816406 143.328125 C 214.078125 143.285156 214.339844 143.242188 214.609375 143.207031 C 215.40625 143.097656 216.171875 143.050781 216.90625 143.050781 C 222.226562 143.050781 225.894531 145.542969 227.085938 146.476562 C 225.894531 147.9375 222.101562 151.890625 215.53125 152.769531 Z M 210.675781 191.460938 C 209.867188 190.792969 205.507812 187.5 199.007812 188.207031 L 198.824219 188.230469 C 195.054688 188.679688 193.53125 191.332031 193.710938 193.613281 C 193.890625 195.816406 195.664062 198.082031 199.152344 198.082031 C 199.332031 198.082031 199.511719 198.078125 199.695312 198.066406 C 199.929688 198.046875 200.160156 198.03125 200.398438 198.003906 C 207.046875 197.277344 210.40625 192.667969 210.769531 192.144531 C 210.921875 191.925781 210.878906 191.632812 210.675781 191.460938 Z M 200.289062 196.996094 C 200.0625 197.019531 199.839844 197.039062 199.628906 197.050781 C 196.46875 197.253906 194.878906 195.367188 194.730469 193.53125 C 194.527344 190.953125 196.773438 189.496094 198.957031 189.234375 L 199.128906 189.214844 C 199.71875 189.15625 200.277344 189.121094 200.824219 189.121094 C 205.316406 189.121094 208.472656 191.082031 209.652344 191.949219 C 208.707031 193.136719 205.648438 196.40625 200.289062 196.996094 Z M 176.320312 188.230469 L 176.125 188.207031 C 169.636719 187.503906 165.273438 190.796875 164.46875 191.460938 C 164.265625 191.632812 164.226562 191.925781 164.371094 192.140625 C 164.730469 192.664062 168.097656 197.273438 174.742188 198.003906 C 174.980469 198.027344 175.214844 198.046875 175.453125 198.0625 C 175.632812 198.070312 175.816406 198.078125 175.988281 198.078125 C 179.476562 198.078125 181.253906 195.816406 181.425781 193.609375 C 181.605469 191.332031 180.082031 188.679688 176.320312 188.230469 Z M 180.414062 193.53125 C 180.265625 195.367188 178.675781 197.253906 175.523438 197.050781 C 175.304688 197.035156 175.078125 197.019531 174.855469 196.996094 C 169.488281 196.40625 166.4375 193.132812 165.496094 191.949219 C 166.816406 190.980469 170.621094 188.636719 176.003906 189.214844 L 176.191406 189.234375 C 178.371094 189.496094 180.617188 190.953125 180.414062 193.53125 Z M 178.414062 147.332031 C 177.621094 145.453125 175.941406 144.757812 175.445312 144.59375 C 175.207031 144.511719 174.945312 144.621094 174.828125 144.84375 C 174.664062 145.175781 173.882812 146.910156 174.75 148.8125 C 175.632812 150.738281 177.480469 151.28125 177.84375 151.367188 C 177.886719 151.375 177.925781 151.382812 177.964844 151.382812 C 178.171875 151.382812 178.359375 151.257812 178.4375 151.0625 C 178.664062 150.492188 179.117188 149 178.414062 147.332031 Z M 177.640625 150.226562 C 177.082031 150 176.179688 149.480469 175.679688 148.386719 C 175.1875 147.3125 175.375 146.304688 175.558594 145.738281 C 176.113281 146.011719 177.003906 146.605469 177.476562 147.722656 C 177.898438 148.722656 177.785156 149.664062 177.640625 150.226562 Z M 162.738281 117.824219 C 162.363281 116.933594 161.636719 116.160156 160.699219 115.660156 C 160.523438 115.566406 160.316406 115.585938 160.15625 115.703125 C 159.996094 115.820312 159.921875 116.015625 159.957031 116.210938 C 160.089844 116.859375 160.089844 117.488281 159.960938 118.089844 C 159.847656 118.617188 159.65625 118.996094 159.492188 119.332031 C 159.257812 119.804688 159.03125 120.25 159.226562 120.824219 C 159.386719 121.300781 159.800781 121.71875 160.367188 121.972656 C 160.6875 122.113281 161.011719 122.1875 161.3125 122.1875 C 161.542969 122.1875 161.765625 122.144531 161.960938 122.0625 C 163.304688 121.492188 163.320312 119.210938 162.738281 117.824219 Z M 161.566406 121.125 C 161.378906 121.207031 161.074219 121.175781 160.785156 121.046875 C 160.496094 120.914062 160.261719 120.703125 160.191406 120.496094 C 160.136719 120.339844 160.207031 120.183594 160.40625 119.777344 C 160.585938 119.410156 160.8125 118.953125 160.953125 118.296875 C 161.03125 117.933594 161.074219 117.554688 161.074219 117.175781 C 161.351562 117.441406 161.617188 117.785156 161.800781 118.21875 C 162.269531 119.332031 162.140625 120.882812 161.566406 121.125 Z M 159.136719 181.816406 C 158.300781 180.625 156.066406 181.085938 154.828125 181.941406 C 154.027344 182.492188 153.425781 183.363281 153.132812 184.382812 C 153.078125 184.570312 153.136719 184.777344 153.285156 184.90625 C 153.382812 184.988281 153.5 185.03125 153.621094 185.03125 C 153.691406 185.03125 153.757812 185.019531 153.824219 184.988281 C 154.425781 184.730469 155.042969 184.597656 155.652344 184.597656 L 155.664062 184.597656 C 156.207031 184.597656 156.617188 184.703125 156.972656 184.796875 C 157.488281 184.929688 157.972656 185.050781 158.492188 184.746094 C 158.929688 184.492188 159.253906 183.996094 159.382812 183.390625 C 159.511719 182.796875 159.421875 182.21875 159.136719 181.816406 Z M 158.386719 183.179688 C 158.320312 183.492188 158.15625 183.765625 157.972656 183.875 C 157.917969 183.90625 157.863281 183.921875 157.789062 183.921875 C 157.664062 183.921875 157.496094 183.878906 157.222656 183.8125 C 156.828125 183.710938 156.332031 183.585938 155.664062 183.585938 L 155.648438 183.585938 C 155.277344 183.585938 154.902344 183.621094 154.53125 183.699219 C 154.734375 183.375 155.019531 183.042969 155.402344 182.773438 C 156.394531 182.089844 157.941406 181.886719 158.300781 182.398438 C 158.421875 182.566406 158.457031 182.871094 158.386719 183.179688 Z M 153.375 125.800781 C 152.753906 125.050781 151.835938 124.53125 150.792969 124.324219 C 150.601562 124.289062 150.402344 124.363281 150.28125 124.519531 C 150.167969 124.679688 150.152344 124.890625 150.246094 125.066406 C 150.558594 125.644531 150.746094 126.246094 150.796875 126.859375 C 150.84375 127.402344 150.773438 127.816406 150.714844 128.183594 C 150.628906 128.707031 150.550781 129.199219 150.898438 129.6875 C 151.1875 130.101562 151.710938 130.378906 152.324219 130.457031 C 152.4375 130.472656 152.542969 130.480469 152.648438 130.480469 C 153.128906 130.480469 153.566406 130.339844 153.878906 130.082031 C 154.992188 129.140625 154.332031 126.957031 153.375 125.800781 Z M 153.222656 129.300781 C 153.066406 129.429688 152.765625 129.488281 152.453125 129.453125 C 152.132812 129.410156 151.847656 129.273438 151.722656 129.097656 C 151.675781 129.035156 151.652344 128.960938 151.652344 128.851562 C 151.652344 128.734375 151.675781 128.578125 151.714844 128.351562 C 151.78125 127.945312 151.863281 127.445312 151.804688 126.773438 C 151.777344 126.402344 151.703125 126.027344 151.59375 125.664062 C 151.9375 125.839844 152.292969 126.085938 152.589844 126.445312 C 153.363281 127.378906 153.699219 128.894531 153.222656 129.300781 Z M 151.84375 173.074219 C 151.390625 171.691406 149.113281 171.476562 147.683594 171.933594 C 146.757812 172.230469 145.925781 172.886719 145.34375 173.773438 C 145.238281 173.941406 145.234375 174.148438 145.335938 174.316406 C 145.441406 174.488281 145.628906 174.578125 145.828125 174.558594 C 146.484375 174.480469 147.113281 174.539062 147.703125 174.71875 C 148.222656 174.878906 148.582031 175.097656 148.898438 175.289062 C 149.265625 175.515625 149.613281 175.726562 150.046875 175.726562 C 150.148438 175.726562 150.253906 175.714844 150.367188 175.6875 C 150.859375 175.570312 151.3125 175.195312 151.613281 174.652344 C 151.914062 174.121094 152 173.546875 151.84375 173.074219 Z M 150.726562 174.160156 C 150.570312 174.4375 150.335938 174.648438 150.128906 174.699219 C 149.96875 174.742188 149.816406 174.660156 149.429688 174.425781 C 149.074219 174.210938 148.644531 173.949219 148 173.746094 C 147.640625 173.640625 147.269531 173.566406 146.886719 173.53125 C 147.175781 173.28125 147.542969 173.042969 147.988281 172.902344 C 149.140625 172.539062 150.679688 172.796875 150.875 173.390625 C 150.9375 173.582031 150.882812 173.886719 150.726562 174.160156 Z M 146.757812 136.164062 C 145.945312 135.632812 144.914062 135.394531 143.855469 135.507812 C 143.660156 135.527344 143.492188 135.660156 143.429688 135.84375 C 143.367188 136.027344 143.414062 136.234375 143.554688 136.371094 C 144.023438 136.835938 144.378906 137.359375 144.605469 137.929688 C 144.808594 138.433594 144.867188 138.851562 144.914062 139.222656 C 144.984375 139.746094 145.050781 140.238281 145.53125 140.605469 C 145.835938 140.839844 146.238281 140.960938 146.6875 140.960938 C 146.824219 140.960938 146.972656 140.945312 147.121094 140.925781 C 147.726562 140.820312 148.222656 140.523438 148.496094 140.109375 C 149.28125 138.882812 148.015625 136.984375 146.757812 136.164062 Z M 147.636719 139.554688 C 147.523438 139.722656 147.25 139.867188 146.941406 139.917969 C 146.625 139.972656 146.3125 139.925781 146.140625 139.796875 C 146.007812 139.695312 145.976562 139.53125 145.914062 139.082031 C 145.859375 138.675781 145.789062 138.167969 145.542969 137.550781 C 145.402344 137.203125 145.226562 136.867188 145.011719 136.550781 C 145.394531 136.621094 145.804688 136.753906 146.195312 137.011719 C 147.210938 137.671875 147.972656 139.027344 147.636719 139.554688 Z M 143.828125 160.28125 L 143.78125 160.28125 C 142.808594 160.296875 141.820312 160.675781 141.003906 161.363281 C 140.851562 161.488281 140.789062 161.6875 140.839844 161.878906 C 140.890625 162.070312 141.046875 162.214844 141.238281 162.25 C 141.886719 162.371094 142.46875 162.609375 142.980469 162.953125 C 143.429688 163.257812 143.710938 163.574219 143.960938 163.851562 C 144.316406 164.242188 144.644531 164.621094 145.246094 164.65625 L 145.339844 164.65625 C 145.816406 164.65625 146.328125 164.429688 146.746094 164.03125 C 147.1875 163.605469 147.433594 163.082031 147.425781 162.589844 C 147.398438 161.148438 145.332031 160.28125 143.828125 160.28125 Z M 146.042969 163.292969 C 145.808594 163.515625 145.519531 163.65625 145.308594 163.636719 C 145.144531 163.628906 145.023438 163.507812 144.722656 163.167969 C 144.445312 162.863281 144.105469 162.484375 143.554688 162.105469 C 143.242188 161.898438 142.90625 161.71875 142.554688 161.574219 C 142.902344 161.421875 143.324219 161.300781 143.792969 161.292969 C 145.007812 161.269531 146.398438 161.976562 146.40625 162.601562 C 146.410156 162.808594 146.269531 163.078125 146.042969 163.292969 Z M 143.464844 148.003906 C 142.53125 147.726562 141.476562 147.804688 140.492188 148.21875 C 140.3125 148.296875 140.191406 148.472656 140.183594 148.667969 C 140.175781 148.859375 140.28125 149.046875 140.453125 149.136719 C 141.042969 149.441406 141.53125 149.839844 141.914062 150.316406 C 142.257812 150.738281 142.433594 151.121094 142.589844 151.460938 C 142.808594 151.9375 143.023438 152.398438 143.582031 152.605469 C 143.765625 152.675781 143.957031 152.707031 144.164062 152.707031 C 144.5 152.707031 144.855469 152.617188 145.199219 152.445312 C 145.746094 152.167969 146.136719 151.742188 146.273438 151.265625 C 146.679688 149.867188 144.910156 148.421875 143.464844 148.003906 Z M 145.296875 150.984375 C 145.242188 151.183594 145.027344 151.398438 144.746094 151.535156 C 144.457031 151.683594 144.144531 151.730469 143.945312 151.65625 C 143.789062 151.597656 143.707031 151.445312 143.519531 151.035156 C 143.347656 150.664062 143.132812 150.199219 142.714844 149.679688 C 142.476562 149.390625 142.210938 149.121094 141.914062 148.878906 C 142.292969 148.832031 142.730469 148.84375 143.183594 148.976562 C 144.339844 149.3125 145.46875 150.382812 145.296875 150.984375 Z M 174.027344 112.929688 C 173.929688 111.964844 173.460938 111.015625 172.710938 110.265625 C 172.574219 110.128906 172.367188 110.082031 172.179688 110.144531 C 171.996094 110.210938 171.867188 110.378906 171.847656 110.574219 C 171.777344 111.230469 171.59375 111.832031 171.296875 112.371094 C 171.035156 112.847656 170.742188 113.152344 170.488281 113.421875 C 170.121094 113.804688 169.78125 114.171875 169.792969 114.769531 C 169.808594 115.273438 170.082031 115.800781 170.546875 116.203125 C 170.960938 116.566406 171.441406 116.761719 171.890625 116.761719 C 171.945312 116.761719 171.996094 116.761719 172.046875 116.753906 C 173.496094 116.601562 174.175781 114.421875 174.027344 112.929688 Z M 171.941406 115.746094 C 171.738281 115.765625 171.453125 115.648438 171.21875 115.441406 C 170.972656 115.226562 170.816406 114.953125 170.808594 114.742188 C 170.804688 114.570312 170.910156 114.445312 171.222656 114.117188 C 171.503906 113.820312 171.851562 113.445312 172.183594 112.859375 C 172.367188 112.53125 172.511719 112.1875 172.625 111.820312 C 172.8125 112.15625 172.964844 112.566406 173.015625 113.027344 C 173.136719 114.234375 172.5625 115.675781 171.941406 115.746094 Z M 171.941406 115.746094 " fill-opacity="1" fill-rule="nonzero"/></g><g fill="#ffffff" fill-opacity="1"><g transform="translate(125.147597, 268.144552)"><g><path d="M 6.859375 -8.515625 L 6.859375 -2.640625 C 6.859375 -1.992188 7.019531 -1.570312 7.34375 -1.375 C 7.675781 -1.1875 8.453125 -1.054688 9.671875 -0.984375 L 9.671875 0 L 1.34375 0 L 1.34375 -0.984375 C 2.46875 -1.078125 3.179688 -1.222656 3.484375 -1.421875 C 3.796875 -1.617188 3.953125 -2.023438 3.953125 -2.640625 L 3.953125 -16.640625 C 3.953125 -17.179688 3.8125 -17.585938 3.53125 -17.859375 C 3.257812 -18.128906 2.492188 -18.320312 1.234375 -18.4375 L 1.234375 -19.40625 L 10.109375 -19.40625 C 11.898438 -19.40625 13.359375 -18.960938 14.484375 -18.078125 C 15.617188 -17.203125 16.1875 -16.046875 16.1875 -14.609375 C 16.1875 -12.734375 15.503906 -11.25 14.140625 -10.15625 C 12.773438 -9.0625 11.066406 -8.515625 9.015625 -8.515625 Z M 6.859375 -18.28125 L 6.859375 -9.71875 L 8.234375 -9.71875 C 9.765625 -9.71875 10.90625 -10.109375 11.65625 -10.890625 C 12.414062 -11.679688 12.796875 -12.703125 12.796875 -13.953125 C 12.796875 -16.835938 11.453125 -18.28125 8.765625 -18.28125 Z M 6.859375 -18.28125 "/></g></g></g><g fill="#ffffff" fill-opacity="1"><g transform="translate(143.621389, 268.144552)"><g><path d="M 1.28125 0 L 1.28125 -0.984375 C 2.382812 -0.984375 3.101562 -1.109375 3.4375 -1.359375 C 3.78125 -1.617188 3.953125 -2.023438 3.953125 -2.578125 L 3.953125 -16.578125 C 3.953125 -17.171875 3.757812 -17.601562 3.375 -17.875 C 2.988281 -18.144531 2.328125 -18.332031 1.390625 -18.4375 L 1.390625 -19.40625 L 9.890625 -19.40625 C 12.617188 -19.40625 14.96875 -18.550781 16.9375 -16.84375 C 18.914062 -15.144531 19.90625 -12.722656 19.90625 -9.578125 C 19.90625 -6.617188 18.882812 -4.28125 16.84375 -2.5625 C 14.8125 -0.851562 12.304688 0 9.328125 0 Z M 6.859375 -18.21875 L 6.859375 -3.34375 C 6.859375 -2.507812 7.097656 -1.929688 7.578125 -1.609375 C 8.054688 -1.285156 8.796875 -1.125 9.796875 -1.125 C 12.003906 -1.125 13.6875 -1.851562 14.84375 -3.3125 C 16 -4.769531 16.578125 -6.863281 16.578125 -9.59375 C 16.578125 -12.164062 15.894531 -14.253906 14.53125 -15.859375 C 13.164062 -17.472656 11.375 -18.28125 9.15625 -18.28125 C 8.207031 -18.28125 7.441406 -18.257812 6.859375 -18.21875 Z M 6.859375 -18.21875 "/></g></g></g><g fill="#ffffff" fill-opacity="1"><g transform="translate(165.991116, 268.144552)"><g/></g></g><g fill="#ffffff" fill-opacity="1"><g transform="translate(174.144076, 268.144552)"><g><path d="M 11.328125 0 L 11.328125 -0.984375 C 13.003906 -1.085938 13.84375 -1.347656 13.84375 -1.765625 C 13.84375 -1.960938 13.804688 -2.160156 13.734375 -2.359375 L 12.09375 -6.734375 L 5.296875 -6.734375 C 4.398438 -4.410156 3.953125 -2.894531 3.953125 -2.1875 C 3.953125 -1.507812 4.882812 -1.109375 6.75 -0.984375 L 6.75 0 L -0.5625 0 L -0.5625 -0.984375 C 0.1875 -1.035156 0.785156 -1.207031 1.234375 -1.5 C 1.691406 -1.800781 2.039062 -2.171875 2.28125 -2.609375 C 2.519531 -3.046875 3.367188 -5.140625 4.828125 -8.890625 L 9.015625 -19.6875 L 10.109375 -19.6875 L 16.578125 -2.9375 C 17.035156 -1.726562 17.984375 -1.078125 19.421875 -0.984375 L 19.421875 0 Z M 8.6875 -15.453125 L 5.796875 -7.9375 L 11.625 -7.9375 Z M 8.6875 -15.453125 "/></g></g></g><g fill="#ffffff" fill-opacity="1"><g transform="translate(194.326611, 268.144552)"><g><path d="M 15.015625 0 C 13.015625 -3.144531 10.945312 -6.078125 8.8125 -8.796875 L 6.859375 -8.796875 L 6.859375 -2.640625 C 6.859375 -1.992188 7.007812 -1.582031 7.3125 -1.40625 C 7.625 -1.226562 8.367188 -1.085938 9.546875 -0.984375 L 9.546875 0 L 1.34375 0 L 1.34375 -0.984375 C 2.46875 -1.078125 3.179688 -1.222656 3.484375 -1.421875 C 3.796875 -1.617188 3.953125 -2.023438 3.953125 -2.640625 L 3.953125 -16.671875 C 3.953125 -17.265625 3.785156 -17.679688 3.453125 -17.921875 C 3.128906 -18.171875 2.425781 -18.34375 1.34375 -18.4375 L 1.34375 -19.40625 L 10.3125 -19.40625 C 12.175781 -19.40625 13.65625 -19 14.75 -18.1875 C 15.851562 -17.382812 16.40625 -16.25 16.40625 -14.78125 C 16.40625 -12.207031 14.828125 -10.460938 11.671875 -9.546875 C 12.316406 -8.722656 13.597656 -7.007812 15.515625 -4.40625 C 16.515625 -3.039062 17.144531 -2.25 17.40625 -2.03125 C 17.675781 -1.820312 17.988281 -1.609375 18.34375 -1.390625 C 18.695312 -1.171875 19.332031 -1.035156 20.25 -0.984375 L 20.25 0 Z M 6.859375 -18.28125 L 6.859375 -9.96875 L 8.65625 -9.96875 C 9.96875 -9.96875 11.023438 -10.382812 11.828125 -11.21875 C 12.640625 -12.0625 13.046875 -13.148438 13.046875 -14.484375 C 13.046875 -15.679688 12.703125 -16.613281 12.015625 -17.28125 C 11.328125 -17.945312 10.382812 -18.28125 9.1875 -18.28125 Z M 6.859375 -18.28125 "/></g></g></g><g fill="#ffffff" fill-opacity="1"><g transform="translate(215.384024, 268.144552)"><g><path d="M 16.15625 -14.140625 C 15.957031 -14.890625 15.59375 -15.671875 15.0625 -16.484375 C 14.53125 -17.304688 14.066406 -17.816406 13.671875 -18.015625 C 13.285156 -18.222656 12.367188 -18.328125 10.921875 -18.328125 L 10.109375 -18.328125 L 10.109375 -2.828125 C 10.109375 -2.316406 10.269531 -1.914062 10.59375 -1.625 C 10.925781 -1.332031 11.8125 -1.117188 13.25 -0.984375 L 13.25 0 L 4.09375 0 L 4.09375 -0.984375 C 5.425781 -1.078125 6.273438 -1.226562 6.640625 -1.4375 C 7.003906 -1.644531 7.1875 -2.0625 7.1875 -2.6875 L 7.1875 -18.328125 L 6.40625 -18.328125 C 5.09375 -18.328125 4.238281 -18.257812 3.84375 -18.125 C 3.457031 -18 2.976562 -17.523438 2.40625 -16.703125 C 1.84375 -15.878906 1.429688 -15.023438 1.171875 -14.140625 L 0.1875 -14.140625 L 0.1875 -19.40625 L 17.109375 -19.40625 L 17.109375 -14.140625 Z M 16.15625 -14.140625 "/></g></g></g><g fill="#ffffff" fill-opacity="1"><g transform="translate(234.117543, 268.144552)"><g><path d="M 3.15625 -0.984375 L 2.578125 0 L 1.484375 0 L 1.28125 -6.625 L 2.375 -6.625 C 3.488281 -2.726562 5.453125 -0.78125 8.265625 -0.78125 C 10.703125 -0.78125 11.921875 -1.921875 11.921875 -4.203125 C 11.921875 -4.878906 11.753906 -5.5 11.421875 -6.0625 C 11.097656 -6.632812 10.707031 -7.070312 10.25 -7.375 C 9.800781 -7.675781 9.128906 -7.992188 8.234375 -8.328125 C 6.429688 -8.984375 5.144531 -9.523438 4.375 -9.953125 C 3.613281 -10.390625 2.992188 -10.992188 2.515625 -11.765625 C 2.046875 -12.546875 1.8125 -13.476562 1.8125 -14.5625 C 1.8125 -16.03125 2.390625 -17.273438 3.546875 -18.296875 C 4.703125 -19.316406 6.085938 -19.828125 7.703125 -19.828125 C 9.117188 -19.828125 10.566406 -19.378906 12.046875 -18.484375 L 12.609375 -19.40625 L 13.6875 -19.40625 L 13.8125 -12.96875 L 12.6875 -12.96875 C 12.09375 -15.15625 11.390625 -16.648438 10.578125 -17.453125 C 9.765625 -18.253906 8.75 -18.65625 7.53125 -18.65625 C 6.644531 -18.65625 5.898438 -18.375 5.296875 -17.8125 C 4.703125 -17.25 4.40625 -16.566406 4.40625 -15.765625 C 4.40625 -14.816406 4.660156 -14.03125 5.171875 -13.40625 C 5.691406 -12.789062 6.847656 -12.160156 8.640625 -11.515625 C 10.941406 -10.671875 12.507812 -9.816406 13.34375 -8.953125 C 14.1875 -8.097656 14.609375 -6.953125 14.609375 -5.515625 C 14.609375 -3.785156 13.976562 -2.367188 12.71875 -1.265625 C 11.457031 -0.160156 9.890625 0.390625 8.015625 0.390625 C 6.328125 0.390625 4.707031 -0.0664062 3.15625 -0.984375 Z M 3.15625 -0.984375 "/></g></g></g></svg>